<?xml version="1.0" standalone="no"?>
<!DOCTYPE svg PUBLIC "-//W3C//DTD SVG 1.1//EN" "http://www.w3.org/Graphics/SVG/1.1/DTD/svg11.dtd" >
<svg xmlns="http://www.w3.org/2000/svg" xmlns:xlink="http://www.w3.org/1999/xlink" version="1.1">
<metadata>
Created by FontForge 20170731 at Mon May 17 18:39:32 2021
 By Aleksey,,,
Copyright (c) 2020 Miles Newlyn. All rights reserved.
</metadata>
<defs>
<font id="NewOrder-Light" horiz-adv-x="633" >
  <font-face 
    font-family="New Order Light"
    font-weight="300"
    font-stretch="normal"
    units-per-em="1000"
    panose-1="0 0 0 0 0 0 0 0 0 0"
    ascent="800"
    descent="-200"
    x-height="527"
    cap-height="730"
    bbox="-205 -196 1089 1011"
    underline-thickness="50"
    underline-position="-175"
    unicode-range="U+0020-FB02"
  />
<missing-glyph horiz-adv-x="776" 
d="M104 769h568v-965h-568v965zM610 731h-466v-847zM632 -158v847l-466 -847h466z" />
    <glyph glyph-name="fi" unicode="fi" horiz-adv-x="424" 
d="M224 769h8v-37h-6q-49 0 -71.5 -21t-22.5 -69v-115h71v-37h-71v-490h-38v490h-65v37h65v117q0 125 130 125zM308 527h38v-527h-38v527zM308 769h38v-136h-38v136z" />
    <glyph glyph-name="fl" unicode="fl" horiz-adv-x="424" 
d="M224 769h8v-37h-6q-49 0 -71.5 -21t-22.5 -69v-115h71v-37h-71v-490h-38v490h-65v37h65v117q0 125 130 125zM308 769h38v-769h-38v769z" />
    <glyph glyph-name=".notdef" horiz-adv-x="776" 
d="M104 769h568v-965h-568v965zM610 731h-466v-847zM632 -158v847l-466 -847h466z" />
    <glyph glyph-name=".null" horiz-adv-x="0" 
 />
    <glyph glyph-name="nonmarkingreturn" horiz-adv-x="333" 
 />
    <glyph glyph-name="space" unicode=" " horiz-adv-x="264" 
 />
    <glyph glyph-name="exclam" unicode="!" horiz-adv-x="226" 
d="M89 94h48v-94h-48v94zM94 730h38v-520h-38v520z" />
    <glyph glyph-name="quotedbl" unicode="&#x22;" horiz-adv-x="321" 
d="M69 730h45l-4 -255h-35zM252 730l-6 -255h-35l-4 255h45z" />
    <glyph glyph-name="numbersign" unicode="#" horiz-adv-x="582" 
d="M138 227h-98v37h106l42 203h-108v37h116l47 226h38l-47 -226h172l47 226h38l-47 -226h98v-37h-106l-42 -203h108v-37h-116l-47 -227h-38l47 227h-172l-47 -227h-38zM356 264l42 203h-172l-42 -203h172z" />
    <glyph glyph-name="dollar" unicode="$" horiz-adv-x="514" 
d="M235 16q-75 8 -127 55.5t-65 122.5l37 11q10 -64 51.5 -104t103.5 -48v319l-46 21q-122 57 -122 160q0 67 46.5 113.5t121.5 51.5v61h38v-61q66 -5 113.5 -41.5t67.5 -98.5l-36 -15q-18 53 -55 82.5t-90 33.5v-282l54 -25q64 -29 100.5 -77t36.5 -106q0 -48 -24.5 -87
t-68 -62.5t-98.5 -25.5v-64h-38v66zM131.5 480.5q24.5 -30.5 74.5 -53.5l29 -13v265q-58 -6 -93 -40.5t-35 -85.5q0 -42 24.5 -72.5zM382 92q42 38 42 96q0 97 -116 150l-35 16v-303q67 3 109 41z" />
    <glyph glyph-name="percent" unicode="%" horiz-adv-x="744" 
d="M630 730h47l-563 -730h-47zM86 691.5q46 45.5 117 45.5t117 -45.5t46 -117.5t-46 -117.5t-117 -45.5t-117 45.5t-46 117.5t46 117.5zM113 482.5q34 -34.5 90 -34.5t90 34.5t34 91.5t-34 91.5t-90 34.5t-90 -34.5t-34 -91.5t34 -91.5zM424 273.5q46 45.5 117 45.5
t117 -45.5t46 -117.5t-46 -117.5t-117 -45.5t-117 45.5t-46 117.5t46 117.5zM451 64.5q34 -34.5 90 -34.5t90 34.5t34 91.5t-34 91.5t-90 34.5t-90 -34.5t-34 -91.5t34 -91.5z" />
    <glyph glyph-name="ampersand" unicode="&#x26;" horiz-adv-x="649" 
d="M239 385q-70 -22 -112 -67.5t-42 -114.5q0 -75 48.5 -122.5t126.5 -47.5q52 0 106 22t93 63l-212 257zM92 335q46 55 123 81q-34 44 -49 79t-15 75q0 76 53.5 121.5t154.5 45.5q35 0 88 -7v-37q-48 7 -83 7q-88 0 -131.5 -34.5t-43.5 -94.5q0 -40 19 -75.5t63 -88.5
l215 -260q63 93 91 234l40 -8q-34 -155 -106 -256l97 -117h-52l-73 88q-43 -43 -100.5 -68t-122.5 -25q-64 0 -112.5 26t-75 73t-26.5 107q0 79 46 134z" />
    <glyph glyph-name="quotesingle" unicode="'" horiz-adv-x="185" 
d="M69 730h47l-6 -255h-35z" />
    <glyph glyph-name="parenleft" unicode="(" horiz-adv-x="254" 
d="M50 309q0 260 155 460h42q-159 -210 -159 -460t159 -460h-42q-155 200 -155 460z" />
    <glyph glyph-name="parenright" unicode=")" horiz-adv-x="254" 
d="M166 309q0 250 -159 460h42q155 -200 155 -460t-155 -460h-42q159 210 159 460z" />
    <glyph glyph-name="asterisk" unicode="*" horiz-adv-x="454" 
d="M201 570l-143 44l12 36l141 -49l-3 149h38l-3 -149l141 49l12 -36l-143 -44l90 -118l-31 -23l-85 122l-85 -122l-31 23z" />
    <glyph glyph-name="plus" unicode="+" horiz-adv-x="540" 
d="M251 324h-177v37h177v188h38v-188h177v-37h-177v-187h-38v187z" />
    <glyph glyph-name="comma" unicode="," horiz-adv-x="201" 
d="M83 104h48l-65 -255h-33z" />
    <glyph glyph-name="hyphen" unicode="-" horiz-adv-x="358" 
d="M64 351h230v-37h-230v37z" />
    <glyph glyph-name="period" unicode="." horiz-adv-x="188" 
d="M70 94h48v-94h-48v94z" />
    <glyph glyph-name="slash" unicode="/" horiz-adv-x="435" 
d="M363 769h39l-330 -920h-39z" />
    <glyph glyph-name="zero" unicode="0" horiz-adv-x="602" 
d="M125.5 88.5q-62.5 98.5 -62.5 276.5t62.5 276.5t175.5 98.5t175.5 -98.5t62.5 -276.5t-62.5 -276.5t-175.5 -98.5t-175.5 98.5zM155 116.5q51 -87.5 146 -87.5t146 87.5t51 248.5q0 160 -51.5 248t-145.5 88t-145.5 -88t-51.5 -248q0 -161 51 -248.5z" />
    <glyph glyph-name="one" unicode="1" horiz-adv-x="262" 
d="M116 692h-70v38h110v-730h-40v692z" />
    <glyph glyph-name="two" unicode="2" horiz-adv-x="509" 
d="M104 39h358v-39h-414v32l220 272q69 85 102 140.5t33 109.5q0 39 -18 71.5t-51 52t-77 19.5q-64 0 -109 -38.5t-62 -113.5l-37 11q20 87 75.5 133.5t132.5 46.5q55 0 98 -24.5t66 -66t23 -90.5q0 -62 -36 -123.5t-112 -154.5z" />
    <glyph glyph-name="three" unicode="3" horiz-adv-x="552" 
d="M123.5 49q-61.5 54 -73.5 147l40 10q10 -81 61 -127t124 -46q79 0 128 46.5t49 121.5q0 74 -48 121.5t-129 47.5h-59v38h43q74 0 119.5 41.5t45.5 108.5q0 63 -43 101.5t-111 38.5q-62 0 -107.5 -38.5t-62.5 -109.5l-38 11q20 83 76 129t132 46q58 0 102 -23.5t67.5 -64
t23.5 -90.5q0 -56 -30.5 -100.5t-83.5 -64.5q66 -17 105 -70.5t39 -121.5q0 -58 -27.5 -105t-77.5 -74t-115 -27q-88 0 -149.5 54z" />
    <glyph glyph-name="four" unicode="4" horiz-adv-x="524" 
d="M355 130h-334v30l341 570h32v-563h90v-37h-90v-130h-39v130zM355 167v481l-288 -481h288z" />
    <glyph glyph-name="five" unicode="5" horiz-adv-x="543" 
d="M109.5 49q-60.5 54 -72.5 149l41 8q10 -81 59.5 -127t125.5 -46q82 0 132 51t50 140q0 85 -46.5 136.5t-130.5 51.5q-92 0 -155 -69l-31 9l63 378h330v-38h-297l-47 -286q60 45 140 45q65 0 113.5 -28.5t75 -80t26.5 -118.5q0 -69 -28.5 -121t-80 -80t-116.5 -28
q-91 0 -151.5 54z" />
    <glyph glyph-name="six" unicode="6" horiz-adv-x="565" 
d="M169 24.5q-55 30.5 -86 83t-31 117.5q0 56 20.5 103.5t60.5 110.5l184 291h51q-119 -176 -192 -294q55 33 122 33q65 0 118 -30.5t83 -84.5t30 -122t-31 -122t-85 -85t-122 -31q-67 0 -122 30.5zM118.5 128.5q25.5 -44.5 70.5 -70t102 -25.5t102 25.5t70 70.5t25 103
q0 59 -25 104.5t-69.5 70.5t-100.5 25q-58 0 -103.5 -27t-71 -74t-25.5 -103q0 -55 25.5 -99.5z" />
    <glyph glyph-name="seven" unicode="7" horiz-adv-x="455" 
d="M388 692h-368v38h413v-32l-307 -698h-43z" />
    <glyph glyph-name="eight" unicode="8" horiz-adv-x="580" 
d="M167.5 19.5q-52.5 26.5 -81 74t-28.5 108.5q0 70 38.5 120.5t103.5 69.5q-53 21 -82.5 64.5t-29.5 100.5q0 53 25.5 94t71 63.5t105.5 22.5t105.5 -22.5t71 -63.5t25.5 -94q0 -57 -29.5 -100.5t-82.5 -64.5q65 -19 103.5 -69.5t38.5 -120.5q0 -61 -28.5 -108.5t-81 -74
t-122.5 -26.5t-122.5 26.5zM150.5 77.5q51.5 -46.5 139.5 -46.5t139.5 46.5t51.5 123.5t-51.5 123t-139.5 46t-139.5 -46t-51.5 -123t51.5 -123.5zM172.5 449.5q44.5 -41.5 117.5 -41.5t117.5 41.5t44.5 106.5t-44 103.5t-118 38.5t-118 -38.5t-44 -103.5t44.5 -106.5z" />
    <glyph glyph-name="nine" unicode="9" horiz-adv-x="565" 
d="M396 705.5q55 -30.5 86 -83t31 -117.5q0 -56 -20.5 -103.5t-60.5 -110.5l-184 -291h-51q119 176 192 294q-55 -33 -122 -33q-65 0 -118 30.5t-83 84.5t-30 122t31 122t85 85t122 31q67 0 122 -30.5zM102 393.5q25 -45.5 69.5 -70.5t100.5 -25q58 0 103.5 27t71 74
t25.5 103q0 55 -25.5 99.5t-70.5 70t-102 25.5t-102 -25.5t-70 -70.5t-25 -103q0 -59 25 -104.5z" />
    <glyph glyph-name="colon" unicode=":" horiz-adv-x="188" 
d="M70 527h48v-94h-48v94zM70 94h48v-94h-48v94z" />
    <glyph glyph-name="semicolon" unicode=";" horiz-adv-x="234" 
d="M105 104h48l-65 -255h-33zM101 527h48v-94h-48v94z" />
    <glyph glyph-name="less" unicode="&#x3c;" horiz-adv-x="540" 
d="M63 307v47l402 177v-41l-367 -159l367 -160v-41z" />
    <glyph glyph-name="equal" unicode="=" horiz-adv-x="540" 
d="M74 441h392v-37h-392v37zM74 281h392v-37h-392v37z" />
    <glyph glyph-name="greater" unicode="&#x3e;" horiz-adv-x="540" 
d="M75 171l367 159l-367 160v41l402 -177v-47l-402 -177v41z" />
    <glyph glyph-name="question" unicode="?" horiz-adv-x="485" 
d="M235 301.5q13 29.5 45 64.5l52 56q26 29 40.5 59t14.5 69q0 64 -39.5 105.5t-106.5 41.5q-64 0 -109 -38.5t-62 -113.5l-37 11q20 87 75.5 133.5t132.5 46.5q56 0 98.5 -24t65.5 -66.5t23 -94.5q0 -48 -18.5 -84.5t-51.5 -72.5l-53 -56q-24 -26 -34.5 -49t-10.5 -53v-26
h-38v24q0 38 13 67.5zM217 94h48v-94h-48v94z" />
    <glyph glyph-name="at" unicode="@" horiz-adv-x="844" 
d="M230.5 -62q-85.5 49 -134.5 135t-49 191q0 106 49.5 191.5t136 134.5t192.5 49q107 0 190 -47.5t129 -133t46 -195.5q0 -97 -31.5 -147.5t-91.5 -50.5q-39 0 -64 21.5t-32 63.5q-21 -41 -66 -66t-98 -25q-55 0 -100 27t-71 73.5t-26 104.5t26 105t71 74t100 27
q51 0 94 -23.5t65 -62.5v78h36v-275q0 -44 18 -65.5t48 -21.5q84 0 84 160q0 101 -40.5 178.5t-114.5 119.5t-172 42q-95 0 -172 -44t-121 -120.5t-44 -171.5t44 -172t121 -121.5t171 -44.5q48 0 118 15v-37q-69 -15 -121 -15q-105 0 -190.5 49zM294 143q45 -47 116 -47
t113.5 46t42.5 122q0 77 -42.5 123t-113.5 46t-116 -47.5t-45 -121.5t45 -121z" />
    <glyph glyph-name="A" unicode="A" horiz-adv-x="595" 
d="M279 730h36l256 -730h-43l-66 190h-329l-66 -190h-42zM449 228l-152 437l-151 -437h303z" />
    <glyph glyph-name="B" unicode="B" horiz-adv-x="575" 
d="M104 730h165q101 0 160 -47.5t59 -130.5q0 -60 -31.5 -104t-87.5 -64q69 -17 107 -65t38 -120q0 -92 -60.5 -145.5t-164.5 -53.5h-185v730zM285 38q89 0 138.5 41t49.5 121t-50.5 121t-147.5 41h-131v-324h141zM265 400q85 0 133.5 39.5t48.5 108.5t-48 106.5t-134 37.5
h-121v-292h121z" />
    <glyph glyph-name="C" unicode="C" horiz-adv-x="563" 
d="M237.5 40q-85.5 47 -135.5 132t-50 193t50 193t135.5 132t189.5 47q44 0 98 -9v-37q-54 9 -95 9q-96 0 -173 -43t-120.5 -119.5t-43.5 -172.5t43.5 -172.5t120.5 -119.5t173 -43q41 0 95 9v-37q-54 -9 -98 -9q-104 0 -189.5 47z" />
    <glyph glyph-name="D" unicode="D" horiz-adv-x="691" 
d="M104 730h166q103 0 187 -45.5t132.5 -128.5t48.5 -191q0 -109 -48.5 -192t-132.5 -128t-187 -45h-166v730zM270 38q94 0 168.5 41t116.5 115.5t42 170.5q0 95 -42 169.5t-116.5 116t-168.5 41.5h-126v-654h126z" />
    <glyph glyph-name="E" unicode="E" horiz-adv-x="521" 
d="M104 730h347v-38h-307v-290h303v-38h-303v-326h312v-38h-352v730z" />
    <glyph glyph-name="F" unicode="F" horiz-adv-x="494" 
d="M104 730h345v-38h-305v-292h296v-38h-296v-362h-40v730z" />
    <glyph glyph-name="G" unicode="G" horiz-adv-x="811" 
d="M235.5 37.5q-84.5 47.5 -134 133t-49.5 192.5q0 109 50 195t135.5 134t186.5 48q79 0 151 -29t121 -80l-28 -32q-43 48 -107 75t-137 27q-92 0 -168 -43.5t-119.5 -121t-43.5 -173.5q0 -94 43 -170.5t118 -120t167 -43.5q85 0 153 38t109 110t45 171h-325v38h365v-17
q0 -118 -46 -203.5t-125 -130.5t-176 -45q-101 0 -185.5 47.5z" />
    <glyph glyph-name="H" unicode="H" horiz-adv-x="676" 
d="M532 364h-388v-364h-40v730h40v-328h388v328h40v-730h-40v364z" />
    <glyph glyph-name="I" unicode="I" horiz-adv-x="248" 
d="M104 730h40v-730h-40v730z" />
    <glyph glyph-name="J" unicode="J" horiz-adv-x="328" 
d="M21 33h55q62 0 88 27t26 94v576h40v-580q0 -80 -38 -117.5t-116 -37.5h-55v38z" />
    <glyph glyph-name="K" unicode="K" horiz-adv-x="536" 
d="M144 372v-372h-40v730h40v-327l320 327h53l-335 -341l356 -389h-54z" />
    <glyph glyph-name="L" unicode="L" horiz-adv-x="466" 
d="M104 730h40v-692h305v-38h-345v730z" />
    <glyph glyph-name="M" unicode="M" horiz-adv-x="868" 
d="M104 730h49l282 -513l281 513h48v-730h-40v666l-276 -500h-29l-275 500v-666h-40v730z" />
    <glyph glyph-name="N" unicode="N" horiz-adv-x="686" 
d="M104 730h47l391 -665v665h40v-730h-47l-391 665v-665h-40v730z" />
    <glyph glyph-name="O" unicode="O" horiz-adv-x="840" 
d="M237.5 37.5q-84.5 47.5 -135 133.5t-50.5 194t50.5 193.5t135 133.5t182.5 48t182.5 -48t135 -133.5t50.5 -193.5t-50.5 -194t-135 -133.5t-182.5 -47.5t-182.5 47.5zM137 193q44 -77 119 -120.5t164 -43.5t164 43.5t119 120.5t44 172t-44 172t-119 120.5t-164 43.5
t-164 -43.5t-119 -120.5t-44 -172t44 -172z" />
    <glyph glyph-name="P" unicode="P" horiz-adv-x="525" 
d="M104 730h165q103 0 162.5 -53t59.5 -145t-59.5 -145t-162.5 -53h-125v-334h-40v730zM265 372q89 0 137 41.5t48 118.5t-48 118.5t-137 41.5h-121v-320h121z" />
    <glyph glyph-name="Q" unicode="Q" horiz-adv-x="833" 
d="M234.5 45q-83.5 45 -133 128t-49.5 192q0 108 50 193.5t133 133.5t180 48t180 -48t133 -133.5t50 -193.5q0 -118 -58.5 -205t-155.5 -125l202 3v-38h-351q-97 0 -180.5 45zM136.5 194.5q43.5 -74.5 117 -115.5t161.5 -41t161.5 41t117 115.5t43.5 170.5q0 95 -43.5 172
t-117.5 120.5t-161 43.5t-161 -43.5t-117.5 -120.5t-43.5 -172q0 -96 43.5 -170.5z" />
    <glyph glyph-name="R" unicode="R" horiz-adv-x="534" 
d="M144 354v-354h-40v730h159q95 0 151.5 -51.5t56.5 -137.5q0 -53 -25.5 -96t-73 -67.5t-109.5 -24.5h-67l322 -353h-53zM259 390q81 0 126.5 41t45.5 110q0 70 -45 110.5t-127 40.5h-115v-302h115z" />
    <glyph glyph-name="S" unicode="S" horiz-adv-x="448" 
d="M45 0v38q63 -7 129 -7q95 0 144.5 39t49.5 113q0 51 -26 89t-86 75l-81 50q-61 37 -89.5 79.5t-28.5 95.5q0 78 56 121.5t157 43.5q41 0 94 -7v-37q-49 7 -94 7q-85 0 -129 -33t-44 -95q0 -43 23.5 -77t76.5 -66l80 -49q67 -41 99 -89t32 -107q0 -90 -61.5 -140.5
t-172.5 -50.5q-60 0 -129 7z" />
    <glyph glyph-name="T" unicode="T" horiz-adv-x="470" 
d="M215 692h-200v38h440v-38h-200v-692h-40v692z" />
    <glyph glyph-name="U" unicode="U" horiz-adv-x="660" 
d="M157.5 57q-61.5 67 -61.5 188v485h40v-481q0 -107 50.5 -164t143.5 -57t143.5 57t50.5 164v481h40v-485q0 -121 -61.5 -188t-172.5 -67t-172.5 67z" />
    <glyph glyph-name="V" unicode="V" horiz-adv-x="581" 
d="M27 730h43l221 -663l220 663h42l-244 -730h-36z" />
    <glyph glyph-name="W" unicode="W" horiz-adv-x="971" 
d="M33 730h42l185 -658l208 658h35l210 -658l183 658h41l-206 -730h-36l-210 658l-208 -658h-36z" />
    <glyph glyph-name="X" unicode="X" horiz-adv-x="523" 
d="M261 329l-192 -329h-44l214 366l-214 364h46l191 -324l189 324h44l-211 -362l216 -368h-46z" />
    <glyph glyph-name="Y" unicode="Y" horiz-adv-x="540" 
d="M250 290l-219 440h46l194 -396l195 396h44l-220 -440v-290h-40v290z" />
    <glyph glyph-name="Z" unicode="Z" horiz-adv-x="490" 
d="M19 10l385 682h-357l12 38h403v-10l-385 -682h387l-12 -38h-433v10z" />
    <glyph glyph-name="bracketleft" unicode="[" horiz-adv-x="289" 
d="M95 769h178v-37h-140v-846h140v-37h-178v920z" />
    <glyph glyph-name="backslash" unicode="\" horiz-adv-x="436" 
d="M33 769h40l330 -920h-40z" />
    <glyph glyph-name="bracketright" unicode="]" horiz-adv-x="289" 
d="M16 -151v37h140v846h-140v37h178v-920h-178z" />
    <glyph glyph-name="asciicircum" unicode="^" horiz-adv-x="416" 
d="M183 730h50l143 -251h-44l-124 219l-125 -219h-43z" />
    <glyph glyph-name="underscore" unicode="_" horiz-adv-x="426" 
d="M25 -50h376v-37h-376v37z" />
    <glyph glyph-name="grave" unicode="`" horiz-adv-x="487" 
d="M150 769h53l134 -151h-47z" />
    <glyph glyph-name="a" unicode="a" 
d="M171 25q-60 35 -94.5 97.5t-34.5 140.5t34.5 141t94.5 98t132 35t130.5 -34.5t85.5 -90.5v115h36v-527h-36v115q-27 -56 -85.5 -90.5t-130.5 -34.5t-132 35zM110 142.5q29 -53.5 80 -84t115 -30.5q60 0 109.5 27t78.5 80.5t29 127.5q0 75 -29 128t-78.5 80.5t-109.5 27.5
q-64 0 -115 -30.5t-80 -84.5t-29 -121t29 -120.5z" />
    <glyph glyph-name="b" unicode="b" 
d="M199.5 24.5q-58.5 34.5 -85.5 90.5v-115h-36v769h38v-242q0 -39 -2 -115q26 56 84.5 90.5t131.5 34.5q72 0 132 -35t94.5 -98t34.5 -141t-34.5 -140.5t-94.5 -97.5t-132 -35t-130.5 34.5zM140 135.5q29 -53.5 78.5 -80.5t109.5 -27q64 0 115 30.5t80 84t29 120.5t-29 121
t-80 84.5t-115 30.5q-60 0 -109.5 -27.5t-78.5 -80.5t-29 -128q0 -74 29 -127.5z" />
    <glyph glyph-name="c" unicode="c" horiz-adv-x="426" 
d="M170 28.5q-60 34.5 -94 96t-34 138.5t34 138.5t94 96t136 34.5q40 0 86 -9v-37q-48 8 -83 8q-66 0 -118 -29.5t-81 -82t-29 -119.5t29 -119.5t81 -82t118 -29.5q35 0 83 8v-37q-46 -9 -86 -9q-76 0 -136 34.5z" />
    <glyph glyph-name="d" unicode="d" 
d="M171 25q-60 35 -94.5 97.5t-34.5 140.5t34.5 141t94.5 98t132 35q73 0 131.5 -34.5t84.5 -90.5q-2 76 -2 115v242h38v-769h-36v115q-27 -56 -85.5 -90.5t-130.5 -34.5t-132 35zM110 142.5q29 -53.5 80 -84t115 -30.5q60 0 109.5 27t78.5 80.5t29 127.5q0 75 -29 128
t-78.5 80.5t-109.5 27.5q-64 0 -115 -30.5t-80 -84.5t-29 -121t29 -120.5z" />
    <glyph glyph-name="e" unicode="e" horiz-adv-x="586" 
d="M168 28q-60 36 -93 97.5t-33 136.5q0 74 33 136.5t92 99t133 36.5q65 0 118.5 -29t88 -87t40.5 -142h-466v-12v-4q0 -63 28 -116t79 -83.5t117 -30.5q69 0 123 33.5t84 92.5l33 -17q-30 -60 -91.5 -103.5t-148.5 -43.5q-77 0 -137 36zM504 313q-16 92 -73 137.5
t-132 45.5q-83 0 -140.5 -51.5t-72.5 -131.5h418z" />
    <glyph glyph-name="f" unicode="f" horiz-adv-x="230" 
d="M224 769h8v-37h-6q-49 0 -71.5 -21t-22.5 -69v-115h71v-37h-71v-490h-38v490h-65v37h65v117q0 125 130 125z" />
    <glyph glyph-name="g" unicode="g" 
d="M192 -159h89q122 0 178.5 50t58.5 151l2 80q-26 -56 -84.5 -89.5t-130.5 -33.5q-73 0 -133 34.5t-94.5 95.5t-34.5 138t34.5 138.5t94.5 96.5t132 35t130.5 -34.5t85.5 -90.5v115h36v-485q0 -110 -66.5 -174t-210.5 -64h-87v37zM111 148.5q29 -52.5 80.5 -82t117.5 -29.5
q59 0 107.5 25t77.5 76t29 125q0 75 -29 128t-78.5 80.5t-109.5 27.5q-64 0 -115 -30t-80 -83t-29 -119t29 -118.5z" />
    <glyph glyph-name="h" unicode="h" horiz-adv-x="530" 
d="M78 769h38v-247q0 -50 -1 -74q21 43 61 66t95 23q88 0 137.5 -57t49.5 -159v-321h-38v320q0 87 -39.5 133.5t-112.5 46.5q-74 0 -113 -46t-39 -134v-320h-38v769z" />
    <glyph glyph-name="i" unicode="i" horiz-adv-x="194" 
d="M78 527h38v-527h-38v527zM78 769h38v-136h-38v136z" />
    <glyph glyph-name="j" unicode="j" horiz-adv-x="194" 
d="M-35 -159h8q56 0 80.5 22.5t24.5 77.5v586h38v-588q0 -69 -33.5 -102t-106.5 -33h-11v37zM78 769h38v-136h-38v136z" />
    <glyph glyph-name="k" unicode="k" horiz-adv-x="414" 
d="M116 271v-271h-38v769h38v-475l228 233h54l-241 -244l265 -283h-55z" />
    <glyph glyph-name="l" unicode="l" horiz-adv-x="194" 
d="M78 769h38v-769h-38v769z" />
    <glyph glyph-name="m" unicode="m" horiz-adv-x="830" 
d="M118.5 481q46.5 56 130.5 56q64 0 106 -31.5t60 -85.5q17 54 60 85.5t108 31.5q83 0 129 -56.5t46 -152.5v-328h-38v323q0 84 -34 130.5t-103 46.5q-72 0 -110.5 -50t-38.5 -141v-309h-38v309q0 91 -38 141t-109 50q-70 0 -104.5 -46.5t-34.5 -130.5v-323h-38v328
q0 97 46.5 153z" />
    <glyph glyph-name="n" unicode="n" horiz-adv-x="524" 
d="M121.5 480.5q49.5 56.5 140.5 56.5q90 0 140 -56.5t50 -159.5v-321h-38v320q0 88 -39 134t-113 46t-113 -46t-39 -134v-320h-38v321q0 103 49.5 159.5z" />
    <glyph glyph-name="o" unicode="o" horiz-adv-x="609" 
d="M170.5 25.5q-60.5 35.5 -94.5 98t-34 139.5t34 140t94.5 98.5t134.5 35.5t134 -35.5t94 -98.5t34 -140t-34 -139.5t-94 -98t-134 -35.5t-134.5 35.5zM110 142.5q29 -53.5 80 -84t115 -30.5q63 0 114 30.5t80 84t29 120.5t-29 121t-80 84.5t-114 30.5q-64 0 -115 -30.5
t-80 -84.5t-29 -121t29 -120.5z" />
    <glyph glyph-name="p" unicode="p" 
d="M78 527h36v-115q27 56 85.5 90.5t130.5 34.5t132 -35t94.5 -98t34.5 -141t-34.5 -140.5t-94.5 -97.5t-132 -35q-73 0 -131.5 34.5t-84.5 90.5q2 -76 2 -115v-196h-38v723zM140 135.5q29 -53.5 78.5 -80.5t108.5 -27q64 0 115.5 30.5t80.5 84t29 120.5t-29 121t-80.5 84.5
t-115.5 30.5q-59 0 -108.5 -27.5t-78.5 -80.5t-29 -128q0 -74 29 -127.5z" />
    <glyph glyph-name="q" unicode="q" 
d="M517 -196v196q0 39 2 115q-26 -56 -84.5 -90.5t-131.5 -34.5q-72 0 -132 35t-94.5 97.5t-34.5 140.5t34.5 141t94.5 98t132 35t130.5 -34.5t85.5 -90.5v115h36v-723h-38zM110 142.5q29 -53.5 80.5 -84t115.5 -30.5q59 0 108.5 27t78.5 80.5t29 127.5q0 75 -29 128
t-78.5 80.5t-108.5 27.5q-64 0 -115.5 -30.5t-80.5 -84.5t-29 -121t29 -120.5z" />
    <glyph glyph-name="r" unicode="r" horiz-adv-x="277" 
d="M107.5 491.5q33.5 35.5 108.5 35.5h52v-37h-49q-58 0 -82.5 -24.5t-24.5 -85.5v-380h-38v382q0 74 33.5 109.5z" />
    <glyph glyph-name="s" unicode="s" horiz-adv-x="346" 
d="M44 0v37q65 -5 99 -5q135 0 135 97q0 34 -20 60t-67 54l-38 23q-58 35 -84.5 69.5t-26.5 75.5q0 55 42 88t113 33q31 0 78 -5v-35q-41 4 -70 4q-60 0 -92.5 -22t-32.5 -63q0 -31 21.5 -56.5t69.5 -55.5l41 -25q55 -34 79.5 -67t24.5 -77q0 -63 -45.5 -99t-127.5 -36
q-34 0 -99 5z" />
    <glyph glyph-name="t" unicode="t" horiz-adv-x="231" 
d="M95 490h-66v37h66v153l38 20v-173h70v-37h-70v-490h-38v490z" />
    <glyph glyph-name="u" unicode="u" horiz-adv-x="524" 
d="M402.5 46.5q-49.5 -56.5 -140.5 -56.5q-90 0 -140 56.5t-50 159.5v321h38v-320q0 -88 39 -134t113 -46t113 46t39 134v320h38v-321q0 -103 -49.5 -159.5z" />
    <glyph glyph-name="v" unicode="v" horiz-adv-x="477" 
d="M13 527h43l183 -468l183 468h42l-209 -527h-32z" />
    <glyph glyph-name="w" unicode="w" horiz-adv-x="774" 
d="M19 527h41l150 -469l162 469h35l160 -469l149 469h40l-172 -527h-35l-160 467l-163 -467h-36z" />
    <glyph glyph-name="x" unicode="x" horiz-adv-x="460" 
d="M205 268l-190 259h46l169 -230l164 230h45l-185 -260l197 -267h-46l-175 238l-169 -238h-45z" />
    <glyph glyph-name="y" unicode="y" horiz-adv-x="486" 
d="M233 38l-223 489h43l199 -445l181 445h42l-299 -723h-42z" />
    <glyph glyph-name="z" unicode="z" horiz-adv-x="429" 
d="M20 10l321 480h-303l12 37h354v-10l-322 -480h320l-12 -37h-370v10z" />
    <glyph glyph-name="braceleft" unicode="{" horiz-adv-x="326" 
d="M132 -26v237q0 47 -21 68.5t-63 21.5h-46v37h46q42 0 63 21.5t21 68.5v216q0 125 130 125h48v-37h-46q-49 0 -71.5 -21t-22.5 -69v-216q0 -82 -59 -107q59 -24 59 -106v-237q0 -48 22.5 -69t71.5 -21h46v-37h-48q-130 0 -130 125z" />
    <glyph glyph-name="bar" unicode="|" horiz-adv-x="228" 
d="M95 769h38v-920h-38v920z" />
    <glyph glyph-name="braceright" unicode="}" horiz-adv-x="326" 
d="M16 -151v37h46q49 0 71.5 21t22.5 69v237q0 82 59 107q-59 24 -59 106v216q0 48 -22.5 69t-71.5 21h-46v37h48q130 0 130 -125v-216q0 -47 21 -68.5t63 -21.5h46v-37h-46q-42 0 -63 -21.5t-21 -68.5v-237q0 -125 -130 -125h-48z" />
    <glyph glyph-name="asciitilde" unicode="~" horiz-adv-x="517" 
d="M303 296.5q-23 10.5 -53 30.5q-25 18 -44.5 27t-41.5 9q-59 0 -60 -73h-35v7q0 53 28.5 78t69.5 25q29 0 52 -10.5t53 -30.5q25 -18 44.5 -27t41.5 -9q59 0 60 73h35v-7q0 -48 -26.5 -75.5t-71.5 -27.5q-29 0 -52 10.5z" />
    <glyph glyph-name="uni00A0" unicode="&#xa0;" horiz-adv-x="264" 
 />
    <glyph glyph-name="exclamdown" unicode="&#xa1;" horiz-adv-x="208" 
d="M85 317h38v-513h-38v513zM80 527h48v-94h-48v94z" />
    <glyph glyph-name="cent" unicode="&#xa2;" horiz-adv-x="546" 
d="M287 107q-66 7 -116.5 41.5t-78.5 91t-28 128.5t28 129t78.5 92t116.5 42v99h38v-98q96 -3 166 -62l-22 -30q-61 51 -144 54v-451q85 1 150 55l22 -30q-75 -62 -172 -63v-105h-38v107zM153 216q50 -60 134 -71v447q-84 -10 -134 -70.5t-50 -153.5q0 -92 50 -152z" />
    <glyph glyph-name="sterling" unicode="&#xa3;" horiz-adv-x="531" 
d="M65 32l55 60q56 60 56 132q0 48 -24 113h-111v38h98q-18 50 -28 89t-10 80q0 87 49 139.5t135 52.5q77 0 129 -44t70 -131l-38 -10q-30 146 -161 146q-69 0 -106 -41.5t-37 -112.5q0 -39 10 -77t30 -91h219v-38h-206q22 -68 22 -112q0 -83 -67 -154l-30 -32h362v-39h-417
v32z" />
    <glyph glyph-name="currency" unicode="&#xa4;" horiz-adv-x="590" 
d="M164 185l-79 -79l-26 26l79 79q-45 53 -45 132q0 76 43 132l-78 78l27 27l78 -78q55 44 133 44q79 0 132 -45l78 78l26 -26l-78 -78q43 -54 43 -132q0 -76 -43 -132l78 -78l-27 -27l-78 78q-53 -44 -131 -44q-79 0 -132 45zM178.5 224q45.5 -46 117.5 -46q71 0 116 46
t45 119q0 74 -44.5 119.5t-116.5 45.5q-73 0 -118 -45.5t-45 -119.5q0 -73 45.5 -119z" />
    <glyph glyph-name="yen" unicode="&#xa5;" horiz-adv-x="543" 
d="M252 206h-146v36h146v66h-146v36h129l-203 386h46l194 -378l195 378h44l-204 -386h129v-36h-146v-66h146v-36h-146v-206h-38v206z" />
    <glyph glyph-name="brokenbar" unicode="&#xa6;" horiz-adv-x="232" 
d="M97 264h38v-415h-38v415zM97 769h38v-388h-38v388z" />
    <glyph glyph-name="section" unicode="&#xa7;" horiz-adv-x="482" 
d="M74 -151v38q82 -7 117 -7q84 0 130 35.5t46 99.5q0 46 -24.5 76t-77.5 51l-81 32q-128 50 -128 161q0 86 75 137q-55 42 -55 115q0 72 51.5 111t146.5 39q40 0 89 -7v-37q-46 7 -85 7q-162 0 -162 -113q0 -40 21.5 -67t68.5 -45l80 -31q77 -30 109 -74t32 -105
q0 -87 -60 -141q40 -43 40 -108q0 -81 -58.5 -127.5t-164.5 -46.5q-40 0 -110 7zM120 262.5q24 -32.5 86 -56.5l80 -31q33 -13 54 -28q47 44 47 115q0 52 -27 87t-95 62l-81 32l-20 9q-68 -39 -68 -115q0 -42 24 -74.5z" />
    <glyph glyph-name="dieresis" unicode="&#xa8;" horiz-adv-x="554" 
d="M366 749h38v-116h-38v116zM150 749h38v-116h-38v116z" />
    <glyph glyph-name="copyright" unicode="&#xa9;" horiz-adv-x="878" 
d="M253 37.5q-86 47.5 -136.5 133t-50.5 194.5q0 108 50.5 193.5t136.5 133.5t186 48t186 -48t136.5 -133.5t50.5 -193.5q0 -109 -50.5 -194.5t-136.5 -133t-186 -47.5t-186 47.5zM151.5 192.5q44.5 -76.5 120.5 -120t167 -43.5t167 43.5t120.5 120t44.5 172.5
q0 95 -44.5 172t-120.5 120.5t-167 43.5t-167 -43.5t-120.5 -120.5t-44.5 -172q0 -96 44.5 -172.5zM273.5 470q25.5 47 70.5 74t101 27q71 0 125 -44l-22 -31q-41 37 -103 37q-45 0 -81 -21t-56.5 -59t-20.5 -88q0 -75 44.5 -121t113.5 -46q31 0 60.5 10.5t50.5 32.5l24 -29
q-26 -26 -61.5 -39t-73.5 -13q-56 0 -101 26.5t-70.5 73.5t-25.5 105t25.5 105z" />
    <glyph glyph-name="ordfeminine" unicode="&#xaa;" horiz-adv-x="486" 
d="M137.5 378.5q-41.5 24.5 -66 68.5t-24.5 98q0 55 24.5 99t66 68.5t92.5 24.5q47 0 87 -21.5t59 -58.5v73h34v-369h-34v73q-19 -35 -58 -57.5t-88 -22.5q-51 0 -92.5 24.5zM126.5 433q42.5 -44 106.5 -44q61 0 103 41.5t42 114.5q0 74 -41.5 115.5t-103.5 41.5
q-65 0 -107 -44.5t-42 -112.5t42.5 -112z" />
    <glyph glyph-name="guillemotleft" unicode="&#xab;" horiz-adv-x="464" 
d="M200 273l151 184h41l-146 -183l148 -186h-43zM209 457h41l-146 -183l148 -186h-43l-151 185z" />
    <glyph glyph-name="logicalnot" unicode="&#xac;" horiz-adv-x="541" 
d="M420 374h-344v37h382v-224h-38v187z" />
    <glyph glyph-name="uni00AD" unicode="&#xad;" horiz-adv-x="358" 
 />
    <glyph glyph-name="registered" unicode="&#xae;" horiz-adv-x="663" 
d="M196 281.5q-60 33.5 -93.5 93.5t-33.5 135q0 76 33.5 135.5t93.5 93.5t135 34t135 -34t94 -94t34 -135t-34 -134.5t-94 -93.5t-135 -34t-135 33.5zM133.5 391.5q29.5 -52.5 81 -82.5t116.5 -30t117 30t81.5 82.5t29.5 118.5t-29.5 118.5t-81.5 82.5t-117 30t-117 -29.5
t-81 -82.5t-29 -119t29.5 -118.5zM246 675h84q48 0 75 -22t27 -62q0 -39 -27 -62.5t-75 -23.5h-12l126 -139h-41l-125 140v-140h-32v309zM328 533q71 0 71 57q0 55 -71 55h-50v-112h50z" />
    <glyph glyph-name="macron" unicode="&#xaf;" horiz-adv-x="592" 
d="M150 699h292v-37h-292v37z" />
    <glyph glyph-name="degree" unicode="&#xb0;" horiz-adv-x="364" 
d="M85 511.5q-38 37.5 -38 95.5t38 95.5t97 37.5t97 -37.5t38 -95.5t-38 -95.5t-97 -37.5t-97 37.5zM113.5 538.5q26.5 -26.5 68.5 -26.5t68.5 26.5t26.5 68.5t-26.5 68.5t-68.5 26.5t-68.5 -26.5t-26.5 -68.5t26.5 -68.5z" />
    <glyph glyph-name="plusminus" unicode="&#xb1;" horiz-adv-x="540" 
d="M74 421h177v148h38v-148h177v-37h-177v-147h-38v147h-177v37zM74 174h392v-37h-392v37z" />
    <glyph glyph-name="uni00B2" unicode="&#xb2;" horiz-adv-x="341" 
d="M35 358l142 152q42 45 61.5 75t19.5 68q0 40 -23.5 63.5t-63.5 23.5q-38 0 -65 -22t-37 -65l-34 10q13 54 49.5 82t86.5 28q56 0 90 -33t34 -86q0 -45 -22.5 -80.5t-70.5 -86.5l-113 -121h216v-35h-270v27z" />
    <glyph glyph-name="uni00B3" unicode="&#xb3;" horiz-adv-x="357" 
d="M81.5 359.5q-39.5 31.5 -48.5 89.5l36 10q6 -45 36 -71t73 -26q45 0 73.5 26t28.5 68q0 41 -28 66t-75 25h-35v33h36q36 0 60.5 23t24.5 58t-24.5 57t-62.5 22q-37 0 -64 -22t-37 -63l-34 9q13 52 48.5 81t86.5 29q55 0 89 -31t34 -78q0 -34 -18.5 -60t-51.5 -39
q41 -11 64.5 -40t23.5 -71q0 -55 -39 -91t-101 -36q-56 0 -95.5 31.5z" />
    <glyph glyph-name="acute" unicode="&#xb4;" horiz-adv-x="486" 
d="M284 769h52l-140 -151h-46z" />
    <glyph glyph-name="uni00B5" unicode="&#xb5;" horiz-adv-x="596" 
d="M96 527h38v-320q0 -88 39 -134t114 -46q73 0 112 44.5t39 131.5v324h38v-404q0 -48 16.5 -67t56.5 -19h10v-37h-13q-45 0 -70 19t-33 57q-46 -86 -157 -86q-107 0 -153 80l1 -70v-196h-38v723z" />
    <glyph glyph-name="paragraph" unicode="&#xb6;" horiz-adv-x="495" 
d="M93 405.5q-55 51.5 -55 136.5t55 136.5t149 51.5h143v-730h-40v692h-48v-692h-40v354h-15q-94 0 -149 51.5z" />
    <glyph glyph-name="periodcentered" unicode="&#xb7;" horiz-adv-x="192" 
d="M70 372h52v-74h-52v74z" />
    <glyph glyph-name="cedilla" unicode="&#xb8;" horiz-adv-x="415" 
d="M150 -196l70 147h45l-78 -147h-37z" />
    <glyph glyph-name="uni00B9" unicode="&#xb9;" horiz-adv-x="190" 
d="M83 735h-52v35h89v-439h-37v404z" />
    <glyph glyph-name="ordmasculine" unicode="&#xba;" horiz-adv-x="463" 
d="M137.5 379q-42.5 25 -67 68.5t-24.5 97.5q0 55 24.5 98.5t67 68.5t94.5 25t94 -25t66.5 -69t24.5 -98t-24.5 -97.5t-66.5 -68.5t-94 -25t-94.5 25zM125.5 433q42.5 -44 106.5 -44q42 0 75.5 20t53 56t19.5 80q0 45 -19.5 80.5t-53 56t-75.5 20.5q-65 0 -107 -44.5
t-42 -112.5t42.5 -112z" />
    <glyph glyph-name="guillemotright" unicode="&#xbb;" horiz-adv-x="465" 
d="M218 271l-148 186h43l151 -185l-151 -184h-41zM255 457l151 -185l-151 -184h-41l146 183l-148 186h43z" />
    <glyph glyph-name="onequarter" unicode="&#xbc;" horiz-adv-x="678" 
d="M83 695h-52v35h89v-439h-37v404zM548 730h47l-563 -730h-47zM559 75h-219v27l220 337h33v-331h53v-33h-53v-75h-34v75zM559 108v270l-178 -270h178z" />
    <glyph glyph-name="onehalf" unicode="&#xbd;" horiz-adv-x="712" 
d="M83 695h-52v35h89v-439h-37v404zM548 730h47l-563 -730h-47zM406 27l142 152q42 45 61.5 75t19.5 68q0 40 -23.5 63.5t-63.5 23.5q-38 0 -65 -22t-37 -65l-34 10q13 54 49.5 82t86.5 28q56 0 90 -33t34 -86q0 -45 -22.5 -80.5t-70.5 -86.5l-113 -121h216v-35h-270v27z
" />
    <glyph glyph-name="threequarters" unicode="&#xbe;" horiz-adv-x="845" 
d="M81.5 319.5q-39.5 31.5 -48.5 89.5l36 10q6 -45 36 -71t73 -26q45 0 73.5 26t28.5 68q0 41 -28 66t-75 25h-35v33h36q36 0 60.5 23t24.5 58t-24.5 57t-62.5 22q-37 0 -64 -22t-37 -63l-34 9q13 52 48.5 81t86.5 29q55 0 89 -31t34 -78q0 -34 -18.5 -60t-51.5 -39
q41 -11 64.5 -40t23.5 -71q0 -55 -39 -91t-101 -36q-56 0 -95.5 31.5zM715 730h47l-563 -730h-47zM726 75h-219v27l220 337h33v-331h53v-33h-53v-75h-34v75zM726 108v270l-178 -270h178z" />
    <glyph glyph-name="questiondown" unicode="&#xbf;" horiz-adv-x="471" 
d="M134.5 -173q-42.5 23 -65.5 63.5t-23 91.5q0 48 18.5 84t51.5 72l53 56q24 26 34.5 49t10.5 51v23h38v-21q0 -37 -13 -66t-45 -64l-52 -56q-27 -29 -41 -58.5t-14 -68.5q0 -62 39.5 -101t106.5 -39q64 0 109 38.5t62 113.5l37 -11q-20 -87 -75.5 -133.5t-132.5 -46.5
q-56 0 -98.5 23zM209 527h48v-94h-48v94z" />
    <glyph glyph-name="Agrave" unicode="&#xc0;" horiz-adv-x="595" 
d="M279 730h36l256 -730h-43l-66 190h-329l-66 -190h-42zM449 228l-152 437l-151 -437h303zM146 972h53l134 -151h-47z" />
    <glyph glyph-name="Aacute" unicode="&#xc1;" horiz-adv-x="595" 
d="M279 730h36l256 -730h-43l-66 190h-329l-66 -190h-42zM449 228l-152 437l-151 -437h303zM397 972h52l-140 -151h-46z" />
    <glyph glyph-name="Acircumflex" unicode="&#xc2;" horiz-adv-x="595" 
d="M279 730h36l256 -730h-43l-66 190h-329l-66 -190h-42zM449 228l-152 437l-151 -437h303zM274 972h48l123 -151h-43l-104 120l-105 -120h-42z" />
    <glyph glyph-name="Atilde" unicode="&#xc3;" horiz-adv-x="595" 
d="M279 730h36l256 -730h-43l-66 190h-329l-66 -190h-42zM449 228l-152 437l-151 -437h303zM325.5 837q-16.5 9 -41.5 27q-20 16 -33 23.5t-29 7.5q-42 0 -45 -62h-35q0 50 24 74.5t58 24.5q22 0 38.5 -9t41.5 -27q20 -16 33 -23.5t29 -7.5q42 0 45 62h35q0 -50 -24 -74.5
t-58 -24.5q-22 0 -38.5 9z" />
    <glyph glyph-name="Adieresis" unicode="&#xc4;" horiz-adv-x="595" 
d="M279 730h36l256 -730h-43l-66 190h-329l-66 -190h-42zM449 228l-152 437l-151 -437h303zM387 952h38v-116h-38v116zM171 952h38v-116h-38v116z" />
    <glyph glyph-name="Aring" unicode="&#xc5;" horiz-adv-x="595" 
d="M279 730h36l256 -730h-43l-66 190h-329l-66 -190h-42zM449 228l-152 437l-151 -437h303zM234.5 830q-24.5 23 -24.5 60t24 59.5t63 22.5t63 -22.5t24 -59.5t-24.5 -60t-62.5 -23t-62.5 23zM260 853q14 -14 37 -14t37 14t14 37t-14 36.5t-37 13.5t-37 -13.5t-14 -36.5
t14 -37z" />
    <glyph glyph-name="AE" unicode="&#xc6;" horiz-adv-x="808" 
d="M298 730h440v-38h-301v-290h297v-38h-297v-326h306v-38h-346v190h-267l-73 -190h-43zM397 228v464h-73l-179 -464h252z" />
    <glyph glyph-name="Ccedilla" unicode="&#xc7;" horiz-adv-x="563" 
d="M237.5 40q-85.5 47 -135.5 132t-50 193t50 193t135.5 132t189.5 47q44 0 98 -9v-37q-54 9 -95 9q-96 0 -173 -43t-120.5 -119.5t-43.5 -172.5t43.5 -172.5t120.5 -119.5t173 -43q41 0 95 9v-37q-54 -9 -98 -9q-104 0 -189.5 47zM311 -196l70 147h45l-78 -147h-37z" />
    <glyph glyph-name="Egrave" unicode="&#xc8;" horiz-adv-x="521" 
d="M104 730h347v-38h-307v-290h303v-38h-303v-326h312v-38h-352v730zM130 972h53l134 -151h-47z" />
    <glyph glyph-name="Eacute" unicode="&#xc9;" horiz-adv-x="521" 
d="M104 730h347v-38h-307v-290h303v-38h-303v-326h312v-38h-352v730zM381 972h52l-140 -151h-46z" />
    <glyph glyph-name="Ecircumflex" unicode="&#xca;" horiz-adv-x="521" 
d="M104 730h347v-38h-307v-290h303v-38h-303v-326h312v-38h-352v730zM258 972h48l123 -151h-43l-104 120l-105 -120h-42z" />
    <glyph glyph-name="Edieresis" unicode="&#xcb;" horiz-adv-x="521" 
d="M104 730h347v-38h-307v-290h303v-38h-303v-326h312v-38h-352v730zM371 952h38v-116h-38v116zM155 952h38v-116h-38v116z" />
    <glyph glyph-name="Igrave" unicode="&#xcc;" horiz-adv-x="248" 
d="M104 730h40v-730h-40v730zM-28 972h53l134 -151h-47z" />
    <glyph glyph-name="Iacute" unicode="&#xcd;" horiz-adv-x="248" 
d="M104 730h40v-730h-40v730zM223 972h52l-140 -151h-46z" />
    <glyph glyph-name="Icircumflex" unicode="&#xce;" horiz-adv-x="248" 
d="M104 730h40v-730h-40v730zM100 972h48l123 -151h-43l-104 120l-105 -120h-42z" />
    <glyph glyph-name="Idieresis" unicode="&#xcf;" horiz-adv-x="248" 
d="M104 730h40v-730h-40v730zM213 952h38v-116h-38v116zM-3 952h38v-116h-38v116z" />
    <glyph glyph-name="Eth" unicode="&#xd0;" horiz-adv-x="697" 
d="M120 364h-111v38h111v328h156q103 0 187 -45.5t132.5 -128.5t48.5 -191q0 -109 -48.5 -192t-132.5 -128t-187 -45h-156v364zM276 38q94 0 168.5 41t116.5 115.5t42 170.5q0 95 -42 169.5t-116.5 116t-168.5 41.5h-116v-290h189v-38h-189v-326h116z" />
    <glyph glyph-name="Ntilde" unicode="&#xd1;" horiz-adv-x="686" 
d="M104 730h47l391 -665v665h40v-730h-47l-391 665v-665h-40v730zM371.5 837q-16.5 9 -41.5 27q-20 16 -33 23.5t-29 7.5q-42 0 -45 -62h-35q0 50 24 74.5t58 24.5q22 0 38.5 -9t41.5 -27q20 -16 33 -23.5t29 -7.5q42 0 45 62h35q0 -50 -24 -74.5t-58 -24.5q-22 0 -38.5 9z
" />
    <glyph glyph-name="Ograve" unicode="&#xd2;" horiz-adv-x="840" 
d="M237.5 37.5q-84.5 47.5 -135 133.5t-50.5 194t50.5 193.5t135 133.5t182.5 48t182.5 -48t135 -133.5t50.5 -193.5t-50.5 -194t-135 -133.5t-182.5 -47.5t-182.5 47.5zM137 193q44 -77 119 -120.5t164 -43.5t164 43.5t119 120.5t44 172t-44 172t-119 120.5t-164 43.5
t-164 -43.5t-119 -120.5t-44 -172t44 -172zM268 972h53l134 -151h-47z" />
    <glyph glyph-name="Oacute" unicode="&#xd3;" horiz-adv-x="840" 
d="M237.5 37.5q-84.5 47.5 -135 133.5t-50.5 194t50.5 193.5t135 133.5t182.5 48t182.5 -48t135 -133.5t50.5 -193.5t-50.5 -194t-135 -133.5t-182.5 -47.5t-182.5 47.5zM137 193q44 -77 119 -120.5t164 -43.5t164 43.5t119 120.5t44 172t-44 172t-119 120.5t-164 43.5
t-164 -43.5t-119 -120.5t-44 -172t44 -172zM519 972h52l-140 -151h-46z" />
    <glyph glyph-name="Ocircumflex" unicode="&#xd4;" horiz-adv-x="840" 
d="M237.5 37.5q-84.5 47.5 -135 133.5t-50.5 194t50.5 193.5t135 133.5t182.5 48t182.5 -48t135 -133.5t50.5 -193.5t-50.5 -194t-135 -133.5t-182.5 -47.5t-182.5 47.5zM137 193q44 -77 119 -120.5t164 -43.5t164 43.5t119 120.5t44 172t-44 172t-119 120.5t-164 43.5
t-164 -43.5t-119 -120.5t-44 -172t44 -172zM396 972h48l123 -151h-43l-104 120l-105 -120h-42z" />
    <glyph glyph-name="Otilde" unicode="&#xd5;" horiz-adv-x="840" 
d="M237.5 37.5q-84.5 47.5 -135 133.5t-50.5 194t50.5 193.5t135 133.5t182.5 48t182.5 -48t135 -133.5t50.5 -193.5t-50.5 -194t-135 -133.5t-182.5 -47.5t-182.5 47.5zM137 193q44 -77 119 -120.5t164 -43.5t164 43.5t119 120.5t44 172t-44 172t-119 120.5t-164 43.5
t-164 -43.5t-119 -120.5t-44 -172t44 -172zM447.5 837q-16.5 9 -41.5 27q-20 16 -33 23.5t-29 7.5q-42 0 -45 -62h-35q0 50 24 74.5t58 24.5q22 0 38.5 -9t41.5 -27q20 -16 33 -23.5t29 -7.5q42 0 45 62h35q0 -50 -24 -74.5t-58 -24.5q-22 0 -38.5 9z" />
    <glyph glyph-name="Odieresis" unicode="&#xd6;" horiz-adv-x="840" 
d="M237.5 37.5q-84.5 47.5 -135 133.5t-50.5 194t50.5 193.5t135 133.5t182.5 48t182.5 -48t135 -133.5t50.5 -193.5t-50.5 -194t-135 -133.5t-182.5 -47.5t-182.5 47.5zM137 193q44 -77 119 -120.5t164 -43.5t164 43.5t119 120.5t44 172t-44 172t-119 120.5t-164 43.5
t-164 -43.5t-119 -120.5t-44 -172t44 -172zM509 952h38v-116h-38v116zM293 952h38v-116h-38v116z" />
    <glyph glyph-name="multiply" unicode="&#xd7;" horiz-adv-x="540" 
d="M270 316l-139 -139l-26 26l139 139l-140 140l27 27l140 -140l139 139l26 -26l-139 -139l139 -139l-27 -27z" />
    <glyph glyph-name="Oslash" unicode="&#xd8;" horiz-adv-x="844" 
d="M298 11.5q-60 21.5 -109 60.5l-62 -72h-50l84 97q-50 51 -78.5 119.5t-28.5 148.5q0 108 50.5 193.5t135 133.5t182.5 48q63 0 121.5 -20.5t107.5 -58.5l66 75h50l-87 -100q52 -51 81 -120.5t29 -150.5q0 -108 -50.5 -194t-135 -133.5t-182.5 -47.5q-64 0 -124 21.5z
M119.5 234q24.5 -61 68.5 -107l437 503q-42 34 -94.5 52.5t-108.5 18.5q-89 0 -164 -43.5t-119 -120.5t-44 -172q0 -70 24.5 -131zM311.5 48q52.5 -19 110.5 -19q89 0 164 43.5t119 120.5t44 172q0 71 -25.5 132.5t-70.5 107.5l-437 -503q43 -35 95.5 -54z" />
    <glyph glyph-name="Ugrave" unicode="&#xd9;" horiz-adv-x="660" 
d="M157.5 57q-61.5 67 -61.5 188v485h40v-481q0 -107 50.5 -164t143.5 -57t143.5 57t50.5 164v481h40v-485q0 -121 -61.5 -188t-172.5 -67t-172.5 67zM178 972h53l134 -151h-47z" />
    <glyph glyph-name="Uacute" unicode="&#xda;" horiz-adv-x="660" 
d="M157.5 57q-61.5 67 -61.5 188v485h40v-481q0 -107 50.5 -164t143.5 -57t143.5 57t50.5 164v481h40v-485q0 -121 -61.5 -188t-172.5 -67t-172.5 67zM429 972h52l-140 -151h-46z" />
    <glyph glyph-name="Ucircumflex" unicode="&#xdb;" horiz-adv-x="660" 
d="M157.5 57q-61.5 67 -61.5 188v485h40v-481q0 -107 50.5 -164t143.5 -57t143.5 57t50.5 164v481h40v-485q0 -121 -61.5 -188t-172.5 -67t-172.5 67zM306 972h48l123 -151h-43l-104 120l-105 -120h-42z" />
    <glyph glyph-name="Udieresis" unicode="&#xdc;" horiz-adv-x="660" 
d="M157.5 57q-61.5 67 -61.5 188v485h40v-481q0 -107 50.5 -164t143.5 -57t143.5 57t50.5 164v481h40v-485q0 -121 -61.5 -188t-172.5 -67t-172.5 67zM419 952h38v-116h-38v116zM203 952h38v-116h-38v116z" />
    <glyph glyph-name="Yacute" unicode="&#xdd;" horiz-adv-x="540" 
d="M250 290l-219 440h46l194 -396l195 396h44l-220 -440v-290h-40v290zM371 972h52l-140 -151h-46z" />
    <glyph glyph-name="Thorn" unicode="&#xde;" horiz-adv-x="535" 
d="M104 730h40v-156h125q103 0 162.5 -53t59.5 -145t-59.5 -145t-162.5 -53h-125v-178h-40v730zM265 216q89 0 137 41.5t48 118.5t-48 118.5t-137 41.5h-121v-320h121z" />
    <glyph glyph-name="germandbls" unicode="&#xdf;" horiz-adv-x="593" 
d="M214 3v37q51 -8 87 -8q102 0 157 50t55 142q0 89 -56.5 137t-161.5 48h-50v37h37q71 0 114 41.5t43 110.5q0 67 -42 103.5t-119 36.5q-162 0 -162 -177v-561h-38v563q0 103 51 157.5t148 54.5q94 0 147 -46.5t53 -129.5q0 -57 -26 -99.5t-75 -64.5q85 -17 130.5 -71.5
t45.5 -139.5q0 -108 -65.5 -169t-182.5 -61q-43 0 -90 9z" />
    <glyph glyph-name="agrave" unicode="&#xe0;" 
d="M171 25q-60 35 -94.5 97.5t-34.5 140.5t34.5 141t94.5 98t132 35t130.5 -34.5t85.5 -90.5v115h36v-527h-36v115q-27 -56 -85.5 -90.5t-130.5 -34.5t-132 35zM110 142.5q29 -53.5 80 -84t115 -30.5q60 0 109.5 27t78.5 80.5t29 127.5q0 75 -29 128t-78.5 80.5t-109.5 27.5
q-64 0 -115 -30.5t-80 -84.5t-29 -121t29 -120.5zM172 769h53l134 -151h-47z" />
    <glyph glyph-name="aacute" unicode="&#xe1;" 
d="M171 25q-60 35 -94.5 97.5t-34.5 140.5t34.5 141t94.5 98t132 35t130.5 -34.5t85.5 -90.5v115h36v-527h-36v115q-27 -56 -85.5 -90.5t-130.5 -34.5t-132 35zM110 142.5q29 -53.5 80 -84t115 -30.5q60 0 109.5 27t78.5 80.5t29 127.5q0 75 -29 128t-78.5 80.5t-109.5 27.5
q-64 0 -115 -30.5t-80 -84.5t-29 -121t29 -120.5zM423 769h52l-140 -151h-46z" />
    <glyph glyph-name="acircumflex" unicode="&#xe2;" 
d="M171 25q-60 35 -94.5 97.5t-34.5 140.5t34.5 141t94.5 98t132 35t130.5 -34.5t85.5 -90.5v115h36v-527h-36v115q-27 -56 -85.5 -90.5t-130.5 -34.5t-132 35zM110 142.5q29 -53.5 80 -84t115 -30.5q60 0 109.5 27t78.5 80.5t29 127.5q0 75 -29 128t-78.5 80.5t-109.5 27.5
q-64 0 -115 -30.5t-80 -84.5t-29 -121t29 -120.5zM300 769h48l123 -151h-43l-104 120l-105 -120h-42z" />
    <glyph glyph-name="atilde" unicode="&#xe3;" 
d="M171 25q-60 35 -94.5 97.5t-34.5 140.5t34.5 141t94.5 98t132 35t130.5 -34.5t85.5 -90.5v115h36v-527h-36v115q-27 -56 -85.5 -90.5t-130.5 -34.5t-132 35zM110 142.5q29 -53.5 80 -84t115 -30.5q60 0 109.5 27t78.5 80.5t29 127.5q0 75 -29 128t-78.5 80.5t-109.5 27.5
q-64 0 -115 -30.5t-80 -84.5t-29 -121t29 -120.5zM351.5 634q-16.5 9 -41.5 27q-20 16 -33 23.5t-29 7.5q-42 0 -45 -62h-35q0 50 24 74.5t58 24.5q22 0 38.5 -9t41.5 -27q20 -16 33 -23.5t29 -7.5q42 0 45 62h35q0 -50 -24 -74.5t-58 -24.5q-22 0 -38.5 9z" />
    <glyph glyph-name="adieresis" unicode="&#xe4;" 
d="M171 25q-60 35 -94.5 97.5t-34.5 140.5t34.5 141t94.5 98t132 35t130.5 -34.5t85.5 -90.5v115h36v-527h-36v115q-27 -56 -85.5 -90.5t-130.5 -34.5t-132 35zM110 142.5q29 -53.5 80 -84t115 -30.5q60 0 109.5 27t78.5 80.5t29 127.5q0 75 -29 128t-78.5 80.5t-109.5 27.5
q-64 0 -115 -30.5t-80 -84.5t-29 -121t29 -120.5zM413 749h38v-116h-38v116zM197 749h38v-116h-38v116z" />
    <glyph glyph-name="aring" unicode="&#xe5;" 
d="M171 25q-60 35 -94.5 97.5t-34.5 140.5t34.5 141t94.5 98t132 35t130.5 -34.5t85.5 -90.5v115h36v-527h-36v115q-27 -56 -85.5 -90.5t-130.5 -34.5t-132 35zM110 142.5q29 -53.5 80 -84t115 -30.5q60 0 109.5 27t78.5 80.5t29 127.5q0 75 -29 128t-78.5 80.5t-109.5 27.5
q-64 0 -115 -30.5t-80 -84.5t-29 -121t29 -120.5zM260.5 627q-24.5 23 -24.5 60t24 59.5t63 22.5t63 -22.5t24 -59.5t-24.5 -60t-62.5 -23t-62.5 23zM286 650q14 -14 37 -14t37 14t14 37t-14 36.5t-37 13.5t-37 -13.5t-14 -36.5t14 -37z" />
    <glyph glyph-name="ae" unicode="&#xe6;" horiz-adv-x="915" 
d="M78.5 36.5q-47.5 44.5 -47.5 113.5q0 71 51.5 116.5t141.5 45.5h147v41q0 76 -37 109t-124 33q-55 0 -125 -13v37q72 13 128 13q91 0 138 -35t53 -107q31 69 91 106.5t134 37.5q65 0 118.5 -29t88 -87t40.5 -142h-466v-2v-24q0 -59 27 -109.5t77.5 -80.5t118.5 -30
q70 0 124 33.5t84 92.5l33 -17q-30 -60 -91.5 -103.5t-148.5 -43.5q-84 0 -146 41t-91 116q-14 -73 -64 -115t-126 -42q-81 0 -128.5 44.5zM107.5 61.5q38.5 -32.5 99.5 -32.5q72 0 118 44.5t46 127.5v75l-139 1q-79 1 -121 -33t-42 -93q0 -57 38.5 -89.5zM833 312
q-16 92 -72.5 138t-133.5 46q-87 0 -144 -52.5t-70 -131.5h420z" />
    <glyph glyph-name="ccedilla" unicode="&#xe7;" horiz-adv-x="426" 
d="M170 28.5q-60 34.5 -94 96t-34 138.5t34 138.5t94 96t136 34.5q40 0 86 -9v-37q-48 8 -83 8q-66 0 -118 -29.5t-81 -82t-29 -119.5t29 -119.5t81 -82t118 -29.5q35 0 83 8v-37q-46 -9 -86 -9q-76 0 -136 34.5zM195 -196l70 147h45l-78 -147h-37z" />
    <glyph glyph-name="egrave" unicode="&#xe8;" horiz-adv-x="586" 
d="M168 28q-60 36 -93 97.5t-33 136.5q0 74 33 136.5t92 99t133 36.5q65 0 118.5 -29t88 -87t40.5 -142h-466v-12v-4q0 -63 28 -116t79 -83.5t117 -30.5q69 0 123 33.5t84 92.5l33 -17q-30 -60 -91.5 -103.5t-148.5 -43.5q-77 0 -137 36zM504 313q-16 92 -73 137.5
t-132 45.5q-83 0 -140.5 -51.5t-72.5 -131.5h418zM148 769h53l134 -151h-47z" />
    <glyph glyph-name="eacute" unicode="&#xe9;" horiz-adv-x="586" 
d="M168 28q-60 36 -93 97.5t-33 136.5q0 74 33 136.5t92 99t133 36.5q65 0 118.5 -29t88 -87t40.5 -142h-466v-12v-4q0 -63 28 -116t79 -83.5t117 -30.5q69 0 123 33.5t84 92.5l33 -17q-30 -60 -91.5 -103.5t-148.5 -43.5q-77 0 -137 36zM504 313q-16 92 -73 137.5
t-132 45.5q-83 0 -140.5 -51.5t-72.5 -131.5h418zM399 769h52l-140 -151h-46z" />
    <glyph glyph-name="ecircumflex" unicode="&#xea;" horiz-adv-x="586" 
d="M168 28q-60 36 -93 97.5t-33 136.5q0 74 33 136.5t92 99t133 36.5q65 0 118.5 -29t88 -87t40.5 -142h-466v-12v-4q0 -63 28 -116t79 -83.5t117 -30.5q69 0 123 33.5t84 92.5l33 -17q-30 -60 -91.5 -103.5t-148.5 -43.5q-77 0 -137 36zM504 313q-16 92 -73 137.5
t-132 45.5q-83 0 -140.5 -51.5t-72.5 -131.5h418zM276 769h48l123 -151h-43l-104 120l-105 -120h-42z" />
    <glyph glyph-name="edieresis" unicode="&#xeb;" horiz-adv-x="586" 
d="M168 28q-60 36 -93 97.5t-33 136.5q0 74 33 136.5t92 99t133 36.5q65 0 118.5 -29t88 -87t40.5 -142h-466v-12v-4q0 -63 28 -116t79 -83.5t117 -30.5q69 0 123 33.5t84 92.5l33 -17q-30 -60 -91.5 -103.5t-148.5 -43.5q-77 0 -137 36zM504 313q-16 92 -73 137.5
t-132 45.5q-83 0 -140.5 -51.5t-72.5 -131.5h418zM389 749h38v-116h-38v116zM173 749h38v-116h-38v116z" />
    <glyph glyph-name="igrave" unicode="&#xec;" horiz-adv-x="194" 
d="M78 527h38v-527h-38v527zM-55 769h53l134 -151h-47z" />
    <glyph glyph-name="iacute" unicode="&#xed;" horiz-adv-x="194" 
d="M78 527h38v-527h-38v527zM196 769h52l-140 -151h-46z" />
    <glyph glyph-name="icircumflex" unicode="&#xee;" horiz-adv-x="194" 
d="M78 527h38v-527h-38v527zM73 769h48l123 -151h-43l-104 120l-105 -120h-42z" />
    <glyph glyph-name="idieresis" unicode="&#xef;" horiz-adv-x="194" 
d="M78 527h38v-527h-38v527zM186 749h38v-116h-38v116zM-30 749h38v-116h-38v116z" />
    <glyph glyph-name="eth" unicode="&#xf0;" horiz-adv-x="610" 
d="M170.5 25.5q-60.5 35.5 -94.5 98t-34 139.5t34 137t94 93.5t134 33.5q77 0 139 -40q-48 67 -118 142l-211 -45l-8 32l191 43q-44 46 -114 110h52l101 -101l162 36l7 -36l-140 -30q99 -106 150.5 -197t51.5 -182q0 -74 -34.5 -135.5t-94 -97.5t-133.5 -36t-134.5 35.5z
M110 142.5q29 -53.5 80 -84t115 -30.5q63 0 114 30.5t80 84t29 120.5t-29 118.5t-79.5 79.5t-114.5 28t-115 -28t-80 -79.5t-29 -118.5t29 -120.5z" />
    <glyph glyph-name="ntilde" unicode="&#xf1;" horiz-adv-x="524" 
d="M121.5 480.5q49.5 56.5 140.5 56.5q90 0 140 -56.5t50 -159.5v-321h-38v320q0 88 -39 134t-113 46t-113 -46t-39 -134v-320h-38v321q0 103 49.5 159.5zM289.5 634q-16.5 9 -41.5 27q-20 16 -33 23.5t-29 7.5q-42 0 -45 -62h-35q0 50 24 74.5t58 24.5q22 0 38.5 -9
t41.5 -27q20 -16 33 -23.5t29 -7.5q42 0 45 62h35q0 -50 -24 -74.5t-58 -24.5q-22 0 -38.5 9z" />
    <glyph glyph-name="ograve" unicode="&#xf2;" horiz-adv-x="609" 
d="M170.5 25.5q-60.5 35.5 -94.5 98t-34 139.5t34 140t94.5 98.5t134.5 35.5t134 -35.5t94 -98.5t34 -140t-34 -139.5t-94 -98t-134 -35.5t-134.5 35.5zM110 142.5q29 -53.5 80 -84t115 -30.5q63 0 114 30.5t80 84t29 120.5t-29 121t-80 84.5t-114 30.5q-64 0 -115 -30.5
t-80 -84.5t-29 -121t29 -120.5zM153 769h53l134 -151h-47z" />
    <glyph glyph-name="oacute" unicode="&#xf3;" horiz-adv-x="609" 
d="M170.5 25.5q-60.5 35.5 -94.5 98t-34 139.5t34 140t94.5 98.5t134.5 35.5t134 -35.5t94 -98.5t34 -140t-34 -139.5t-94 -98t-134 -35.5t-134.5 35.5zM110 142.5q29 -53.5 80 -84t115 -30.5q63 0 114 30.5t80 84t29 120.5t-29 121t-80 84.5t-114 30.5q-64 0 -115 -30.5
t-80 -84.5t-29 -121t29 -120.5zM404 769h52l-140 -151h-46z" />
    <glyph glyph-name="ocircumflex" unicode="&#xf4;" horiz-adv-x="609" 
d="M170.5 25.5q-60.5 35.5 -94.5 98t-34 139.5t34 140t94.5 98.5t134.5 35.5t134 -35.5t94 -98.5t34 -140t-34 -139.5t-94 -98t-134 -35.5t-134.5 35.5zM110 142.5q29 -53.5 80 -84t115 -30.5q63 0 114 30.5t80 84t29 120.5t-29 121t-80 84.5t-114 30.5q-64 0 -115 -30.5
t-80 -84.5t-29 -121t29 -120.5zM281 769h48l123 -151h-43l-104 120l-105 -120h-42z" />
    <glyph glyph-name="otilde" unicode="&#xf5;" horiz-adv-x="609" 
d="M170.5 25.5q-60.5 35.5 -94.5 98t-34 139.5t34 140t94.5 98.5t134.5 35.5t134 -35.5t94 -98.5t34 -140t-34 -139.5t-94 -98t-134 -35.5t-134.5 35.5zM110 142.5q29 -53.5 80 -84t115 -30.5q63 0 114 30.5t80 84t29 120.5t-29 121t-80 84.5t-114 30.5q-64 0 -115 -30.5
t-80 -84.5t-29 -121t29 -120.5zM332.5 634q-16.5 9 -41.5 27q-20 16 -33 23.5t-29 7.5q-42 0 -45 -62h-35q0 50 24 74.5t58 24.5q22 0 38.5 -9t41.5 -27q20 -16 33 -23.5t29 -7.5q42 0 45 62h35q0 -50 -24 -74.5t-58 -24.5q-22 0 -38.5 9z" />
    <glyph glyph-name="odieresis" unicode="&#xf6;" horiz-adv-x="609" 
d="M170.5 25.5q-60.5 35.5 -94.5 98t-34 139.5t34 140t94.5 98.5t134.5 35.5t134 -35.5t94 -98.5t34 -140t-34 -139.5t-94 -98t-134 -35.5t-134.5 35.5zM110 142.5q29 -53.5 80 -84t115 -30.5q63 0 114 30.5t80 84t29 120.5t-29 121t-80 84.5t-114 30.5q-64 0 -115 -30.5
t-80 -84.5t-29 -121t29 -120.5zM394 749h38v-116h-38v116zM178 749h38v-116h-38v116z" />
    <glyph glyph-name="divide" unicode="&#xf7;" horiz-adv-x="540" 
d="M74 361h392v-37h-392v37zM246 234h48v-74h-48v74zM246 525h48v-74h-48v74z" />
    <glyph glyph-name="oslash" unicode="&#xf8;" horiz-adv-x="613" 
d="M142 47l-41 -47h-49l63 72q-34 37 -52.5 86t-18.5 105q0 77 34 140t94.5 98.5t134.5 35.5q47 0 89 -15t75 -42l41 47h49l-63 -72q34 -37 52.5 -86.5t18.5 -105.5q0 -77 -34 -139.5t-94 -98t-134 -35.5q-95 0 -165 57zM141 101l305 350q-61 48 -139 48q-64 0 -115 -30.5
t-80 -84.5t-29 -121q0 -96 58 -162zM307 28q63 0 114 30.5t80 84t29 120.5q0 97 -58 163l-305 -350q61 -48 140 -48z" />
    <glyph glyph-name="ugrave" unicode="&#xf9;" horiz-adv-x="524" 
d="M402.5 46.5q-49.5 -56.5 -140.5 -56.5q-90 0 -140 56.5t-50 159.5v321h38v-320q0 -88 39 -134t113 -46t113 46t39 134v320h38v-321q0 -103 -49.5 -159.5zM105 769h53l134 -151h-47z" />
    <glyph glyph-name="uacute" unicode="&#xfa;" horiz-adv-x="524" 
d="M402.5 46.5q-49.5 -56.5 -140.5 -56.5q-90 0 -140 56.5t-50 159.5v321h38v-320q0 -88 39 -134t113 -46t113 46t39 134v320h38v-321q0 -103 -49.5 -159.5zM356 769h52l-140 -151h-46z" />
    <glyph glyph-name="ucircumflex" unicode="&#xfb;" horiz-adv-x="524" 
d="M402.5 46.5q-49.5 -56.5 -140.5 -56.5q-90 0 -140 56.5t-50 159.5v321h38v-320q0 -88 39 -134t113 -46t113 46t39 134v320h38v-321q0 -103 -49.5 -159.5zM233 769h48l123 -151h-43l-104 120l-105 -120h-42z" />
    <glyph glyph-name="udieresis" unicode="&#xfc;" horiz-adv-x="524" 
d="M402.5 46.5q-49.5 -56.5 -140.5 -56.5q-90 0 -140 56.5t-50 159.5v321h38v-320q0 -88 39 -134t113 -46t113 46t39 134v320h38v-321q0 -103 -49.5 -159.5zM346 749h38v-116h-38v116zM130 749h38v-116h-38v116z" />
    <glyph glyph-name="yacute" unicode="&#xfd;" horiz-adv-x="486" 
d="M233 38l-223 489h43l199 -445l181 445h42l-299 -723h-42zM342 769h52l-140 -151h-46z" />
    <glyph glyph-name="thorn" unicode="&#xfe;" 
d="M78 769h38v-242q0 -39 -2 -115q26 56 84.5 90.5t131.5 34.5q72 0 132 -35t94.5 -98t34.5 -141t-34.5 -140.5t-94.5 -97.5t-132 -35q-73 0 -131.5 34.5t-84.5 90.5q2 -76 2 -115v-196h-38v965zM140 135.5q29 -53.5 78.5 -80.5t108.5 -27q64 0 115.5 30.5t80.5 84t29 120.5
t-29 121t-80 84.5t-115 30.5q-60 0 -109.5 -27.5t-78.5 -80.5t-29 -128q0 -74 29 -127.5z" />
    <glyph glyph-name="ydieresis" unicode="&#xff;" horiz-adv-x="486" 
d="M233 38l-223 489h43l199 -445l181 445h42l-299 -723h-42zM332 749h38v-116h-38v116zM116 749h38v-116h-38v116z" />
    <glyph glyph-name="Amacron" unicode="&#x100;" horiz-adv-x="595" 
d="M279 730h36l256 -730h-43l-66 190h-329l-66 -190h-42zM449 228l-152 437l-151 -437h303zM152 902h292v-37h-292v37z" />
    <glyph glyph-name="amacron" unicode="&#x101;" 
d="M171 25q-60 35 -94.5 97.5t-34.5 140.5t34.5 141t94.5 98t132 35t130.5 -34.5t85.5 -90.5v115h36v-527h-36v115q-27 -56 -85.5 -90.5t-130.5 -34.5t-132 35zM110 142.5q29 -53.5 80 -84t115 -30.5q60 0 109.5 27t78.5 80.5t29 127.5q0 75 -29 128t-78.5 80.5t-109.5 27.5
q-64 0 -115 -30.5t-80 -84.5t-29 -121t29 -120.5zM178 699h292v-37h-292v37z" />
    <glyph glyph-name="Abreve" unicode="&#x102;" horiz-adv-x="595" 
d="M279 730h36l256 -730h-43l-66 190h-329l-66 -190h-42zM449 228l-152 437l-151 -437h303zM198 849q-40 38 -45 106h36q6 -53 35.5 -80t73.5 -27t73.5 27t35.5 80h36q-5 -68 -45 -106t-100 -38t-100 38z" />
    <glyph glyph-name="abreve" unicode="&#x103;" 
d="M171 25q-60 35 -94.5 97.5t-34.5 140.5t34.5 141t94.5 98t132 35t130.5 -34.5t85.5 -90.5v115h36v-527h-36v115q-27 -56 -85.5 -90.5t-130.5 -34.5t-132 35zM110 142.5q29 -53.5 80 -84t115 -30.5q60 0 109.5 27t78.5 80.5t29 127.5q0 75 -29 128t-78.5 80.5t-109.5 27.5
q-64 0 -115 -30.5t-80 -84.5t-29 -121t29 -120.5zM224 646q-40 38 -45 106h36q6 -53 35.5 -80t73.5 -27t73.5 27t35.5 80h36q-5 -68 -45 -106t-100 -38t-100 38z" />
    <glyph glyph-name="Aogonek" unicode="&#x104;" horiz-adv-x="595" 
d="M279 730h36l256 -730q-100 -39 -100 -103q0 -26 14.5 -41t41.5 -15q18 0 46 7v-36q-27 -8 -50 -8q-40 0 -65 24.5t-25 65.5q0 74 90 120l-61 176h-329l-66 -190h-42zM449 228l-152 437l-151 -437h303z" />
    <glyph glyph-name="aogonek" unicode="&#x105;" 
d="M171 25q-60 35 -94.5 97.5t-34.5 140.5t34.5 141t94.5 98t132 35t130.5 -34.5t85.5 -90.5v115h36v-527q-100 -39 -100 -103q0 -26 14.5 -41t41.5 -15q18 0 46 7v-36q-27 -8 -50 -8q-40 0 -65 24.5t-25 65.5q0 79 102 125v96q-27 -56 -85.5 -90.5t-130.5 -34.5t-132 35z
M110 142.5q29 -53.5 80 -84t115 -30.5q60 0 109.5 27t78.5 80.5t29 127.5q0 75 -29 128t-78.5 80.5t-109.5 27.5q-64 0 -115 -30.5t-80 -84.5t-29 -121t29 -120.5z" />
    <glyph glyph-name="Cacute" unicode="&#x106;" horiz-adv-x="563" 
d="M237.5 40q-85.5 47 -135.5 132t-50 193t50 193t135.5 132t189.5 47q44 0 98 -9v-37q-54 9 -95 9q-96 0 -173 -43t-120.5 -119.5t-43.5 -172.5t43.5 -172.5t120.5 -119.5t173 -43q41 0 95 9v-37q-54 -9 -98 -9q-104 0 -189.5 47zM453 972h52l-140 -151h-46z" />
    <glyph glyph-name="cacute" unicode="&#x107;" horiz-adv-x="426" 
d="M170 28.5q-60 34.5 -94 96t-34 138.5t34 138.5t94 96t136 34.5q40 0 86 -9v-37q-48 8 -83 8q-66 0 -118 -29.5t-81 -82t-29 -119.5t29 -119.5t81 -82t118 -29.5q35 0 83 8v-37q-46 -9 -86 -9q-76 0 -136 34.5zM348 769h52l-140 -151h-46z" />
    <glyph glyph-name="Ccircumflex" unicode="&#x108;" horiz-adv-x="563" 
d="M237.5 40q-85.5 47 -135.5 132t-50 193t50 193t135.5 132t189.5 47q44 0 98 -9v-37q-54 9 -95 9q-96 0 -173 -43t-120.5 -119.5t-43.5 -172.5t43.5 -172.5t120.5 -119.5t173 -43q41 0 95 9v-37q-54 -9 -98 -9q-104 0 -189.5 47zM330 972h48l123 -151h-43l-104 120
l-105 -120h-42z" />
    <glyph glyph-name="ccircumflex" unicode="&#x109;" horiz-adv-x="426" 
d="M170 28.5q-60 34.5 -94 96t-34 138.5t34 138.5t94 96t136 34.5q40 0 86 -9v-37q-48 8 -83 8q-66 0 -118 -29.5t-81 -82t-29 -119.5t29 -119.5t81 -82t118 -29.5q35 0 83 8v-37q-46 -9 -86 -9q-76 0 -136 34.5zM225 769h48l123 -151h-43l-104 120l-105 -120h-42z" />
    <glyph glyph-name="Cdotaccent" unicode="&#x10a;" horiz-adv-x="563" 
d="M237.5 40q-85.5 47 -135.5 132t-50 193t50 193t135.5 132t189.5 47q44 0 98 -9v-37q-54 9 -95 9q-96 0 -173 -43t-120.5 -119.5t-43.5 -172.5t43.5 -172.5t120.5 -119.5t173 -43q41 0 95 9v-37q-54 -9 -98 -9q-104 0 -189.5 47zM335 972h38v-136h-38v136z" />
    <glyph glyph-name="cdotaccent" unicode="&#x10b;" horiz-adv-x="426" 
d="M170 28.5q-60 34.5 -94 96t-34 138.5t34 138.5t94 96t136 34.5q40 0 86 -9v-37q-48 8 -83 8q-66 0 -118 -29.5t-81 -82t-29 -119.5t29 -119.5t81 -82t118 -29.5q35 0 83 8v-37q-46 -9 -86 -9q-76 0 -136 34.5zM230 769h38v-136h-38v136z" />
    <glyph glyph-name="Ccaron" unicode="&#x10c;" horiz-adv-x="563" 
d="M237.5 40q-85.5 47 -135.5 132t-50 193t50 193t135.5 132t189.5 47q44 0 98 -9v-37q-54 9 -95 9q-96 0 -173 -43t-120.5 -119.5t-43.5 -172.5t43.5 -172.5t120.5 -119.5t173 -43q41 0 95 9v-37q-54 -9 -98 -9q-104 0 -189.5 47zM207 972h43l105 -120l104 120h42
l-123 -151h-48z" />
    <glyph glyph-name="ccaron" unicode="&#x10d;" horiz-adv-x="426" 
d="M170 28.5q-60 34.5 -94 96t-34 138.5t34 138.5t94 96t136 34.5q40 0 86 -9v-37q-48 8 -83 8q-66 0 -118 -29.5t-81 -82t-29 -119.5t29 -119.5t81 -82t118 -29.5q35 0 83 8v-37q-46 -9 -86 -9q-76 0 -136 34.5zM102 769h43l105 -120l104 120h42l-123 -151h-48z" />
    <glyph glyph-name="Dcaron" unicode="&#x10e;" horiz-adv-x="691" 
d="M104 730h166q103 0 187 -45.5t132.5 -128.5t48.5 -191q0 -109 -48.5 -192t-132.5 -128t-187 -45h-166v730zM270 38q94 0 168.5 41t116.5 115.5t42 170.5q0 95 -42 169.5t-116.5 116t-168.5 41.5h-126v-654h126zM151 972h43l105 -120l104 120h42l-123 -151h-48z" />
    <glyph glyph-name="dcaron" unicode="&#x10f;" 
d="M171 25q-60 35 -94.5 97.5t-34.5 140.5t34.5 141t94.5 98t132 35q73 0 131.5 -34.5t84.5 -90.5q-2 76 -2 115v242h38v-769h-36v115q-27 -56 -85.5 -90.5t-130.5 -34.5t-132 35zM110 142.5q29 -53.5 80 -84t115 -30.5q60 0 109.5 27t78.5 80.5t29 127.5q0 75 -29 128
t-78.5 80.5t-109.5 27.5q-64 0 -115 -30.5t-80 -84.5t-29 -121t29 -120.5zM646 769h41l-24 -195h-33z" />
    <glyph glyph-name="Dcroat" unicode="&#x110;" horiz-adv-x="697" 
d="M120 364h-111v38h111v328h156q103 0 187 -45.5t132.5 -128.5t48.5 -191q0 -109 -48.5 -192t-132.5 -128t-187 -45h-156v364zM276 38q94 0 168.5 41t116.5 115.5t42 170.5q0 95 -42 169.5t-116.5 116t-168.5 41.5h-116v-290h189v-38h-189v-326h116z" />
    <glyph glyph-name="dcroat" unicode="&#x111;" 
d="M171 25q-60 35 -94.5 97.5t-34.5 140.5t34.5 141t94.5 98t132 35q73 0 131.5 -34.5t84.5 -90.5q-2 76 -2 115v97h-157v37h157v108h38v-108h59v-37h-59v-624h-36v115q-27 -56 -85.5 -90.5t-130.5 -34.5t-132 35zM110 142.5q29 -53.5 80 -84t115 -30.5q60 0 109.5 27
t78.5 80.5t29 127.5q0 75 -29 128t-78.5 80.5t-109.5 27.5q-64 0 -115 -30.5t-80 -84.5t-29 -121t29 -120.5z" />
    <glyph glyph-name="Emacron" unicode="&#x112;" horiz-adv-x="521" 
d="M104 730h347v-38h-307v-290h303v-38h-303v-326h312v-38h-352v730zM136 902h292v-37h-292v37z" />
    <glyph glyph-name="emacron" unicode="&#x113;" horiz-adv-x="586" 
d="M168 28q-60 36 -93 97.5t-33 136.5q0 74 33 136.5t92 99t133 36.5q65 0 118.5 -29t88 -87t40.5 -142h-466v-12v-4q0 -63 28 -116t79 -83.5t117 -30.5q69 0 123 33.5t84 92.5l33 -17q-30 -60 -91.5 -103.5t-148.5 -43.5q-77 0 -137 36zM504 313q-16 92 -73 137.5
t-132 45.5q-83 0 -140.5 -51.5t-72.5 -131.5h418zM154 699h292v-37h-292v37z" />
    <glyph glyph-name="Ebreve" unicode="&#x114;" horiz-adv-x="521" 
d="M104 730h347v-38h-307v-290h303v-38h-303v-326h312v-38h-352v730zM182 849q-40 38 -45 106h36q6 -53 35.5 -80t73.5 -27t73.5 27t35.5 80h36q-5 -68 -45 -106t-100 -38t-100 38z" />
    <glyph glyph-name="ebreve" unicode="&#x115;" horiz-adv-x="586" 
d="M168 28q-60 36 -93 97.5t-33 136.5q0 74 33 136.5t92 99t133 36.5q65 0 118.5 -29t88 -87t40.5 -142h-466v-12v-4q0 -63 28 -116t79 -83.5t117 -30.5q69 0 123 33.5t84 92.5l33 -17q-30 -60 -91.5 -103.5t-148.5 -43.5q-77 0 -137 36zM504 313q-16 92 -73 137.5
t-132 45.5q-83 0 -140.5 -51.5t-72.5 -131.5h418zM200 646q-40 38 -45 106h36q6 -53 35.5 -80t73.5 -27t73.5 27t35.5 80h36q-5 -68 -45 -106t-100 -38t-100 38z" />
    <glyph glyph-name="Edotaccent" unicode="&#x116;" horiz-adv-x="521" 
d="M104 730h347v-38h-307v-290h303v-38h-303v-326h312v-38h-352v730zM263 972h38v-136h-38v136z" />
    <glyph glyph-name="edotaccent" unicode="&#x117;" horiz-adv-x="586" 
d="M168 28q-60 36 -93 97.5t-33 136.5q0 74 33 136.5t92 99t133 36.5q65 0 118.5 -29t88 -87t40.5 -142h-466v-12v-4q0 -63 28 -116t79 -83.5t117 -30.5q69 0 123 33.5t84 92.5l33 -17q-30 -60 -91.5 -103.5t-148.5 -43.5q-77 0 -137 36zM504 313q-16 92 -73 137.5
t-132 45.5q-83 0 -140.5 -51.5t-72.5 -131.5h418zM281 769h38v-136h-38v136z" />
    <glyph glyph-name="Eogonek" unicode="&#x118;" horiz-adv-x="521" 
d="M104 730h347v-38h-307v-290h303v-38h-303v-326h312v-38q-100 -39 -100 -103q0 -26 14.5 -41t41.5 -15q18 0 46 7v-36q-27 -8 -50 -8q-40 0 -65 24.5t-25 65.5q0 64 66 106h-280v730z" />
    <glyph glyph-name="eogonek" unicode="&#x119;" horiz-adv-x="586" 
d="M259 -171.5q-25 24.5 -25 65.5q0 59 55 98q-73 4 -129 40.5t-87 97t-31 132.5q0 74 33 136.5t92 99t133 36.5q65 0 118.5 -29t88 -87t40.5 -142h-466v-12v-4q0 -63 28 -116t79 -83.5t117 -30.5q69 0 123 33.5t84 92.5l33 -17q-24 -47 -68 -85.5t-106 -53.5
q-99 -39 -99 -103q0 -26 14.5 -41t41.5 -15q18 0 46 7v-36q-27 -8 -50 -8q-40 0 -65 24.5zM504 313q-16 92 -73 137.5t-132 45.5q-83 0 -140.5 -51.5t-72.5 -131.5h418z" />
    <glyph glyph-name="Ecaron" unicode="&#x11a;" horiz-adv-x="521" 
d="M104 730h347v-38h-307v-290h303v-38h-303v-326h312v-38h-352v730zM135 972h43l105 -120l104 120h42l-123 -151h-48z" />
    <glyph glyph-name="ecaron" unicode="&#x11b;" horiz-adv-x="586" 
d="M168 28q-60 36 -93 97.5t-33 136.5q0 74 33 136.5t92 99t133 36.5q65 0 118.5 -29t88 -87t40.5 -142h-466v-12v-4q0 -63 28 -116t79 -83.5t117 -30.5q69 0 123 33.5t84 92.5l33 -17q-30 -60 -91.5 -103.5t-148.5 -43.5q-77 0 -137 36zM504 313q-16 92 -73 137.5
t-132 45.5q-83 0 -140.5 -51.5t-72.5 -131.5h418zM153 769h43l105 -120l104 120h42l-123 -151h-48z" />
    <glyph glyph-name="Gcircumflex" unicode="&#x11c;" horiz-adv-x="811" 
d="M235.5 37.5q-84.5 47.5 -134 133t-49.5 192.5q0 109 50 195t135.5 134t186.5 48q79 0 151 -29t121 -80l-28 -32q-43 48 -107 75t-137 27q-92 0 -168 -43.5t-119.5 -121t-43.5 -173.5q0 -94 43 -170.5t118 -120t167 -43.5q85 0 153 38t109 110t45 171h-325v38h365v-17
q0 -118 -46 -203.5t-125 -130.5t-176 -45q-101 0 -185.5 47.5zM391 972h48l123 -151h-43l-104 120l-105 -120h-42z" />
    <glyph glyph-name="gcircumflex" unicode="&#x11d;" 
d="M192 -159h89q122 0 178.5 50t58.5 151l2 80q-26 -56 -84.5 -89.5t-130.5 -33.5q-73 0 -133 34.5t-94.5 95.5t-34.5 138t34.5 138.5t94.5 96.5t132 35t130.5 -34.5t85.5 -90.5v115h36v-485q0 -110 -66.5 -174t-210.5 -64h-87v37zM111 148.5q29 -52.5 80.5 -82t117.5 -29.5
q59 0 107.5 25t77.5 76t29 125q0 75 -29 128t-78.5 80.5t-109.5 27.5q-64 0 -115 -30t-80 -83t-29 -119t29 -118.5zM300 769h48l123 -151h-43l-104 120l-105 -120h-42z" />
    <glyph glyph-name="Gbreve" unicode="&#x11e;" horiz-adv-x="811" 
d="M235.5 37.5q-84.5 47.5 -134 133t-49.5 192.5q0 109 50 195t135.5 134t186.5 48q79 0 151 -29t121 -80l-28 -32q-43 48 -107 75t-137 27q-92 0 -168 -43.5t-119.5 -121t-43.5 -173.5q0 -94 43 -170.5t118 -120t167 -43.5q85 0 153 38t109 110t45 171h-325v38h365v-17
q0 -118 -46 -203.5t-125 -130.5t-176 -45q-101 0 -185.5 47.5zM315 849q-40 38 -45 106h36q6 -53 35.5 -80t73.5 -27t73.5 27t35.5 80h36q-5 -68 -45 -106t-100 -38t-100 38z" />
    <glyph glyph-name="gbreve" unicode="&#x11f;" 
d="M192 -159h89q122 0 178.5 50t58.5 151l2 80q-26 -56 -84.5 -89.5t-130.5 -33.5q-73 0 -133 34.5t-94.5 95.5t-34.5 138t34.5 138.5t94.5 96.5t132 35t130.5 -34.5t85.5 -90.5v115h36v-485q0 -110 -66.5 -174t-210.5 -64h-87v37zM111 148.5q29 -52.5 80.5 -82t117.5 -29.5
q59 0 107.5 25t77.5 76t29 125q0 75 -29 128t-78.5 80.5t-109.5 27.5q-64 0 -115 -30t-80 -83t-29 -119t29 -118.5zM224 646q-40 38 -45 106h36q6 -53 35.5 -80t73.5 -27t73.5 27t35.5 80h36q-5 -68 -45 -106t-100 -38t-100 38z" />
    <glyph glyph-name="Gdotaccent" unicode="&#x120;" horiz-adv-x="811" 
d="M235.5 37.5q-84.5 47.5 -134 133t-49.5 192.5q0 109 50 195t135.5 134t186.5 48q79 0 151 -29t121 -80l-28 -32q-43 48 -107 75t-137 27q-92 0 -168 -43.5t-119.5 -121t-43.5 -173.5q0 -94 43 -170.5t118 -120t167 -43.5q85 0 153 38t109 110t45 171h-325v38h365v-17
q0 -118 -46 -203.5t-125 -130.5t-176 -45q-101 0 -185.5 47.5zM396 972h38v-136h-38v136z" />
    <glyph glyph-name="gdotaccent" unicode="&#x121;" 
d="M192 -159h89q122 0 178.5 50t58.5 151l2 80q-26 -56 -84.5 -89.5t-130.5 -33.5q-73 0 -133 34.5t-94.5 95.5t-34.5 138t34.5 138.5t94.5 96.5t132 35t130.5 -34.5t85.5 -90.5v115h36v-485q0 -110 -66.5 -174t-210.5 -64h-87v37zM111 148.5q29 -52.5 80.5 -82t117.5 -29.5
q59 0 107.5 25t77.5 76t29 125q0 75 -29 128t-78.5 80.5t-109.5 27.5q-64 0 -115 -30t-80 -83t-29 -119t29 -118.5zM305 769h38v-136h-38v136z" />
    <glyph glyph-name="uni0122" unicode="&#x122;" horiz-adv-x="811" 
d="M235.5 37.5q-84.5 47.5 -134 133t-49.5 192.5q0 109 50 195t135.5 134t186.5 48q79 0 151 -29t121 -80l-28 -32q-43 48 -107 75t-137 27q-92 0 -168 -43.5t-119.5 -121t-43.5 -173.5q0 -94 43 -170.5t118 -120t167 -43.5q85 0 153 38t109 110t45 171h-325v38h365v-17
q0 -118 -46 -203.5t-125 -130.5t-176 -45q-101 0 -185.5 47.5zM399 -49h41l-47 -147h-33z" />
    <glyph glyph-name="uni0123" unicode="&#x123;" 
d="M192 -159h89q122 0 178.5 50t58.5 151l2 80q-26 -56 -84.5 -89.5t-130.5 -33.5q-73 0 -133 34.5t-94.5 95.5t-34.5 138t34.5 138.5t94.5 96.5t132 35t130.5 -34.5t85.5 -90.5v115h36v-485q0 -110 -66.5 -174t-210.5 -64h-87v37zM111 148.5q29 -52.5 80.5 -82t117.5 -29.5
q59 0 107.5 25t77.5 76t29 125q0 75 -29 128t-78.5 80.5t-109.5 27.5q-64 0 -115 -30t-80 -83t-29 -119t29 -118.5zM347 765h33l-39 -147h-41z" />
    <glyph glyph-name="Hcircumflex" unicode="&#x124;" horiz-adv-x="676" 
d="M532 364h-388v-364h-40v730h40v-328h388v328h40v-730h-40v364zM314 972h48l123 -151h-43l-104 120l-105 -120h-42z" />
    <glyph glyph-name="hcircumflex" unicode="&#x125;" horiz-adv-x="530" 
d="M78 769h38v-247q0 -50 -1 -74q21 43 61 66t95 23q88 0 137.5 -57t49.5 -159v-321h-38v320q0 87 -39.5 133.5t-112.5 46.5q-74 0 -113 -46t-39 -134v-320h-38v769zM73 1011h48l123 -151h-43l-104 120l-105 -120h-42z" />
    <glyph glyph-name="Hbar" unicode="&#x126;" horiz-adv-x="678" 
d="M533 364h-388v-364h-40v552h-70v38h70v140h40v-140h388v140h40v-140h70v-38h-70v-552h-40v364zM533 402v150h-388v-150h388z" />
    <glyph glyph-name="hbar" unicode="&#x127;" horiz-adv-x="530" 
d="M78 624h-59v37h59v108h38v-108h157v-37h-157v-102q0 -50 -1 -74q21 43 61 66t95 23q88 0 137.5 -57t49.5 -159v-321h-38v320q0 87 -39.5 133.5t-112.5 46.5q-74 0 -113 -46t-39 -134v-320h-38v624z" />
    <glyph glyph-name="Itilde" unicode="&#x128;" horiz-adv-x="248" 
d="M104 730h40v-730h-40v730zM151.5 837q-16.5 9 -41.5 27q-20 16 -33 23.5t-29 7.5q-42 0 -45 -62h-35q0 50 24 74.5t58 24.5q22 0 38.5 -9t41.5 -27q20 -16 33 -23.5t29 -7.5q42 0 45 62h35q0 -50 -24 -74.5t-58 -24.5q-22 0 -38.5 9z" />
    <glyph glyph-name="itilde" unicode="&#x129;" horiz-adv-x="194" 
d="M78 527h38v-527h-38v527zM124.5 634q-16.5 9 -41.5 27q-20 16 -33 23.5t-29 7.5q-42 0 -45 -62h-35q0 50 24 74.5t58 24.5q22 0 38.5 -9t41.5 -27q20 -16 33 -23.5t29 -7.5q42 0 45 62h35q0 -50 -24 -74.5t-58 -24.5q-22 0 -38.5 9z" />
    <glyph glyph-name="Imacron" unicode="&#x12a;" horiz-adv-x="248" 
d="M104 730h40v-730h-40v730zM-22 902h292v-37h-292v37z" />
    <glyph glyph-name="imacron" unicode="&#x12b;" horiz-adv-x="194" 
d="M-29 698h252v-36h-252v36zM78 527h38v-527h-38v527z" />
    <glyph glyph-name="Ibreve" unicode="&#x12c;" horiz-adv-x="248" 
d="M104 730h40v-730h-40v730zM24 849q-40 38 -45 106h36q6 -53 35.5 -80t73.5 -27t73.5 27t35.5 80h36q-5 -68 -45 -106t-100 -38t-100 38z" />
    <glyph glyph-name="ibreve" unicode="&#x12d;" horiz-adv-x="194" 
d="M78 527h38v-527h-38v527zM-3 646q-40 38 -45 106h36q6 -53 35.5 -80t73.5 -27t73.5 27t35.5 80h36q-5 -68 -45 -106t-100 -38t-100 38z" />
    <glyph glyph-name="Iogonek" unicode="&#x12e;" horiz-adv-x="248" 
d="M31 -171.5q-25 24.5 -25 65.5q0 78 98 124v712h40v-730q-100 -39 -100 -103q0 -26 14.5 -41t41.5 -15q18 0 46 7v-36q-27 -8 -50 -8q-40 0 -65 24.5z" />
    <glyph glyph-name="iogonek" unicode="&#x12f;" horiz-adv-x="194" 
d="M78 769h38v-136h-38v136zM78 19v508h38v-527q-100 -39 -100 -103q0 -26 14.5 -41t41.5 -15q18 0 46 7v-36q-27 -8 -50 -8q-40 0 -65 24.5t-25 65.5q0 79 100 125z" />
    <glyph glyph-name="Idotaccent" unicode="&#x130;" horiz-adv-x="248" 
d="M104 730h40v-730h-40v730zM105 972h38v-136h-38v136z" />
    <glyph glyph-name="dotlessi" unicode="&#x131;" horiz-adv-x="194" 
d="M78 527h38v-527h-38v527z" />
    <glyph glyph-name="IJ" unicode="&#x132;" horiz-adv-x="576" 
d="M104 730h40v-730h-40v730zM269 33h55q62 0 88 27t26 94v576h40v-580q0 -80 -38 -117.5t-116 -37.5h-55v38z" />
    <glyph glyph-name="ij" unicode="&#x133;" horiz-adv-x="388" 
d="M78 527h38v-527h-38v527zM78 769h38v-136h-38v136zM159 -159h8q56 0 80.5 22.5t24.5 77.5v586h38v-588q0 -69 -33.5 -102t-106.5 -33h-11v37zM272 769h38v-136h-38v136z" />
    <glyph glyph-name="Jcircumflex" unicode="&#x134;" horiz-adv-x="328" 
d="M21 33h55q62 0 88 27t26 94v576h40v-580q0 -80 -38 -117.5t-116 -37.5h-55v38zM186 972h48l123 -151h-43l-104 120l-105 -120h-42z" />
    <glyph glyph-name="jcircumflex" unicode="&#x135;" horiz-adv-x="194" 
d="M-35 -159h8q56 0 80.5 22.5t24.5 77.5v586h38v-588q0 -69 -33.5 -102t-106.5 -33h-11v37zM73 769h48l123 -151h-43l-104 120l-105 -120h-42z" />
    <glyph glyph-name="uni0136" unicode="&#x136;" horiz-adv-x="536" 
d="M144 372v-372h-40v730h40v-327l320 327h53l-335 -341l356 -389h-54zM273 -49h41l-47 -147h-33z" />
    <glyph glyph-name="uni0137" unicode="&#x137;" horiz-adv-x="414" 
d="M116 271v-271h-38v769h38v-475l228 233h54l-241 -244l265 -283h-55zM213 -49h41l-47 -147h-33z" />
    <glyph glyph-name="kgreenlandic" unicode="&#x138;" horiz-adv-x="414" 
d="M116 263v-263h-38v527h38v-241l231 241h53l-243 -252l265 -275h-55z" />
    <glyph glyph-name="Lacute" unicode="&#x139;" horiz-adv-x="466" 
d="M104 730h40v-692h305v-38h-345v730zM223 972h52l-140 -151h-46z" />
    <glyph glyph-name="lacute" unicode="&#x13a;" horiz-adv-x="194" 
d="M78 769h38v-769h-38v769zM196 1011h52l-140 -151h-46z" />
    <glyph glyph-name="uni013B" unicode="&#x13b;" horiz-adv-x="466" 
d="M104 730h40v-692h305v-38h-345v730zM256 -49h41l-47 -147h-33z" />
    <glyph glyph-name="uni013C" unicode="&#x13c;" horiz-adv-x="194" 
d="M78 769h38v-769h-38v769zM80 -49h41l-47 -147h-33z" />
    <glyph glyph-name="Lcaron" unicode="&#x13d;" horiz-adv-x="466" 
d="M104 730h40v-692h305v-38h-345v730zM245 769h41l-24 -195h-33z" />
    <glyph glyph-name="lcaron" unicode="&#x13e;" horiz-adv-x="194" 
d="M78 769h38v-769h-38v769zM207 769h41l-24 -195h-33z" />
    <glyph glyph-name="Ldot" unicode="&#x13f;" horiz-adv-x="472" 
d="M104 730h40v-692h305v-38h-345v730zM322 422h52v-74h-52v74z" />
    <glyph glyph-name="ldot" unicode="&#x140;" horiz-adv-x="318" 
d="M78 769h38v-769h-38v769zM230 402h52v-74h-52v74z" />
    <glyph glyph-name="Lslash" unicode="&#x141;" horiz-adv-x="485" 
d="M45 321l76 53v356h40v-329l158 110v-46l-158 -110v-317h305v-38h-345v328l-76 -53v46z" />
    <glyph glyph-name="lslash" unicode="&#x142;" horiz-adv-x="256" 
d="M112 354l-79 -65v48l78 65v367h38v-336l78 64v-48l-78 -64l1 -385h-38v354z" />
    <glyph glyph-name="Nacute" unicode="&#x143;" horiz-adv-x="686" 
d="M104 730h47l391 -665v665h40v-730h-47l-391 665v-665h-40v730zM443 972h52l-140 -151h-46z" />
    <glyph glyph-name="nacute" unicode="&#x144;" horiz-adv-x="524" 
d="M121.5 480.5q49.5 56.5 140.5 56.5q90 0 140 -56.5t50 -159.5v-321h-38v320q0 88 -39 134t-113 46t-113 -46t-39 -134v-320h-38v321q0 103 49.5 159.5zM361 769h52l-140 -151h-46z" />
    <glyph glyph-name="uni0145" unicode="&#x145;" horiz-adv-x="686" 
d="M104 730h47l391 -665v665h40v-730h-47l-391 665v-665h-40v730zM317 -49h41l-47 -147h-33z" />
    <glyph glyph-name="uni0146" unicode="&#x146;" horiz-adv-x="524" 
d="M121.5 480.5q49.5 56.5 140.5 56.5q90 0 140 -56.5t50 -159.5v-321h-38v320q0 88 -39 134t-113 46t-113 -46t-39 -134v-320h-38v321q0 103 49.5 159.5zM245 -49h41l-47 -147h-33z" />
    <glyph glyph-name="Ncaron" unicode="&#x147;" horiz-adv-x="686" 
d="M104 730h47l391 -665v665h40v-730h-47l-391 665v-665h-40v730zM197 972h43l105 -120l104 120h42l-123 -151h-48z" />
    <glyph glyph-name="ncaron" unicode="&#x148;" horiz-adv-x="524" 
d="M121.5 480.5q49.5 56.5 140.5 56.5q90 0 140 -56.5t50 -159.5v-321h-38v320q0 88 -39 134t-113 46t-113 -46t-39 -134v-320h-38v321q0 103 49.5 159.5zM115 769h43l105 -120l104 120h42l-123 -151h-48z" />
    <glyph glyph-name="Eng" unicode="&#x14a;" horiz-adv-x="686" 
d="M373 -158h55q62 0 88 27t26 94v25l-398 677v-665h-40v730h47l391 -665v665h40v-771q0 -80 -38 -117.5t-116 -37.5h-55v38z" />
    <glyph glyph-name="eng" unicode="&#x14b;" horiz-adv-x="524" 
d="M301 -159h8q56 0 80.5 22.5t24.5 77.5v379q0 88 -39 134t-113 46t-113 -46t-39 -134v-320h-38v321q0 103 49.5 159.5t140.5 56.5q90 0 140 -56.5t50 -159.5v-382q0 -69 -33.5 -102t-106.5 -33h-11v37z" />
    <glyph glyph-name="Omacron" unicode="&#x14c;" horiz-adv-x="840" 
d="M237.5 37.5q-84.5 47.5 -135 133.5t-50.5 194t50.5 193.5t135 133.5t182.5 48t182.5 -48t135 -133.5t50.5 -193.5t-50.5 -194t-135 -133.5t-182.5 -47.5t-182.5 47.5zM137 193q44 -77 119 -120.5t164 -43.5t164 43.5t119 120.5t44 172t-44 172t-119 120.5t-164 43.5
t-164 -43.5t-119 -120.5t-44 -172t44 -172zM274 902h292v-37h-292v37z" />
    <glyph glyph-name="omacron" unicode="&#x14d;" horiz-adv-x="609" 
d="M170.5 25.5q-60.5 35.5 -94.5 98t-34 139.5t34 140t94.5 98.5t134.5 35.5t134 -35.5t94 -98.5t34 -140t-34 -139.5t-94 -98t-134 -35.5t-134.5 35.5zM110 142.5q29 -53.5 80 -84t115 -30.5q63 0 114 30.5t80 84t29 120.5t-29 121t-80 84.5t-114 30.5q-64 0 -115 -30.5
t-80 -84.5t-29 -121t29 -120.5zM159 699h292v-37h-292v37z" />
    <glyph glyph-name="Obreve" unicode="&#x14e;" horiz-adv-x="840" 
d="M237.5 37.5q-84.5 47.5 -135 133.5t-50.5 194t50.5 193.5t135 133.5t182.5 48t182.5 -48t135 -133.5t50.5 -193.5t-50.5 -194t-135 -133.5t-182.5 -47.5t-182.5 47.5zM137 193q44 -77 119 -120.5t164 -43.5t164 43.5t119 120.5t44 172t-44 172t-119 120.5t-164 43.5
t-164 -43.5t-119 -120.5t-44 -172t44 -172zM320 849q-40 38 -45 106h36q6 -53 35.5 -80t73.5 -27t73.5 27t35.5 80h36q-5 -68 -45 -106t-100 -38t-100 38z" />
    <glyph glyph-name="obreve" unicode="&#x14f;" horiz-adv-x="609" 
d="M170.5 25.5q-60.5 35.5 -94.5 98t-34 139.5t34 140t94.5 98.5t134.5 35.5t134 -35.5t94 -98.5t34 -140t-34 -139.5t-94 -98t-134 -35.5t-134.5 35.5zM110 142.5q29 -53.5 80 -84t115 -30.5q63 0 114 30.5t80 84t29 120.5t-29 121t-80 84.5t-114 30.5q-64 0 -115 -30.5
t-80 -84.5t-29 -121t29 -120.5zM205 646q-40 38 -45 106h36q6 -53 35.5 -80t73.5 -27t73.5 27t35.5 80h36q-5 -68 -45 -106t-100 -38t-100 38z" />
    <glyph glyph-name="Ohungarumlaut" unicode="&#x150;" horiz-adv-x="840" 
d="M237.5 37.5q-84.5 47.5 -135 133.5t-50.5 194t50.5 193.5t135 133.5t182.5 48t182.5 -48t135 -133.5t50.5 -193.5t-50.5 -194t-135 -133.5t-182.5 -47.5t-182.5 47.5zM137 193q44 -77 119 -120.5t164 -43.5t164 43.5t119 120.5t44 172t-44 172t-119 120.5t-164 43.5
t-164 -43.5t-119 -120.5t-44 -172t44 -172zM552 972h43l-80 -151h-38zM392 972h43l-80 -151h-38z" />
    <glyph glyph-name="ohungarumlaut" unicode="&#x151;" horiz-adv-x="609" 
d="M170.5 25.5q-60.5 35.5 -94.5 98t-34 139.5t34 140t94.5 98.5t134.5 35.5t134 -35.5t94 -98.5t34 -140t-34 -139.5t-94 -98t-134 -35.5t-134.5 35.5zM110 142.5q29 -53.5 80 -84t115 -30.5q63 0 114 30.5t80 84t29 120.5t-29 121t-80 84.5t-114 30.5q-64 0 -115 -30.5
t-80 -84.5t-29 -121t29 -120.5zM437 769h43l-80 -151h-38zM277 769h43l-80 -151h-38z" />
    <glyph glyph-name="OE" unicode="&#x152;" horiz-adv-x="1154" 
d="M237.5 37.5q-84.5 47.5 -135 133.5t-50.5 194t50.5 193.5t135 133.5t182.5 48q106 0 193 -55t131 -150v195h340v-38h-301v-290h297v-38h-297v-326h306v-38h-345v194q-44 -94 -131 -149t-193 -55q-98 0 -182.5 47.5zM137 193q44 -77 119 -120.5t164 -43.5t164 43.5
t119 120.5t44 172t-44 172t-119 120.5t-164 43.5t-164 -43.5t-119 -120.5t-44 -172t44 -172z" />
    <glyph glyph-name="oe" unicode="&#x153;" horiz-adv-x="1072" 
d="M170.5 25.5q-60.5 35.5 -94.5 98t-34 139.5t34 140t94.5 98.5t134.5 35.5q84 0 149 -46.5t94 -126.5q28 78 91.5 124t146.5 46q65 0 118.5 -29t88 -87t40.5 -142h-466v-12v-4q0 -63 28 -116t79 -83.5t117 -30.5q69 0 123 33.5t84 92.5l33 -17q-30 -60 -91.5 -103.5
t-148.5 -43.5t-151.5 45.5t-92.5 123.5q-28 -78 -93 -124.5t-149 -46.5q-74 0 -134.5 35.5zM110 142.5q29 -53.5 80 -84t115 -30.5q63 0 114 30.5t80 84t29 120.5t-29 121t-80 84.5t-114 30.5q-64 0 -115 -30.5t-80 -84.5t-29 -121t29 -120.5zM990 313q-16 92 -73 137.5
t-132 45.5q-83 0 -140.5 -51.5t-72.5 -131.5h418z" />
    <glyph glyph-name="Racute" unicode="&#x154;" horiz-adv-x="534" 
d="M144 354v-354h-40v730h159q95 0 151.5 -51.5t56.5 -137.5q0 -53 -25.5 -96t-73 -67.5t-109.5 -24.5h-67l322 -353h-53zM259 390q81 0 126.5 41t45.5 110q0 70 -45 110.5t-127 40.5h-115v-302h115zM361 972h52l-140 -151h-46z" />
    <glyph glyph-name="racute" unicode="&#x155;" horiz-adv-x="277" 
d="M107.5 491.5q33.5 35.5 108.5 35.5h52v-37h-49q-58 0 -82.5 -24.5t-24.5 -85.5v-380h-38v382q0 74 33.5 109.5zM275 769h52l-140 -151h-46z" />
    <glyph glyph-name="uni0156" unicode="&#x156;" horiz-adv-x="534" 
d="M144 354v-354h-40v730h159q95 0 151.5 -51.5t56.5 -137.5q0 -53 -25.5 -96t-73 -67.5t-109.5 -24.5h-67l322 -353h-53zM259 390q81 0 126.5 41t45.5 110q0 70 -45 110.5t-127 40.5h-115v-302h115zM266 -49h41l-47 -147h-33z" />
    <glyph glyph-name="uni0157" unicode="&#x157;" horiz-adv-x="277" 
d="M107.5 491.5q33.5 35.5 108.5 35.5h52v-37h-49q-58 0 -82.5 -24.5t-24.5 -85.5v-380h-38v382q0 74 33.5 109.5zM76 -49h41l-47 -147h-33z" />
    <glyph glyph-name="Rcaron" unicode="&#x158;" horiz-adv-x="534" 
d="M144 354v-354h-40v730h159q95 0 151.5 -51.5t56.5 -137.5q0 -53 -25.5 -96t-73 -67.5t-109.5 -24.5h-67l322 -353h-53zM259 390q81 0 126.5 41t45.5 110q0 70 -45 110.5t-127 40.5h-115v-302h115zM115 972h43l105 -120l104 120h42l-123 -151h-48z" />
    <glyph glyph-name="rcaron" unicode="&#x159;" horiz-adv-x="277" 
d="M107.5 491.5q33.5 35.5 108.5 35.5h52v-37h-49q-58 0 -82.5 -24.5t-24.5 -85.5v-380h-38v382q0 74 33.5 109.5zM29 769h43l105 -120l104 120h42l-123 -151h-48z" />
    <glyph glyph-name="Sacute" unicode="&#x15a;" horiz-adv-x="448" 
d="M45 0v38q63 -7 129 -7q95 0 144.5 39t49.5 113q0 51 -26 89t-86 75l-81 50q-61 37 -89.5 79.5t-28.5 95.5q0 78 56 121.5t157 43.5q41 0 94 -7v-37q-49 7 -94 7q-85 0 -129 -33t-44 -95q0 -43 23.5 -77t76.5 -66l80 -49q67 -41 99 -89t32 -107q0 -90 -61.5 -140.5
t-172.5 -50.5q-60 0 -129 7zM320 972h52l-140 -151h-46z" />
    <glyph glyph-name="sacute" unicode="&#x15b;" horiz-adv-x="346" 
d="M44 0v37q65 -5 99 -5q135 0 135 97q0 34 -20 60t-67 54l-38 23q-58 35 -84.5 69.5t-26.5 75.5q0 55 42 88t113 33q31 0 78 -5v-35q-41 4 -70 4q-60 0 -92.5 -22t-32.5 -63q0 -31 21.5 -56.5t69.5 -55.5l41 -25q55 -34 79.5 -67t24.5 -77q0 -63 -45.5 -99t-127.5 -36
q-34 0 -99 5zM267 769h52l-140 -151h-46z" />
    <glyph glyph-name="Scircumflex" unicode="&#x15c;" horiz-adv-x="448" 
d="M45 0v38q63 -7 129 -7q95 0 144.5 39t49.5 113q0 51 -26 89t-86 75l-81 50q-61 37 -89.5 79.5t-28.5 95.5q0 78 56 121.5t157 43.5q41 0 94 -7v-37q-49 7 -94 7q-85 0 -129 -33t-44 -95q0 -43 23.5 -77t76.5 -66l80 -49q67 -41 99 -89t32 -107q0 -90 -61.5 -140.5
t-172.5 -50.5q-60 0 -129 7zM197 972h48l123 -151h-43l-104 120l-105 -120h-42z" />
    <glyph glyph-name="scircumflex" unicode="&#x15d;" horiz-adv-x="346" 
d="M44 0v37q65 -5 99 -5q135 0 135 97q0 34 -20 60t-67 54l-38 23q-58 35 -84.5 69.5t-26.5 75.5q0 55 42 88t113 33q31 0 78 -5v-35q-41 4 -70 4q-60 0 -92.5 -22t-32.5 -63q0 -31 21.5 -56.5t69.5 -55.5l41 -25q55 -34 79.5 -67t24.5 -77q0 -63 -45.5 -99t-127.5 -36
q-34 0 -99 5zM144 769h48l123 -151h-43l-104 120l-105 -120h-42z" />
    <glyph glyph-name="Scedilla" unicode="&#x15e;" horiz-adv-x="448" 
d="M45 0v38q63 -7 129 -7q95 0 144.5 39t49.5 113q0 51 -26 89t-86 75l-81 50q-61 37 -89.5 79.5t-28.5 95.5q0 78 56 121.5t157 43.5q41 0 94 -7v-37q-49 7 -94 7q-85 0 -129 -33t-44 -95q0 -43 23.5 -77t76.5 -66l80 -49q67 -41 99 -89t32 -107q0 -90 -61.5 -140.5
t-172.5 -50.5q-60 0 -129 7zM118 -196l70 147h45l-78 -147h-37z" />
    <glyph glyph-name="scedilla" unicode="&#x15f;" horiz-adv-x="346" 
d="M44 0v37q65 -5 99 -5q135 0 135 97q0 34 -20 60t-67 54l-38 23q-58 35 -84.5 69.5t-26.5 75.5q0 55 42 88t113 33q31 0 78 -5v-35q-41 4 -70 4q-60 0 -92.5 -22t-32.5 -63q0 -31 21.5 -56.5t69.5 -55.5l41 -25q55 -34 79.5 -67t24.5 -77q0 -63 -45.5 -99t-127.5 -36
q-34 0 -99 5zM85 -196l70 147h45l-78 -147h-37z" />
    <glyph glyph-name="Scaron" unicode="&#x160;" horiz-adv-x="448" 
d="M45 0v38q63 -7 129 -7q95 0 144.5 39t49.5 113q0 51 -26 89t-86 75l-81 50q-61 37 -89.5 79.5t-28.5 95.5q0 78 56 121.5t157 43.5q41 0 94 -7v-37q-49 7 -94 7q-85 0 -129 -33t-44 -95q0 -43 23.5 -77t76.5 -66l80 -49q67 -41 99 -89t32 -107q0 -90 -61.5 -140.5
t-172.5 -50.5q-60 0 -129 7zM74 972h43l105 -120l104 120h42l-123 -151h-48z" />
    <glyph glyph-name="scaron" unicode="&#x161;" horiz-adv-x="346" 
d="M44 0v37q65 -5 99 -5q135 0 135 97q0 34 -20 60t-67 54l-38 23q-58 35 -84.5 69.5t-26.5 75.5q0 55 42 88t113 33q31 0 78 -5v-35q-41 4 -70 4q-60 0 -92.5 -22t-32.5 -63q0 -31 21.5 -56.5t69.5 -55.5l41 -25q55 -34 79.5 -67t24.5 -77q0 -63 -45.5 -99t-127.5 -36
q-34 0 -99 5zM21 769h43l105 -120l104 120h42l-123 -151h-48z" />
    <glyph glyph-name="uni0162" unicode="&#x162;" horiz-adv-x="470" 
d="M215 692h-200v38h440v-38h-200v-692h-40v692zM145 -196l70 147h45l-78 -147h-37z" />
    <glyph glyph-name="uni0163" unicode="&#x163;" horiz-adv-x="231" 
d="M95 490h-66v37h66v153l38 20v-173h70v-37h-70v-490h-38v490zM24 -196l70 147h45l-78 -147h-37z" />
    <glyph glyph-name="Tcaron" unicode="&#x164;" horiz-adv-x="470" 
d="M215 692h-200v38h440v-38h-200v-692h-40v692zM88 972h43l105 -120l104 120h42l-123 -151h-48z" />
    <glyph glyph-name="tcaron" unicode="&#x165;" horiz-adv-x="231" 
d="M95 490h-66v37h66v153l38 20v-173h70v-37h-70v-490h-38v490zM224 769h41l-24 -195h-33z" />
    <glyph glyph-name="Tbar" unicode="&#x166;" horiz-adv-x="498" 
d="M94 402h135v290h-200v38h440v-38h-200v-290h135v-38h-135v-364h-40v364h-135v38z" />
    <glyph glyph-name="tbar" unicode="&#x167;" horiz-adv-x="233" 
d="M96 331h-66v37h65v122h-65v37h65v153l38 20v-173h71v-37h-71v-122h71v-37h-70v-331h-38v331z" />
    <glyph glyph-name="Utilde" unicode="&#x168;" horiz-adv-x="660" 
d="M157.5 57q-61.5 67 -61.5 188v485h40v-481q0 -107 50.5 -164t143.5 -57t143.5 57t50.5 164v481h40v-485q0 -121 -61.5 -188t-172.5 -67t-172.5 67zM357.5 837q-16.5 9 -41.5 27q-20 16 -33 23.5t-29 7.5q-42 0 -45 -62h-35q0 50 24 74.5t58 24.5q22 0 38.5 -9t41.5 -27
q20 -16 33 -23.5t29 -7.5q42 0 45 62h35q0 -50 -24 -74.5t-58 -24.5q-22 0 -38.5 9z" />
    <glyph glyph-name="utilde" unicode="&#x169;" horiz-adv-x="524" 
d="M402.5 46.5q-49.5 -56.5 -140.5 -56.5q-90 0 -140 56.5t-50 159.5v321h38v-320q0 -88 39 -134t113 -46t113 46t39 134v320h38v-321q0 -103 -49.5 -159.5zM284.5 634q-16.5 9 -41.5 27q-20 16 -33 23.5t-29 7.5q-42 0 -45 -62h-35q0 50 24 74.5t58 24.5q22 0 38.5 -9
t41.5 -27q20 -16 33 -23.5t29 -7.5q42 0 45 62h35q0 -50 -24 -74.5t-58 -24.5q-22 0 -38.5 9z" />
    <glyph glyph-name="Umacron" unicode="&#x16a;" horiz-adv-x="660" 
d="M157.5 57q-61.5 67 -61.5 188v485h40v-481q0 -107 50.5 -164t143.5 -57t143.5 57t50.5 164v481h40v-485q0 -121 -61.5 -188t-172.5 -67t-172.5 67zM184 902h292v-37h-292v37z" />
    <glyph glyph-name="umacron" unicode="&#x16b;" horiz-adv-x="524" 
d="M402.5 46.5q-49.5 -56.5 -140.5 -56.5q-90 0 -140 56.5t-50 159.5v321h38v-320q0 -88 39 -134t113 -46t113 46t39 134v320h38v-321q0 -103 -49.5 -159.5zM111 699h292v-37h-292v37z" />
    <glyph glyph-name="Ubreve" unicode="&#x16c;" horiz-adv-x="660" 
d="M157.5 57q-61.5 67 -61.5 188v485h40v-481q0 -107 50.5 -164t143.5 -57t143.5 57t50.5 164v481h40v-485q0 -121 -61.5 -188t-172.5 -67t-172.5 67zM230 849q-40 38 -45 106h36q6 -53 35.5 -80t73.5 -27t73.5 27t35.5 80h36q-5 -68 -45 -106t-100 -38t-100 38z" />
    <glyph glyph-name="ubreve" unicode="&#x16d;" horiz-adv-x="524" 
d="M402.5 46.5q-49.5 -56.5 -140.5 -56.5q-90 0 -140 56.5t-50 159.5v321h38v-320q0 -88 39 -134t113 -46t113 46t39 134v320h38v-321q0 -103 -49.5 -159.5zM157 646q-40 38 -45 106h36q6 -53 35.5 -80t73.5 -27t73.5 27t35.5 80h36q-5 -68 -45 -106t-100 -38t-100 38z" />
    <glyph glyph-name="Uring" unicode="&#x16e;" horiz-adv-x="660" 
d="M157.5 57q-61.5 67 -61.5 188v485h40v-481q0 -107 50.5 -164t143.5 -57t143.5 57t50.5 164v481h40v-485q0 -121 -61.5 -188t-172.5 -67t-172.5 67zM266.5 830q-24.5 23 -24.5 60t24 59.5t63 22.5t63 -22.5t24 -59.5t-24.5 -60t-62.5 -23t-62.5 23zM292 853q14 -14 37 -14
t37 14t14 37t-14 36.5t-37 13.5t-37 -13.5t-14 -36.5t14 -37z" />
    <glyph glyph-name="uring" unicode="&#x16f;" horiz-adv-x="524" 
d="M402.5 46.5q-49.5 -56.5 -140.5 -56.5q-90 0 -140 56.5t-50 159.5v321h38v-320q0 -88 39 -134t113 -46t113 46t39 134v320h38v-321q0 -103 -49.5 -159.5zM193.5 627q-24.5 23 -24.5 60t24 59.5t63 22.5t63 -22.5t24 -59.5t-24.5 -60t-62.5 -23t-62.5 23zM219 650
q14 -14 37 -14t37 14t14 37t-14 36.5t-37 13.5t-37 -13.5t-14 -36.5t14 -37z" />
    <glyph glyph-name="Uhungarumlaut" unicode="&#x170;" horiz-adv-x="660" 
d="M157.5 57q-61.5 67 -61.5 188v485h40v-481q0 -107 50.5 -164t143.5 -57t143.5 57t50.5 164v481h40v-485q0 -121 -61.5 -188t-172.5 -67t-172.5 67zM462 972h43l-80 -151h-38zM302 972h43l-80 -151h-38z" />
    <glyph glyph-name="uhungarumlaut" unicode="&#x171;" horiz-adv-x="524" 
d="M402.5 46.5q-49.5 -56.5 -140.5 -56.5q-90 0 -140 56.5t-50 159.5v321h38v-320q0 -88 39 -134t113 -46t113 46t39 134v320h38v-321q0 -103 -49.5 -159.5zM389 769h43l-80 -151h-38zM229 769h43l-80 -151h-38z" />
    <glyph glyph-name="Uogonek" unicode="&#x172;" horiz-adv-x="660" 
d="M294 -171.5q-25 24.5 -25 65.5q0 57 52 96q-107 3 -166 69.5t-59 185.5v485h40v-481q0 -107 50.5 -164t143.5 -57t143.5 57t50.5 164v481h40v-485q0 -99 -41 -162.5t-118 -83.5q-98 -39 -98 -102q0 -26 14.5 -41t41.5 -15q18 0 46 7v-36q-27 -8 -50 -8q-40 0 -65 24.5z
" />
    <glyph glyph-name="uogonek" unicode="&#x173;" horiz-adv-x="524" 
d="M416 63.5q-36 -54.5 -104 -68.5q-88 -38 -88 -98q0 -26 14.5 -41t41.5 -15q18 0 46 7v-36q-27 -8 -50 -8q-40 0 -65 24.5t-25 65.5q0 57 53 97q-80 8 -123.5 63.5t-43.5 151.5v321h38v-320q0 -88 39 -134t113 -46t113 46t39 134v320h38v-321q0 -88 -36 -142.5z" />
    <glyph glyph-name="Wcircumflex" unicode="&#x174;" horiz-adv-x="971" 
d="M33 730h42l185 -658l208 658h35l210 -658l183 658h41l-206 -730h-36l-210 658l-208 -658h-36zM462 972h48l123 -151h-43l-104 120l-105 -120h-42z" />
    <glyph glyph-name="wcircumflex" unicode="&#x175;" horiz-adv-x="774" 
d="M19 527h41l150 -469l162 469h35l160 -469l149 469h40l-172 -527h-35l-160 467l-163 -467h-36zM366 769h48l123 -151h-43l-104 120l-105 -120h-42z" />
    <glyph glyph-name="Ycircumflex" unicode="&#x176;" horiz-adv-x="540" 
d="M250 290l-219 440h46l194 -396l195 396h44l-220 -440v-290h-40v290zM248 972h48l123 -151h-43l-104 120l-105 -120h-42z" />
    <glyph glyph-name="ycircumflex" unicode="&#x177;" horiz-adv-x="486" 
d="M233 38l-223 489h43l199 -445l181 445h42l-299 -723h-42zM219 769h48l123 -151h-43l-104 120l-105 -120h-42z" />
    <glyph glyph-name="Ydieresis" unicode="&#x178;" horiz-adv-x="540" 
d="M250 290l-219 440h46l194 -396l195 396h44l-220 -440v-290h-40v290zM361 952h38v-116h-38v116zM145 952h38v-116h-38v116z" />
    <glyph glyph-name="Zacute" unicode="&#x179;" horiz-adv-x="490" 
d="M19 10l385 682h-357l12 38h403v-10l-385 -682h387l-12 -38h-433v10zM358 972h52l-140 -151h-46z" />
    <glyph glyph-name="zacute" unicode="&#x17a;" horiz-adv-x="429" 
d="M20 10l321 480h-303l12 37h354v-10l-322 -480h320l-12 -37h-370v10zM319 769h52l-140 -151h-46z" />
    <glyph glyph-name="Zdotaccent" unicode="&#x17b;" horiz-adv-x="490" 
d="M19 10l385 682h-357l12 38h403v-10l-385 -682h387l-12 -38h-433v10zM240 972h38v-136h-38v136z" />
    <glyph glyph-name="zdotaccent" unicode="&#x17c;" horiz-adv-x="429" 
d="M20 10l321 480h-303l12 37h354v-10l-322 -480h320l-12 -37h-370v10zM201 769h38v-136h-38v136z" />
    <glyph glyph-name="Zcaron" unicode="&#x17d;" horiz-adv-x="490" 
d="M19 10l385 682h-357l12 38h403v-10l-385 -682h387l-12 -38h-433v10zM112 972h43l105 -120l104 120h42l-123 -151h-48z" />
    <glyph glyph-name="zcaron" unicode="&#x17e;" horiz-adv-x="429" 
d="M20 10l321 480h-303l12 37h354v-10l-322 -480h320l-12 -37h-370v10zM73 769h43l105 -120l104 120h42l-123 -151h-48z" />
    <glyph glyph-name="florin" unicode="&#x192;" horiz-adv-x="356" 
d="M48 -158h8q56 0 80 22t24 78v547h-64v38h64v79q0 124 131 124h8v-38h-6q-49 0 -71 -21t-22 -69v-75h70v-38h-70v-551q0 -68 -34 -101t-107 -33h-11v38z" />
    <glyph glyph-name="uni0218" unicode="&#x218;" horiz-adv-x="448" 
d="M45 0v38q63 -7 129 -7q95 0 144.5 39t49.5 113q0 51 -26 89t-86 75l-81 50q-61 37 -89.5 79.5t-28.5 95.5q0 78 56 121.5t157 43.5q41 0 94 -7v-37q-49 7 -94 7q-85 0 -129 -33t-44 -95q0 -43 23.5 -77t76.5 -66l80 -49q67 -41 99 -89t32 -107q0 -90 -61.5 -140.5
t-172.5 -50.5q-60 0 -129 7zM191 -49h41l-47 -147h-33z" />
    <glyph glyph-name="uni0219" unicode="&#x219;" horiz-adv-x="346" 
d="M44 0v37q65 -5 99 -5q135 0 135 97q0 34 -20 60t-67 54l-38 23q-58 35 -84.5 69.5t-26.5 75.5q0 55 42 88t113 33q31 0 78 -5v-35q-41 4 -70 4q-60 0 -92.5 -22t-32.5 -63q0 -31 21.5 -56.5t69.5 -55.5l41 -25q55 -34 79.5 -67t24.5 -77q0 -63 -45.5 -99t-127.5 -36
q-34 0 -99 5zM158 -49h41l-47 -147h-33z" />
    <glyph glyph-name="uni021A" unicode="&#x21a;" horiz-adv-x="470" 
d="M215 692h-200v38h440v-38h-200v-692h-40v692zM218 -49h41l-47 -147h-33z" />
    <glyph glyph-name="uni021B" unicode="&#x21b;" horiz-adv-x="231" 
d="M95 490h-66v37h66v153l38 20v-173h70v-37h-70v-490h-38v490zM97 -49h41l-47 -147h-33z" />
    <glyph glyph-name="uni0237" unicode="&#x237;" horiz-adv-x="194" 
d="M-35 -159h8q56 0 80.5 22.5t24.5 77.5v586h38v-588q0 -69 -33.5 -102t-106.5 -33h-11v37z" />
    <glyph glyph-name="circumflex" unicode="&#x2c6;" horiz-adv-x="594" 
d="M273 769h48l123 -151h-43l-104 120l-105 -120h-42z" />
    <glyph glyph-name="caron" unicode="&#x2c7;" horiz-adv-x="594" 
d="M150 769h43l105 -120l104 120h42l-123 -151h-48z" />
    <glyph glyph-name="breve" unicode="&#x2d8;" horiz-adv-x="590" 
d="M195 646q-40 38 -45 106h36q6 -53 35.5 -80t73.5 -27t73.5 27t35.5 80h36q-5 -68 -45 -106t-100 -38t-100 38z" />
    <glyph glyph-name="dotaccent" unicode="&#x2d9;" horiz-adv-x="338" 
d="M150 769h38v-136h-38v136z" />
    <glyph glyph-name="ring" unicode="&#x2da;" horiz-adv-x="474" 
d="M174.5 627q-24.5 23 -24.5 60t24 59.5t63 22.5t63 -22.5t24 -59.5t-24.5 -60t-62.5 -23t-62.5 23zM200 650q14 -14 37 -14t37 14t14 37t-14 36.5t-37 13.5t-37 -13.5t-14 -36.5t14 -37z" />
    <glyph glyph-name="ogonek" unicode="&#x2db;" horiz-adv-x="440" 
d="M175 -171.5q-25 24.5 -25 65.5q0 88 125 135l13 -29q-100 -39 -100 -103q0 -26 14.5 -41t41.5 -15q18 0 46 7v-36q-27 -8 -50 -8q-40 0 -65 24.5z" />
    <glyph glyph-name="tilde" unicode="&#x2dc;" horiz-adv-x="604" 
d="M333.5 634q-16.5 9 -41.5 27q-20 16 -33 23.5t-29 7.5q-42 0 -45 -62h-35q0 50 24 74.5t58 24.5q22 0 38.5 -9t41.5 -27q20 -16 33 -23.5t29 -7.5q42 0 45 62h35q0 -50 -24 -74.5t-58 -24.5q-22 0 -38.5 9z" />
    <glyph glyph-name="hungarumlaut" unicode="&#x2dd;" horiz-adv-x="578" 
d="M385 769h43l-80 -151h-38zM225 769h43l-80 -151h-38z" />
    <glyph glyph-name="gravecomb" unicode="&#x300;" horiz-adv-x="0" 
d="M148 769h53l134 -151h-47z" />
    <glyph glyph-name="acutecomb" unicode="&#x301;" horiz-adv-x="0" 
d="M399 769h52l-140 -151h-46z" />
    <glyph glyph-name="uni0302" unicode="&#x302;" horiz-adv-x="0" 
d="M276 769h48l123 -151h-43l-104 120l-105 -120h-42z" />
    <glyph glyph-name="tildecomb" unicode="&#x303;" horiz-adv-x="0" 
d="M327.5 634q-16.5 9 -41.5 27q-20 16 -33 23.5t-29 7.5q-42 0 -45 -62h-35q0 50 24 74.5t58 24.5q22 0 38.5 -9t41.5 -27q20 -16 33 -23.5t29 -7.5q42 0 45 62h35q0 -50 -24 -74.5t-58 -24.5q-22 0 -38.5 9z" />
    <glyph glyph-name="uni0304" unicode="&#x304;" horiz-adv-x="0" 
d="M154 699h292v-37h-292v37z" />
    <glyph glyph-name="uni0306" unicode="&#x306;" horiz-adv-x="0" 
d="M200 646q-40 38 -45 106h36q6 -53 35.5 -80t73.5 -27t73.5 27t35.5 80h36q-5 -68 -45 -106t-100 -38t-100 38z" />
    <glyph glyph-name="uni0307" unicode="&#x307;" horiz-adv-x="0" 
d="M281 769h38v-136h-38v136z" />
    <glyph glyph-name="uni0308" unicode="&#x308;" horiz-adv-x="0" 
d="M389 749h38v-116h-38v116zM173 749h38v-116h-38v116z" />
    <glyph glyph-name="uni030A" unicode="&#x30a;" horiz-adv-x="0" 
d="M236.5 627q-24.5 23 -24.5 60t24 59.5t63 22.5t63 -22.5t24 -59.5t-24.5 -60t-62.5 -23t-62.5 23zM262 650q14 -14 37 -14t37 14t14 37t-14 36.5t-37 13.5t-37 -13.5t-14 -36.5t14 -37z" />
    <glyph glyph-name="uni030B" unicode="&#x30b;" horiz-adv-x="0" 
d="M432 769h43l-80 -151h-38zM272 769h43l-80 -151h-38z" />
    <glyph glyph-name="uni030C" unicode="&#x30c;" horiz-adv-x="0" 
d="M153 769h43l105 -120l104 120h42l-123 -151h-48z" />
    <glyph glyph-name="uni0312" unicode="&#x312;" horiz-adv-x="0" 
d="M323 765h33l-39 -147h-41z" />
    <glyph glyph-name="uni0326" unicode="&#x326;" horiz-adv-x="0" 
d="M283 -49h41l-47 -147h-33z" />
    <glyph glyph-name="uni0327" unicode="&#x327;" horiz-adv-x="0" 
d="M210 -196l70 147h45l-78 -147h-37z" />
    <glyph glyph-name="uni0328" unicode="&#x328;" horiz-adv-x="0" 
d="M199 -171.5q-25 24.5 -25 65.5q0 88 125 135l13 -29q-100 -39 -100 -103q0 -26 14.5 -41t41.5 -15q18 0 46 7v-36q-27 -8 -50 -8q-40 0 -65 24.5z" />
    <glyph glyph-name="uni03A9" unicode="&#x3a9;" horiz-adv-x="832" 
d="M53 38h189q-85 66 -132 154t-47 189q0 105 47 187t127.5 127t178.5 45t178.5 -45t127.5 -127t47 -187q0 -101 -47 -189t-132 -154h189v-38h-258v33q96 62 151.5 151.5t55.5 194.5q0 93 -40.5 166.5t-111.5 114.5t-160 41t-160 -41t-111.5 -114.5t-40.5 -166.5
q0 -105 55.5 -194.5t151.5 -151.5v-33h-258v38z" />
    <glyph glyph-name="pi" unicode="&#x3c0;" horiz-adv-x="545" 
d="M409 27q-26 29 -26 87v376h-234v-490h-38v490h-103v37h514v-37h-101v-369q0 -48 16.5 -67t56.5 -19h10v-37h-13q-56 0 -82 29z" />
    <glyph glyph-name="Wgrave" unicode="&#x1e80;" horiz-adv-x="971" 
d="M33 730h42l185 -658l208 658h35l210 -658l183 658h41l-206 -730h-36l-210 658l-208 -658h-36zM334 972h53l134 -151h-47z" />
    <glyph glyph-name="wgrave" unicode="&#x1e81;" horiz-adv-x="774" 
d="M19 527h41l150 -469l162 469h35l160 -469l149 469h40l-172 -527h-35l-160 467l-163 -467h-36zM238 769h53l134 -151h-47z" />
    <glyph glyph-name="Wacute" unicode="&#x1e82;" horiz-adv-x="971" 
d="M33 730h42l185 -658l208 658h35l210 -658l183 658h41l-206 -730h-36l-210 658l-208 -658h-36zM585 972h52l-140 -151h-46z" />
    <glyph glyph-name="wacute" unicode="&#x1e83;" horiz-adv-x="774" 
d="M19 527h41l150 -469l162 469h35l160 -469l149 469h40l-172 -527h-35l-160 467l-163 -467h-36zM489 769h52l-140 -151h-46z" />
    <glyph glyph-name="Wdieresis" unicode="&#x1e84;" horiz-adv-x="971" 
d="M33 730h42l185 -658l208 658h35l210 -658l183 658h41l-206 -730h-36l-210 658l-208 -658h-36zM575 952h38v-116h-38v116zM359 952h38v-116h-38v116z" />
    <glyph glyph-name="wdieresis" unicode="&#x1e85;" horiz-adv-x="774" 
d="M19 527h41l150 -469l162 469h35l160 -469l149 469h40l-172 -527h-35l-160 467l-163 -467h-36zM479 749h38v-116h-38v116zM263 749h38v-116h-38v116z" />
    <glyph glyph-name="uni1E9E" unicode="&#x1e9e;" horiz-adv-x="649" 
d="M276 2v37q56 -9 90 -9q91 0 143 50t52 137q0 84 -52.5 128.5t-150.5 44.5h-41v34l184 268h-357v-692h-40v730h444v-34l-183 -268q113 -3 175 -57.5t62 -150.5q0 -104 -63 -165.5t-170 -61.5q-39 0 -93 9z" />
    <glyph glyph-name="Ygrave" unicode="&#x1ef2;" horiz-adv-x="540" 
d="M250 290l-219 440h46l194 -396l195 396h44l-220 -440v-290h-40v290zM120 972h53l134 -151h-47z" />
    <glyph glyph-name="ygrave" unicode="&#x1ef3;" horiz-adv-x="486" 
d="M233 38l-223 489h43l199 -445l181 445h42l-299 -723h-42zM91 769h53l134 -151h-47z" />
    <glyph glyph-name="endash" unicode="&#x2013;" horiz-adv-x="504" 
d="M64 351h376v-37h-376v37z" />
    <glyph glyph-name="emdash" unicode="&#x2014;" horiz-adv-x="804" 
d="M64 351h676v-37h-676v37z" />
    <glyph glyph-name="quoteleft" unicode="&#x2018;" horiz-adv-x="197" 
d="M118 730h33l-50 -255h-48z" />
    <glyph glyph-name="quoteright" unicode="&#x2019;" horiz-adv-x="193" 
d="M106 730h48l-65 -255h-33z" />
    <glyph glyph-name="quotesinglbase" unicode="&#x201a;" horiz-adv-x="201" 
d="M83 104h48l-65 -255h-33z" />
    <glyph glyph-name="quotedblleft" unicode="&#x201c;" horiz-adv-x="337" 
d="M118 730h33l-50 -255h-48zM258 730h33l-50 -255h-48z" />
    <glyph glyph-name="quotedblright" unicode="&#x201d;" horiz-adv-x="333" 
d="M106 730h48l-65 -255h-33zM246 730h48l-65 -255h-33z" />
    <glyph glyph-name="quotedblbase" unicode="&#x201e;" horiz-adv-x="341" 
d="M83 104h48l-65 -255h-33zM223 104h48l-65 -255h-33z" />
    <glyph glyph-name="dagger" unicode="&#x2020;" horiz-adv-x="438" 
d="M200 574h-157v37h157v158h38v-158h157v-37h-157v-397h-38v397z" />
    <glyph glyph-name="daggerdbl" unicode="&#x2021;" horiz-adv-x="474" 
d="M218 335h-157v37h157v202h-157v37h157v158h38v-158h157v-37h-157v-202h157v-37h-157v-158h-38v158z" />
    <glyph glyph-name="bullet" unicode="&#x2022;" horiz-adv-x="318" 
d="M102 278.5q-23 22.5 -23 56.5t23 56.5t57 22.5t57 -22.5t23 -56.5t-23 -56.5t-57 -22.5t-57 22.5z" />
    <glyph glyph-name="ellipsis" unicode="&#x2026;" horiz-adv-x="564" 
d="M70 94h48v-94h-48v94zM258 94h48v-94h-48v94zM446 94h48v-94h-48v94z" />
    <glyph glyph-name="perthousand" unicode="&#x2030;" horiz-adv-x="1070" 
d="M630 730h47l-563 -730h-47zM86 691.5q46 45.5 117 45.5t117 -45.5t46 -117.5t-46 -117.5t-117 -45.5t-117 45.5t-46 117.5t46 117.5zM113 482.5q34 -34.5 90 -34.5t90 34.5t34 91.5t-34 91.5t-90 34.5t-90 -34.5t-34 -91.5t34 -91.5zM422 273.5q44 45.5 112 45.5
t112 -45.5t44 -117.5t-44 -117.5t-112 -45.5t-112 45.5t-44 117.5t44 117.5zM449.5 64.5q32.5 -34.5 84.5 -34.5t84.5 34.5t32.5 91.5t-32.5 91.5t-84.5 34.5t-84.5 -34.5t-32.5 -91.5t32.5 -91.5zM768 273.5q44 45.5 112 45.5t112 -45.5t44 -117.5t-44 -117.5t-112 -45.5
t-112 45.5t-44 117.5t44 117.5zM795.5 64.5q32.5 -34.5 84.5 -34.5t84.5 34.5t32.5 91.5t-32.5 91.5t-84.5 34.5t-84.5 -34.5t-32.5 -91.5t32.5 -91.5z" />
    <glyph glyph-name="guilsinglleft" unicode="&#x2039;" horiz-adv-x="324" 
d="M58 273l151 184h43l-146 -183l148 -186h-45z" />
    <glyph glyph-name="guilsinglright" unicode="&#x203a;" horiz-adv-x="325" 
d="M218 271l-148 186h45l151 -185l-151 -184h-43z" />
    <glyph glyph-name="fraction" unicode="&#x2044;" horiz-adv-x="200" 
d="M358 730h47l-563 -730h-47z" />
    <glyph glyph-name="uni2074" unicode="&#x2074;" horiz-adv-x="360" 
d="M241 406h-219v27l220 337h33v-331h53v-33h-53v-75h-34v75zM241 439v270l-178 -270h178z" />
    <glyph glyph-name="Euro" unicode="&#x20ac;" horiz-adv-x="651" 
d="M340.5 30q-75.5 37 -125.5 104.5t-65 156.5h-95v38h90q-1 12 -1 36q0 29 3 56h-92v38h99q19 84 69 147t123 97t160 34q43 0 91 -8v-37q-48 8 -88 8q-118 0 -202 -66t-111 -175h309l-11 -38h-305q-4 -24 -4 -56q0 -12 2 -36h298l-11 -38h-282q14 -77 57.5 -136.5t110 -92
t148.5 -32.5q41 0 89 8v-37q-48 -8 -92 -8q-89 0 -164.5 37z" />
    <glyph glyph-name="uni20B9" unicode="&#x20b9;" horiz-adv-x="544" 
d="M75 345v25h139q83 0 127.5 37t49.5 105h-320v38h320q-5 69 -49.5 105.5t-127.5 36.5h-143v38h425v-36h-149q38 -20 59.5 -57t24.5 -87h65v-38h-65q-7 -82 -62.5 -130.5t-150.5 -48.5h-77l341 -333h-56z" />
    <glyph glyph-name="uni20BA" unicode="&#x20ba;" horiz-adv-x="523" 
d="M145 337l-94 -43v39l94 43v72l-94 -43v39l94 43v243h40v-225l196 89v-39l-196 -89v-72l196 89v-39l-196 -89v-317h62q101 0 147.5 48t46.5 153v47h40v-51q0 -116 -59 -175.5t-175 -59.5h-102v337z" />
    <glyph glyph-name="uni20BD" unicode="&#x20bd;" horiz-adv-x="565" 
d="M59 232h70v102h-70v38h70v358h165q103 0 162.5 -53t59.5 -145t-59.5 -145t-162.5 -53h-125v-102h225v-38h-225v-194h-40v194h-70v38zM290 372q89 0 137 41.5t48 118.5t-48 118.5t-137 41.5h-121v-320h121z" />
    <glyph glyph-name="uni20BF" unicode="&#x20bf;" horiz-adv-x="579" 
d="M108 720h90v57h40v-57h35q24 0 45 -3v60h40v-67q63 -17 98.5 -58.5t35.5 -103.5q0 -59 -31 -102.5t-88 -64.5q70 -17 107.5 -62.5t37.5 -116.5q0 -76 -42 -124t-118 -62v-77h-40v72l-25 -1h-55v-71h-40v71h-90v710zM289 48q90 0 139 38t49 117q0 156 -198 156h-131v-311
h141zM269 397q85 0 133.5 39.5t48.5 107.5q0 66 -47.5 102t-134.5 36h-121v-285h121z" />
    <glyph glyph-name="trademark" unicode="&#x2122;" horiz-adv-x="814" 
d="M359 730h60l124 -302l124 302h58v-356h-38v311l-128 -311h-34l-128 310v-310h-38v356zM36 730h258v-36h-110v-320h-38v320h-110v36z" />
    <glyph glyph-name="arrowleft" unicode="&#x2190;" horiz-adv-x="833" 
d="M112 351h674v-37h-674l282 -277h-55l-283 283v25l283 283h55z" />
    <glyph glyph-name="arrowup" unicode="&#x2191;" horiz-adv-x="680" 
d="M44 447l283 283h26l283 -283v-55l-277 282v-674h-38v674l-277 -282v55z" />
    <glyph glyph-name="arrowright" unicode="&#x2192;" horiz-adv-x="833" 
d="M721 314h-674v37h674l-282 277h55l283 -283v-25l-283 -283h-55z" />
    <glyph glyph-name="arrowdown" unicode="&#x2193;" horiz-adv-x="681" 
d="M636 283l-283 -283h-26l-283 283v55l277 -282v674h38v-674l277 282v-55z" />
    <glyph glyph-name="uni2196" unicode="&#x2196;" horiz-adv-x="677" 
d="M560 692l-396 4l477 -478l-26 -26l-477 478l4 -396l-39 39v400l18 17h400z" />
    <glyph glyph-name="uni2197" unicode="&#x2197;" horiz-adv-x="677" 
d="M556 730l18 -17v-400l-39 -39l4 396l-477 -478l-26 26l477 478l-396 -4l39 38h400z" />
    <glyph glyph-name="uni2198" unicode="&#x2198;" horiz-adv-x="668" 
d="M109 38l396 -4l-477 478l26 26l477 -478l-4 396l39 -39v-400l-18 -17h-400z" />
    <glyph glyph-name="uni2199" unicode="&#x2199;" horiz-adv-x="668" 
d="M120 0l-18 17v400l39 39l-4 -396l477 478l26 -26l-477 -478l396 4l-39 -38h-400z" />
    <glyph glyph-name="partialdiff" unicode="&#x2202;" horiz-adv-x="613" 
d="M138.5 19.5q-51.5 29.5 -80 82.5t-28.5 120q0 83 40 153t109 111t153 41q98 0 164 -59q-47 94 -117 159t-172 110l19 35q156 -70 246 -188.5t90 -258.5q0 -95 -40 -171.5t-110 -120t-155 -43.5q-67 0 -118.5 29.5zM93.5 123.5q24.5 -45.5 68.5 -70.5t101 -25
q71 0 130.5 39t94 102.5t34.5 133.5q0 86 -52.5 136t-142.5 50q-73 0 -132 -35.5t-92.5 -95t-33.5 -130.5q0 -59 24.5 -104.5z" />
    <glyph glyph-name="uni2206" unicode="&#x2206;" horiz-adv-x="606" 
d="M284 730h36l256 -730h-546zM520 38l-218 627l-217 -627h435z" />
    <glyph glyph-name="product" unicode="&#x220f;" horiz-adv-x="626" 
d="M104 730h418v-881h-40v843h-338v-843h-40v881z" />
    <glyph glyph-name="summation" unicode="&#x2211;" horiz-adv-x="520" 
d="M34 -141l243 431l-243 430v10h449v-38h-390l227 -402l-227 -403h390v-38h-449v10z" />
    <glyph glyph-name="minus" unicode="&#x2212;" horiz-adv-x="540" 
d="M74 361h392v-37h-392v37z" />
    <glyph glyph-name="radical" unicode="&#x221a;" horiz-adv-x="578" 
d="M-1 276h44l143 -365l257 858h160v-38h-130l-265 -882h-38z" />
    <glyph glyph-name="infinity" unicode="&#x221e;" horiz-adv-x="785" 
d="M493.5 209q-32.5 19 -62.5 59l-38 52l-39 -52q-30 -40 -62.5 -59t-73.5 -19q-42 0 -77 20.5t-55 57t-20 83.5t20 83.5t55 57t77 20.5q41 0 73.5 -19t62.5 -59l39 -52l38 52q30 40 62.5 59t73.5 19q42 0 77 -20.5t55 -57t20 -83.5t-20 -83.5t-55 -57t-77 -20.5
q-41 0 -73.5 19zM136.5 260.5q31.5 -33.5 82.5 -33.5q59 0 103 59l48 65l-48 65q-44 59 -103 59q-51 0 -82.5 -33.5t-31.5 -90.5t31.5 -90.5zM463 286q44 -59 103 -59q51 0 82.5 33.5t31.5 90.5t-31.5 90.5t-82.5 33.5q-59 0 -103 -59l-48 -65z" />
    <glyph glyph-name="integral" unicode="&#x222b;" horiz-adv-x="291" 
d="M-7 -113h8q55 0 77 21.5t27 78.5l50 658q5 62 35.5 93t95.5 31h8v-38h-6q-48 0 -68.5 -20.5t-24.5 -69.5l-50 -658q-5 -70 -37 -102t-104 -32h-11v38z" />
    <glyph glyph-name="approxequal" unicode="&#x2248;" horiz-adv-x="540" 
d="M313 383.5q-22 5.5 -50 16.5q-25 10 -43 15t-41 5q-56 0 -104 -31v39q49 29 104 29q28 0 50 -5.5t48 -16.5q27 -10 45 -15t41 -5q56 0 104 31v-39q-47 -29 -103 -29q-29 0 -51 5.5zM75 284q49 29 104 29q28 0 50 -5.5t48 -16.5q27 -10 45 -15t41 -5q56 0 104 31v-39
q-47 -29 -103 -29q-29 0 -51 5.5t-50 16.5q-25 10 -43 15t-41 5q-56 0 -104 -31v39z" />
    <glyph glyph-name="notequal" unicode="&#x2260;" horiz-adv-x="540" 
d="M77 441h224l52 108h40l-52 -108h128v-37h-146l-60 -123h206v-37h-224l-52 -107h-40l52 107h-128v37h146l60 123h-206v37z" />
    <glyph glyph-name="lessequal" unicode="&#x2264;" horiz-adv-x="540" 
d="M68 358v45l400 147v-40l-360 -129l360 -130v-40zM76 141h392v-37h-392v37z" />
    <glyph glyph-name="greaterequal" unicode="&#x2265;" horiz-adv-x="540" 
d="M72 251l360 129l-360 130v40l400 -147v-45l-400 -147v40zM72 141h392v-37h-392v37z" />
    <glyph glyph-name="lozenge" unicode="&#x25ca;" horiz-adv-x="515" 
d="M57 367l177 366h47l177 -366l-177 -367h-47zM257 33l160 334l-159 333l-160 -333z" />
    <glyph glyph-name="zero.dnom" horiz-adv-x="390" 
d="M83 52.5q-40 59.5 -40 166.5t40 166.5t112 59.5t112 -59.5t40 -166.5t-40 -166.5t-112 -59.5t-112 59.5zM110.5 78.5q29.5 -49.5 84.5 -49.5t85 49.5t30 140.5t-30 141t-85 50q-54 0 -84 -50t-30 -141t29.5 -140.5z" />
    <glyph glyph-name="one.dnom" horiz-adv-x="190" 
d="M83 404h-52v35h89v-439h-37v404z" />
    <glyph glyph-name="two.dnom" horiz-adv-x="341" 
d="M35 27l142 152q42 45 61.5 75t19.5 68q0 40 -23.5 63.5t-63.5 23.5q-38 0 -65 -22t-37 -65l-34 10q13 54 49.5 82t86.5 28q56 0 90 -33t34 -86q0 -45 -22.5 -80.5t-70.5 -86.5l-113 -121h216v-35h-270v27z" />
    <glyph glyph-name="three.dnom" horiz-adv-x="357" 
d="M81.5 28.5q-39.5 31.5 -48.5 89.5l36 10q6 -45 36 -71t73 -26q45 0 73.5 26t28.5 68q0 41 -28 66t-75 25h-35v33h36q36 0 60.5 23t24.5 58t-24.5 57t-62.5 22q-37 0 -64 -22t-37 -63l-34 9q13 52 48.5 81t86.5 29q55 0 89 -31t34 -78q0 -34 -18.5 -60t-51.5 -39
q41 -11 64.5 -40t23.5 -71q0 -55 -39 -91t-101 -36q-56 0 -95.5 31.5z" />
    <glyph glyph-name="four.dnom" horiz-adv-x="360" 
d="M241 75h-219v27l220 337h33v-331h53v-33h-53v-75h-34v75zM241 108v270l-178 -270h178z" />
    <glyph glyph-name="five.dnom" horiz-adv-x="357" 
d="M73 30q-38 33 -46 89l36 8q6 -45 34.5 -70.5t73.5 -25.5q47 0 75.5 28.5t28.5 76.5q0 47 -27 75.5t-75 28.5q-53 0 -89 -39l-29 8l38 230h212v-34h-182l-26 -155q37 23 82 23q61 0 97.5 -38t36.5 -99q0 -63 -40 -101t-103 -38q-59 0 -97 33z" />
    <glyph glyph-name="six.dnom" horiz-adv-x="359" 
d="M78 36.5q-42 40.5 -42 100.5q0 33 12.5 64t35.5 67l110 171h45q-54 -75 -114 -169q31 14 66 14q62 0 102 -40t40 -103t-41.5 -104t-106.5 -41t-107 40.5zM104 61.5q31 -30.5 81 -30.5q49 0 80 31t31 79q0 49 -30.5 80t-79.5 31q-50 0 -81.5 -32.5t-31.5 -80.5
q0 -47 31 -77.5z" />
    <glyph glyph-name="seven.dnom" horiz-adv-x="312" 
d="M248 404h-220v35h262v-29l-185 -410h-40z" />
    <glyph glyph-name="eight.dnom" horiz-adv-x="373" 
d="M80 31q-40 35 -40 90q0 41 24 71.5t64 43.5q-32 13 -50 38.5t-18 59.5q0 49 34.5 79t92.5 30q57 0 92 -30.5t35 -78.5q0 -34 -18.5 -60t-50.5 -39q41 -12 64.5 -42t23.5 -72q0 -55 -39.5 -90t-106.5 -35t-107 35zM107 55.5q29 -25.5 80 -25.5t80 25.5t29 66.5
q0 43 -29 68.5t-80 25.5t-80 -25.5t-29 -68.5q0 -41 29 -66.5zM121 272q25 -23 66 -23t66 23t25 59q0 35 -24.5 56.5t-66.5 21.5t-66.5 -21.5t-24.5 -56.5q0 -36 25 -59z" />
    <glyph glyph-name="nine.dnom" horiz-adv-x="360" 
d="M235 169q-31 -14 -66 -14q-62 0 -102 40t-40 103t41.5 104t106.5 41t107 -40.5t42 -100.5q0 -33 -12.5 -64t-35.5 -67l-110 -171h-45q54 75 114 169zM94.5 218q30.5 -31 79.5 -31q50 0 81.5 32.5t31.5 80.5q0 47 -31 77.5t-81 30.5q-49 0 -80 -31t-31 -79q0 -49 30.5 -80
z" />
    <glyph glyph-name="zero.numr" horiz-adv-x="390" 
d="M83 343.5q-40 59.5 -40 166.5t40 166.5t112 59.5t112 -59.5t40 -166.5t-40 -166.5t-112 -59.5t-112 59.5zM110.5 369.5q29.5 -49.5 84.5 -49.5t85 49.5t30 140.5t-30 141t-85 50q-54 0 -84 -50t-30 -141t29.5 -140.5z" />
    <glyph glyph-name="one.numr" horiz-adv-x="190" 
d="M83 695h-52v35h89v-439h-37v404z" />
    <glyph glyph-name="two.numr" horiz-adv-x="341" 
d="M35 318l142 152q42 45 61.5 75t19.5 68q0 40 -23.5 63.5t-63.5 23.5q-38 0 -65 -22t-37 -65l-34 10q13 54 49.5 82t86.5 28q56 0 90 -33t34 -86q0 -45 -22.5 -80.5t-70.5 -86.5l-113 -121h216v-35h-270v27z" />
    <glyph glyph-name="three.numr" horiz-adv-x="357" 
d="M81.5 319.5q-39.5 31.5 -48.5 89.5l36 10q6 -45 36 -71t73 -26q45 0 73.5 26t28.5 68q0 41 -28 66t-75 25h-35v33h36q36 0 60.5 23t24.5 58t-24.5 57t-62.5 22q-37 0 -64 -22t-37 -63l-34 9q13 52 48.5 81t86.5 29q55 0 89 -31t34 -78q0 -34 -18.5 -60t-51.5 -39
q41 -11 64.5 -40t23.5 -71q0 -55 -39 -91t-101 -36q-56 0 -95.5 31.5z" />
    <glyph glyph-name="four.numr" horiz-adv-x="360" 
d="M241 366h-219v27l220 337h33v-331h53v-33h-53v-75h-34v75zM241 399v270l-178 -270h178z" />
    <glyph glyph-name="five.numr" horiz-adv-x="357" 
d="M73 321q-38 33 -46 89l36 8q6 -45 34.5 -70.5t73.5 -25.5q47 0 75.5 28.5t28.5 76.5q0 47 -27 75.5t-75 28.5q-53 0 -89 -39l-29 8l38 230h212v-34h-182l-26 -155q37 23 82 23q61 0 97.5 -38t36.5 -99q0 -63 -40 -101t-103 -38q-59 0 -97 33z" />
    <glyph glyph-name="six.numr" horiz-adv-x="359" 
d="M78 327.5q-42 40.5 -42 100.5q0 33 12.5 64t35.5 67l110 171h45q-54 -75 -114 -169q31 14 66 14q62 0 102 -40t40 -103t-41.5 -104t-106.5 -41t-107 40.5zM104 352.5q31 -30.5 81 -30.5q49 0 80 31t31 79q0 49 -30.5 80t-79.5 31q-50 0 -81.5 -32.5t-31.5 -80.5
q0 -47 31 -77.5z" />
    <glyph glyph-name="seven.numr" horiz-adv-x="312" 
d="M248 695h-220v35h262v-29l-185 -410h-40z" />
    <glyph glyph-name="eight.numr" horiz-adv-x="373" 
d="M80 322q-40 35 -40 90q0 41 24 71.5t64 43.5q-32 13 -50 38.5t-18 59.5q0 49 34.5 79t92.5 30q57 0 92 -30.5t35 -78.5q0 -34 -18.5 -60t-50.5 -39q41 -12 64.5 -42t23.5 -72q0 -55 -39.5 -90t-106.5 -35t-107 35zM107 346.5q29 -25.5 80 -25.5t80 25.5t29 66.5
q0 43 -29 68.5t-80 25.5t-80 -25.5t-29 -68.5q0 -41 29 -66.5zM121 563q25 -23 66 -23t66 23t25 59q0 35 -24.5 56.5t-66.5 21.5t-66.5 -21.5t-24.5 -56.5q0 -36 25 -59z" />
    <glyph glyph-name="nine.numr" horiz-adv-x="360" 
d="M235 460q-31 -14 -66 -14q-62 0 -102 40t-40 103t41.5 104t106.5 41t107 -40.5t42 -100.5q0 -33 -12.5 -64t-35.5 -67l-110 -171h-45q54 75 114 169zM94.5 509q30.5 -31 79.5 -31q50 0 81.5 32.5t31.5 80.5q0 47 -31 77.5t-81 30.5q-49 0 -80 -31t-31 -79q0 -49 30.5 -80
z" />
    <glyph glyph-name="caron.alt" horiz-adv-x="600" 
d="M391 769h41l-24 -195h-33z" />
    </font>
</defs>
</svg>
