<?xml version="1.0" standalone="no"?>
<!DOCTYPE svg PUBLIC "-//W3C//DTD SVG 1.1//EN" "http://www.w3.org/Graphics/SVG/1.1/DTD/svg11.dtd" >
<svg xmlns="http://www.w3.org/2000/svg" xmlns:xlink="http://www.w3.org/1999/xlink" version="1.1">
<metadata>
Created by FontForge 20170731 at Mon May 17 18:39:33 2021
 By Aleksey,,,
Copyright (c) 2020 Miles Newlyn. All rights reserved.
</metadata>
<defs>
<font id="NewOrder-Medium" horiz-adv-x="638" >
  <font-face 
    font-family="New Order Medium"
    font-weight="500"
    font-stretch="normal"
    units-per-em="1000"
    panose-1="0 0 0 0 0 0 0 0 0 0"
    ascent="800"
    descent="-200"
    x-height="528"
    cap-height="733"
    bbox="-190 -198 1111 1013"
    underline-thickness="50"
    underline-position="-175"
    unicode-range="U+0020-FB02"
  />
<missing-glyph horiz-adv-x="796" 
d="M90 771h616v-968h-616v968zM565 679h-379v-702zM610 -105v702l-379 -702h379z" />
    <glyph glyph-name="fi" unicode="fi" horiz-adv-x="513" 
d="M134.5 731q40.5 40 116.5 40h27v-86h-14q-40 0 -59 -18t-19 -57v-82h71v-84h-71v-444h-92v444h-63v84h63v90q0 73 40.5 113zM354 528h92v-528h-92v528zM354 771h92v-148h-92v148z" />
    <glyph glyph-name="fl" unicode="fl" horiz-adv-x="513" 
d="M134.5 731q40.5 40 116.5 40h27v-86h-14q-40 0 -59 -18t-19 -57v-82h71v-84h-71v-444h-92v444h-63v84h63v90q0 73 40.5 113zM354 771h92v-771h-92v771z" />
    <glyph glyph-name=".notdef" horiz-adv-x="796" 
d="M90 771h616v-968h-616v968zM565 679h-379v-702zM610 -105v702l-379 -702h379z" />
    <glyph glyph-name=".null" horiz-adv-x="0" 
 />
    <glyph glyph-name="nonmarkingreturn" horiz-adv-x="333" 
 />
    <glyph glyph-name="space" unicode=" " horiz-adv-x="250" 
 />
    <glyph glyph-name="exclam" unicode="!" horiz-adv-x="253" 
d="M79 119h95v-119h-95v119zM173 733l-5 -513h-83l-4 513h92z" />
    <glyph glyph-name="quotedbl" unicode="&#x22;" horiz-adv-x="373" 
d="M59 733h91l-10 -277h-67zM314 733l-14 -277h-67l-11 277h92z" />
    <glyph glyph-name="numbersign" unicode="#" horiz-adv-x="641" 
d="M132 205h-90v80h106l35 168h-101v80h118l41 200h82l-41 -200h146l41 200h83l-41 -200h87v-80h-104l-35 -168h99v-80h-115l-43 -205h-83l43 205h-146l-43 -205h-82zM376 285l35 168h-146l-35 -168h146z" />
    <glyph glyph-name="dollar" unicode="$" horiz-adv-x="558" 
d="M251 16q-77 8 -132 54.5t-74 119.5l79 35q13 -53 45.5 -86t81.5 -42v250l-54 24q-64 28 -97.5 71t-33.5 100q0 72 50.5 121.5t134.5 56.5v61h57v-62q68 -7 116.5 -42.5t73.5 -96.5l-77 -40q-34 84 -113 97v-222l48 -20q73 -30 112 -79t39 -112q0 -51 -25 -92t-70 -67
t-104 -30v-66h-57v67zM238 445l13 -6v199q-44 -5 -69 -30.5t-25 -62.5q0 -64 81 -100zM386 128.5q29 28.5 29 71.5q0 76 -98 118l-9 4v-227q49 5 78 33.5z" />
    <glyph glyph-name="percent" unicode="%" horiz-adv-x="801" 
d="M611 730h101l-523 -730h-101zM84 694q48 47 124 47q77 0 125 -47t48 -123t-48 -123t-125 -47q-76 0 -124 47t-48 123t48 123zM141.5 503.5q25.5 -25.5 66.5 -25.5t66.5 25.5t25.5 67.5t-25.5 67.5t-66.5 25.5t-66.5 -25.5t-25.5 -67.5t25.5 -67.5zM469 285q48 47 124 47
q77 0 125 -47t48 -123t-48 -123t-125 -47q-76 0 -124 47t-48 123t48 123zM526.5 94.5q25.5 -25.5 66.5 -25.5t66.5 25.5t25.5 67.5t-25.5 67.5t-66.5 25.5t-66.5 -25.5t-25.5 -67.5t25.5 -67.5z" />
    <glyph glyph-name="ampersand" unicode="&#x26;" horiz-adv-x="685" 
d="M147.5 19.5q-50.5 26.5 -78.5 75t-28 111.5q0 78 43 133t117 80q-29 42 -41.5 76t-12.5 69q0 83 58 130t163 47q38 0 102 -8v-85q-57 9 -95 9q-68 0 -101 -25t-33 -71q0 -30 15 -59.5t49 -70.5l179 -220q56 80 94 204l81 -36q-47 -138 -120 -235l117 -144h-120l-61 76
q-43 -40 -96.5 -61.5t-113.5 -21.5q-67 0 -117.5 26.5zM172.5 114.5q38.5 -36.5 100.5 -36.5q39 0 78 15.5t72 46.5l-171 212q-55 -16 -86.5 -51.5t-31.5 -89.5q0 -60 38.5 -96.5z" />
    <glyph glyph-name="quotesingle" unicode="'" horiz-adv-x="217" 
d="M59 733h99l-14 -277h-71z" />
    <glyph glyph-name="parenleft" unicode="(" horiz-adv-x="300" 
d="M81.5 64.5q-35.5 116.5 -35.5 244.5q0 260 141 462h100q-145 -212 -145 -462q0 -249 145 -461h-100q-70 100 -105.5 216.5z" />
    <glyph glyph-name="parenright" unicode=")" horiz-adv-x="300" 
d="M159 309q0 248 -146 462h101q140 -203 140 -462q0 -128 -35 -244.5t-105 -216.5h-101q146 214 146 461z" />
    <glyph glyph-name="asterisk" unicode="*" horiz-adv-x="499" 
d="M197 533l-144 40l25 74l139 -52l-7 149h79l-7 -149l139 52l25 -74l-144 -40l93 -116l-64 -46l-81 124l-82 -124l-64 46z" />
    <glyph glyph-name="plus" unicode="+" horiz-adv-x="540" 
d="M224 299h-159v87h159v170h92v-170h159v-87h-159v-169h-92v169z" />
    <glyph glyph-name="comma" unicode="," horiz-adv-x="234" 
d="M75 125h101l-77 -277h-69z" />
    <glyph glyph-name="hyphen" unicode="-" horiz-adv-x="380" 
d="M61 372h257v-87h-257v87z" />
    <glyph glyph-name="period" unicode="." horiz-adv-x="222" 
d="M63 119h96v-119h-96v119z" />
    <glyph glyph-name="slash" unicode="/" horiz-adv-x="454" 
d="M331 771h95l-303 -923h-95z" />
    <glyph glyph-name="zero" unicode="0" horiz-adv-x="631" 
d="M124 86.5q-68 98.5 -68 279.5t68 280t191 99t191.5 -99t68.5 -280t-68 -279.5t-192 -98.5q-123 0 -191 98.5zM196.5 154q41.5 -74 118.5 -74t119 74t42 212t-42 212t-119 74t-118.5 -74t-41.5 -212t41.5 -212z" />
    <glyph glyph-name="one" unicode="1" horiz-adv-x="296" 
d="M109 641h-64v92h161v-733h-97v641z" />
    <glyph glyph-name="two" unicode="2" horiz-adv-x="542" 
d="M181 90h312v-90h-447v71l226 268q40 48 60 74.5t35.5 59.5t15.5 65q0 46 -31.5 79t-82.5 33t-87.5 -32.5t-49.5 -94.5l-88 24q19 93 79.5 143.5t148.5 50.5q62 0 109.5 -26t73.5 -70.5t26 -99.5q0 -48 -20 -93t-46 -79t-79 -97z" />
    <glyph glyph-name="three" unicode="3" horiz-adv-x="580" 
d="M124.5 47.5q-67.5 53.5 -83.5 152.5l91 26q10 -68 52.5 -106t103.5 -38q64 0 103 36t39 95q0 58 -38 93.5t-103 35.5h-55v84h40q60 0 95.5 32t35.5 84q0 49 -34 80t-88 31q-53 0 -90 -33.5t-51 -94.5l-88 22q21 92 82 142.5t147 50.5q65 0 114 -24t75.5 -67t26.5 -97
t-27 -96.5t-74 -64.5q61 -19 95.5 -68t34.5 -114q0 -62 -30.5 -111t-85 -76.5t-125.5 -27.5q-95 0 -162.5 53.5z" />
    <glyph glyph-name="four" unicode="4" horiz-adv-x="570" 
d="M360 117h-336v70l334 546h93v-532h78v-84h-78v-117h-91v117zM360 201v377l-230 -377h230z" />
    <glyph glyph-name="five" unicode="5" horiz-adv-x="570" 
d="M112.5 49q-65.5 55 -79.5 150l92 21q9 -65 49 -101.5t101 -36.5q65 0 105 40t40 109q0 67 -38 107t-104 40q-73 0 -123 -57l-78 21l58 391h367v-88h-286l-34 -211q55 28 116 28q66 0 116 -29t77.5 -80.5t27.5 -119.5q0 -71 -30.5 -125.5t-86 -84t-126.5 -29.5
q-98 0 -163.5 55z" />
    <glyph glyph-name="six" unicode="6" horiz-adv-x="580" 
d="M167 25q-57 31 -89 86t-32 125q0 56 20 108.5t60 117.5l166 271h112q-97 -142 -172 -266q39 13 84 13q67 0 120 -30.5t83 -84.5t30 -123q0 -72 -32.5 -128.5t-90 -88t-130.5 -31.5q-72 0 -129 31zM187 125.5q43 -43.5 111 -43.5t111 44t43 114q0 71 -43 114.5t-110 43.5
q-68 0 -111.5 -45.5t-43.5 -115.5q0 -68 43 -111.5z" />
    <glyph glyph-name="seven" unicode="7" horiz-adv-x="487" 
d="M354 641h-332v92h443v-72l-285 -661h-105z" />
    <glyph glyph-name="eight" unicode="8" horiz-adv-x="603" 
d="M169 20.5q-57 27.5 -87.5 76.5t-30.5 112q0 67 34.5 115t94.5 69q-47 21 -73 63t-26 96q0 56 27.5 98.5t77.5 66.5t116 24t116 -24t77.5 -66.5t27.5 -98.5q0 -54 -26 -96t-73 -63q60 -21 94 -69.5t34 -114.5q0 -63 -30.5 -112t-87 -76.5t-132.5 -27.5t-133 27.5z
M191.5 117.5q40.5 -36.5 110.5 -36.5t110 36t40 96t-40.5 95.5t-109.5 35.5q-70 0 -110.5 -35.5t-40.5 -95.5q0 -59 40.5 -95.5zM210 459q35 -33 92 -33q56 0 91.5 33t35.5 83t-35 80.5t-92 30.5q-58 0 -92.5 -30.5t-34.5 -80.5t35 -83z" />
    <glyph glyph-name="nine" unicode="9" horiz-adv-x="580" 
d="M413 708q57 -31 89 -86t32 -125q0 -56 -20 -108.5t-60 -116.5l-166 -272h-112q97 142 172 266q-39 -13 -84 -13q-67 0 -120 30.5t-83 84.5t-30 123q0 72 32.5 128.5t90 88t130.5 31.5q72 0 129 -31zM171 378.5q43 -43.5 110 -43.5q68 0 111.5 45.5t43.5 115.5
q0 68 -43 111.5t-111 43.5t-111 -44t-43 -114q0 -71 43 -114.5z" />
    <glyph glyph-name="colon" unicode=":" horiz-adv-x="225" 
d="M65 528h95v-119h-95v119zM65 119h95v-119h-95v119z" />
    <glyph glyph-name="semicolon" unicode=";" horiz-adv-x="264" 
d="M92 125h100l-76 -277h-70zM91 528h96v-119h-96v119z" />
    <glyph glyph-name="less" unicode="&#x3c;" horiz-adv-x="540" 
d="M59 271v112l412 172v-89l-335 -138l335 -139v-90z" />
    <glyph glyph-name="equal" unicode="=" horiz-adv-x="540" 
d="M65 474h410v-80h-410v80zM65 291h410v-79h-410v79z" />
    <glyph glyph-name="greater" unicode="&#x3e;" horiz-adv-x="540" 
d="M69 189l335 138l-335 139v89l412 -172v-112l-412 -172v90z" />
    <glyph glyph-name="question" unicode="?" horiz-adv-x="521" 
d="M225.5 317q14.5 30 45.5 64l53 55q22 24 33.5 47t11.5 53q0 49 -31 81.5t-83 32.5q-51 0 -87.5 -32.5t-49.5 -94.5l-88 24q19 93 79.5 143.5t148.5 50.5q62 0 109.5 -25.5t73 -70.5t25.5 -100q0 -53 -21 -93t-58 -76l-51 -50q-23 -21 -31.5 -40t-8.5 -44v-22h-85v27
q0 40 14.5 70zM206 119h95v-119h-95v119z" />
    <glyph glyph-name="at" unicode="@" horiz-adv-x="841" 
d="M227.5 -65q-87.5 49 -136.5 135.5t-49 193.5q0 108 49.5 194.5t136.5 135.5t195 49t192 -47t130.5 -132t46.5 -194q0 -100 -36.5 -150.5t-101.5 -50.5q-41 0 -67.5 19t-35.5 54q-21 -35 -59.5 -54.5t-84.5 -19.5q-53 0 -96 25.5t-68.5 70.5t-25.5 101t25 101.5t68.5 71
t96.5 25.5q42 0 78 -17t56 -47v52h63v-245q0 -34 14 -51.5t38 -17.5q65 0 65 126q0 92 -37.5 161t-105 107t-155.5 38q-86 0 -155.5 -39.5t-109 -109t-39.5 -156.5t39.5 -157t110 -109.5t160.5 -39.5q50 0 112 13v-72q-70 -13 -116 -13q-110 0 -197.5 49zM328 175
q34 -35 87 -35t85 34t32 91q0 58 -32 92.5t-85 34.5t-87 -35.5t-34 -91.5q0 -55 34 -90z" />
    <glyph glyph-name="A" unicode="A" horiz-adv-x="632" 
d="M269 733h93l253 -733h-101l-51 154h-294l-51 -154h-100zM434 239l-119 359l-118 -359h237z" />
    <glyph glyph-name="B" unicode="B" horiz-adv-x="602" 
d="M90 733h199q109 0 172 -50t63 -137q0 -56 -27.5 -98t-77.5 -64q63 -19 96.5 -64.5t33.5 -112.5q0 -95 -64.5 -151t-174.5 -56h-220v733zM308 87q68 0 105.5 31.5t37.5 92.5t-38 93t-110 32h-117v-249h122zM293 422q64 0 100 30t36 83t-36 82t-100 29h-107v-224h107z" />
    <glyph glyph-name="C" unicode="C" horiz-adv-x="573" 
d="M233 39q-87 47 -136.5 132t-49.5 195t49.5 195.5t136.5 132.5t196 47q54 0 103 -9v-89q-56 9 -96 9q-85 0 -150.5 -36t-102 -101t-36.5 -149t36.5 -149t102 -101t150.5 -36q44 0 96 10v-89q-49 -9 -103 -9q-109 0 -196 47z" />
    <glyph glyph-name="D" unicode="D" horiz-adv-x="709" 
d="M90 733h194q109 0 195 -45.5t134.5 -128.5t48.5 -193t-48.5 -193t-134.5 -128t-195 -45h-194v733zM284 92q82 0 145 33.5t98 95.5t35 145t-35 145t-98 96t-145 34h-98v-549h98z" />
    <glyph glyph-name="E" unicode="E" horiz-adv-x="535" 
d="M90 733h378v-90h-282v-220h279v-90h-279v-243h287v-90h-383v733z" />
    <glyph glyph-name="F" unicode="F" horiz-adv-x="513" 
d="M90 733h378v-90h-282v-223h274v-90h-274v-330h-96v733z" />
    <glyph glyph-name="G" unicode="G" horiz-adv-x="817" 
d="M232 36q-86 48 -135.5 134t-49.5 195q0 110 49.5 196.5t136 135t191.5 48.5q83 0 156 -30.5t126 -88.5l-69 -69q-38 45 -94 70.5t-119 25.5q-79 0 -142.5 -37t-99.5 -103t-36 -148t36 -147.5t99 -102t141 -36.5q69 0 124.5 29.5t89.5 84t39 127.5h-276v87h378v-38
q0 -116 -46 -202.5t-126.5 -132.5t-182.5 -46q-104 0 -190 48z" />
    <glyph glyph-name="H" unicode="H" horiz-adv-x="691" 
d="M505 332h-319v-332h-96v733h96v-309h319v309h97v-733h-97v332z" />
    <glyph glyph-name="I" unicode="I" horiz-adv-x="276" 
d="M90 733h96v-733h-96v733z" />
    <glyph glyph-name="J" unicode="J" horiz-adv-x="357" 
d="M21 86h52q56 0 79.5 24.5t23.5 82.5v540h97v-542q0 -98 -48.5 -147.5t-141.5 -49.5h-62v92z" />
    <glyph glyph-name="K" unicode="K" horiz-adv-x="585" 
d="M186 345v-345h-96v733h96v-311l267 308h117l-296 -343l314 -387h-121z" />
    <glyph glyph-name="L" unicode="L" horiz-adv-x="484" 
d="M90 733h96v-643h282v-90h-378v733z" />
    <glyph glyph-name="M" unicode="M" horiz-adv-x="880" 
d="M90 733h100l251 -443l251 443h98v-733h-92v569l-227 -404h-61l-228 404v-569h-92v733z" />
    <glyph glyph-name="N" unicode="N" horiz-adv-x="706" 
d="M90 733h93l341 -562v562h92v-733h-93l-341 561v-561h-92v733z" />
    <glyph glyph-name="O" unicode="O" horiz-adv-x="844" 
d="M233 36q-86 48 -136 134.5t-50 195.5t50 195.5t136 135t189 48.5t189 -48.5t136 -135t50 -195.5t-50 -195.5t-136 -134.5t-189 -48t-189 48zM183.5 218.5q36.5 -65.5 99.5 -102t139 -36.5t139 36.5t100 102t37 147.5t-37 147.5t-100 102t-139 36.5t-139 -36.5t-99.5 -102
t-36.5 -147.5t36.5 -147.5z" />
    <glyph glyph-name="P" unicode="P" horiz-adv-x="559" 
d="M90 733h200q111 0 176 -58.5t65 -158.5q0 -98 -65 -156t-176 -58h-104v-302h-96v733zM288 390q69 0 106.5 33t37.5 93t-37.5 93t-106.5 33h-102v-252h102z" />
    <glyph glyph-name="Q" unicode="Q" horiz-adv-x="841" 
d="M229 46q-85 46 -133.5 129.5t-48.5 193.5q0 109 50 194.5t135 133.5t186 48t186 -47.5t134.5 -131.5t49.5 -190q0 -97 -41.5 -173.5t-112.5 -120.5l149 1v-83h-365q-104 0 -189 46zM183 223.5q36 -63.5 98 -98.5t137 -35t137 35t98 98t36 146q0 82 -36.5 146.5
t-98.5 100.5t-136 36t-136 -36t-98.5 -100.5t-36.5 -146.5t36 -145.5z" />
    <glyph glyph-name="R" unicode="R" horiz-adv-x="580" 
d="M186 326v-326h-96v733h200q106 0 166.5 -54.5t60.5 -152.5q0 -57 -26.5 -102t-76.5 -71t-116 -27l266 -326h-119zM284 404q63 0 99 33t36 89t-35.5 88.5t-99.5 32.5h-98v-243h98z" />
    <glyph glyph-name="S" unicode="S" horiz-adv-x="471" 
d="M53 0v91q77 -7 128 -7q154 0 154 112q0 38 -20.5 67.5t-69.5 60.5l-79 50q-58 38 -86.5 83t-28.5 100q0 86 60.5 135t169.5 49q39 0 103 -8v-87q-61 8 -100 8q-67 0 -101.5 -24t-34.5 -71q0 -32 18.5 -58t61.5 -53l72 -45q68 -44 100.5 -94t32.5 -112q0 -97 -65.5 -151
t-184.5 -54q-57 0 -130 8z" />
    <glyph glyph-name="T" unicode="T" horiz-adv-x="496" 
d="M200 643h-185v90h466v-90h-185v-643h-96v643z" />
    <glyph glyph-name="U" unicode="U" horiz-adv-x="675" 
d="M149.5 61q-67.5 73 -67.5 205v467h97v-459q0 -95 40.5 -144.5t117.5 -49.5q78 0 118.5 49t40.5 145v459h97v-467q0 -132 -67.5 -205t-188.5 -73q-120 0 -187.5 73z" />
    <glyph glyph-name="V" unicode="V" horiz-adv-x="617" 
d="M19 733h105l188 -591l185 591h101l-242 -733h-94z" />
    <glyph glyph-name="W" unicode="W" horiz-adv-x="1000" 
d="M27 733h99l154 -577l175 577h90l179 -579l151 579h97l-198 -733h-94l-180 575l-179 -575h-94z" />
    <glyph glyph-name="X" unicode="X" horiz-adv-x="574" 
d="M286 284l-167 -284h-103l218 372l-212 361h108l158 -269l158 269h103l-209 -357l221 -376h-108z" />
    <glyph glyph-name="Y" unicode="Y" horiz-adv-x="586" 
d="M246 289l-227 444h110l166 -340l166 340h103l-222 -444v-289h-96v289z" />
    <glyph glyph-name="Z" unicode="Z" horiz-adv-x="531" 
d="M19 15l340 626h-312l17 92h440v-15l-340 -626h338l-18 -92h-465v15z" />
    <glyph glyph-name="bracketleft" unicode="[" horiz-adv-x="322" 
d="M82 771h216v-84h-124v-755h124v-84h-216v923z" />
    <glyph glyph-name="backslash" unicode="\" horiz-adv-x="455" 
d="M28 771h96l303 -923h-96z" />
    <glyph glyph-name="bracketright" unicode="]" horiz-adv-x="322" 
d="M25 -152v84h123v755h-123v84h215v-923h-215z" />
    <glyph glyph-name="asciicircum" unicode="^" horiz-adv-x="460" 
d="M179 733h103l143 -260h-92l-104 187l-104 -187h-90z" />
    <glyph glyph-name="underscore" unicode="_" horiz-adv-x="470" 
d="M33 -44h404v-83h-404v83z" />
    <glyph glyph-name="grave" unicode="`" horiz-adv-x="500" 
d="M136 771h111l116 -160h-87z" />
    <glyph glyph-name="a" unicode="a" 
d="M168 25q-60 35 -95 97.5t-35 141.5t35 141.5t95 97.5t132 35q59 0 109 -24t78 -66l1 80h83v-528h-83l-1 80q-28 -42 -78 -66t-109 -24q-72 0 -132 35zM153.5 167q23.5 -43 64.5 -67t92 -24q49 0 89 22t63.5 64.5t23.5 101.5t-23.5 101.5t-63.5 65t-89 22.5q-51 0 -92 -24
t-64.5 -67t-23.5 -98q0 -54 23.5 -97z" />
    <glyph glyph-name="b" unicode="b" 
d="M229.5 14.5q-50.5 24.5 -78.5 66.5l-1 -81h-82v771h92v-197q0 -60 -3 -117q29 38 77.5 59.5t104.5 21.5q72 0 132 -35t95 -97.5t35 -141.5t-35 -141.5t-95 -97.5t-132 -35q-59 0 -109.5 24.5zM175.5 162.5q23.5 -42.5 63.5 -64.5t89 -22q51 0 92.5 24t64.5 67t23 97
q0 55 -23 98t-64.5 67t-92.5 24q-49 0 -89 -22.5t-63.5 -65t-23.5 -101.5t23.5 -101.5z" />
    <glyph glyph-name="c" unicode="c" horiz-adv-x="431" 
d="M169 27.5q-62 34.5 -96.5 96t-34.5 139.5q0 79 34.5 140.5t96.5 96t140 34.5q42 0 85 -7v-85q-43 7 -75 7q-85 0 -137 -51.5t-52 -134.5q0 -82 51.5 -133t137.5 -51q29 0 75 6v-85q-43 -7 -85 -7q-78 0 -140 34.5z" />
    <glyph glyph-name="d" unicode="d" 
d="M168 25q-60 35 -95 97.5t-35 141.5t35 141.5t95 97.5t132 35q56 0 104 -21.5t77 -59.5q-2 72 -2 113v201h92v-771h-83l-1 80q-28 -42 -78 -66t-109 -24q-72 0 -132 35zM153.5 167q23.5 -43 64.5 -67t92 -24q49 0 89 22t63.5 64.5t23.5 101.5t-23.5 101.5t-63.5 65
t-89 22.5q-51 0 -92 -24t-64.5 -67t-23.5 -98q0 -54 23.5 -97z" />
    <glyph glyph-name="e" unicode="e" horiz-adv-x="592" 
d="M168 25.5q-62 35.5 -96 97.5t-34 139q0 78 34.5 141t95 99t135.5 36q69 0 127 -32t91.5 -96t32.5 -158h-430q4 -79 55 -130t131 -51q57 0 103 26.5t76 75.5l64 -47q-38 -60 -99.5 -98t-144.5 -38q-79 0 -141 35.5zM464 321q-12 68 -56 103.5t-106 35.5
q-65 0 -111.5 -38.5t-61.5 -100.5h335z" />
    <glyph glyph-name="f" unicode="f" horiz-adv-x="286" 
d="M134.5 731q40.5 40 116.5 40h27v-86h-14q-40 0 -59 -18t-19 -57v-82h71v-84h-71v-444h-92v444h-63v84h63v90q0 73 40.5 113z" />
    <glyph glyph-name="g" unicode="g" 
d="M178 -114h108q98 0 146.5 39.5t49.5 122.5v40q-28 -39 -75 -61t-105 -22q-73 0 -133 33.5t-95 94t-35 137.5t34.5 138.5t94.5 95.5t132 34q59 0 109.5 -24t78.5 -66l1 80h83v-473q0 -122 -73.5 -187.5t-215.5 -65.5h-105v84zM154 176.5q23 -41.5 64.5 -65t93.5 -23.5
q75 0 125 47.5t50 132.5q0 58 -23.5 99.5t-63.5 63.5t-89 22q-51 0 -92.5 -23.5t-64.5 -65t-23 -94.5q0 -52 23 -93.5z" />
    <glyph glyph-name="h" unicode="h" horiz-adv-x="548" 
d="M68 771h92v-199q0 -35 -2 -99q23 32 59 49.5t83 17.5q88 0 136.5 -58t48.5 -163v-319h-92v313q0 68 -29.5 104t-86.5 36t-87 -35.5t-30 -104.5v-313h-92v771z" />
    <glyph glyph-name="i" unicode="i" horiz-adv-x="227" 
d="M68 528h92v-528h-92v528zM68 771h92v-148h-92v148z" />
    <glyph glyph-name="j" unicode="j" horiz-adv-x="227" 
d="M-31 -112h15q45 0 64.5 18.5t19.5 62.5v559h92v-563q0 -80 -42 -121.5t-125 -41.5h-24v86zM68 771h92v-148h-92v148z" />
    <glyph glyph-name="k" unicode="k" horiz-adv-x="470" 
d="M160 248v-248h-92v771h92v-463l190 220h109l-211 -246l226 -282h-114z" />
    <glyph glyph-name="l" unicode="l" horiz-adv-x="227" 
d="M68 771h92v-771h-92v771z" />
    <glyph glyph-name="m" unicode="m" horiz-adv-x="835" 
d="M113 481.5q51 58.5 142 58.5q58 0 99 -24t63 -66q22 42 63.5 66t99.5 24q90 0 141.5 -59t51.5 -161v-320h-92v320q0 63 -27 98t-79 35q-53 0 -82.5 -37t-29.5 -104v-312h-92v312q0 67 -29 104t-82 37q-52 0 -79 -35t-27 -98v-320h-92v320q0 103 51 161.5z" />
    <glyph glyph-name="n" unicode="n" horiz-adv-x="541" 
d="M117 481q55 59 154 59q98 0 153 -59t55 -164v-317h-92v314q0 67 -30 103t-86 36q-57 0 -87 -35.5t-30 -103.5v-314h-92v317q0 105 55 164z" />
    <glyph glyph-name="o" unicode="o" horiz-adv-x="618" 
d="M171.5 23.5q-62.5 35.5 -98 98.5t-35.5 141q0 79 35.5 142t98 99t138.5 36t138 -36t97.5 -99t35.5 -142q0 -78 -35.5 -141t-97.5 -98.5t-138 -35.5t-138.5 35.5zM153.5 166.5q23.5 -42.5 64.5 -67t92 -24.5q50 0 91 24.5t64 67t23 96.5q0 55 -23 98t-64 67.5t-91 24.5
q-51 0 -92 -24.5t-64.5 -67.5t-23.5 -98q0 -54 23.5 -96.5z" />
    <glyph glyph-name="p" unicode="p" 
d="M68 528h82l1 -81q28 43 78 67t110 24q72 0 132 -35t95 -97.5t35 -141.5t-35 -141.5t-95 -97.5t-132 -35q-56 0 -104.5 22t-77.5 60q3 -58 3 -117v-153h-92v726zM175.5 162.5q23.5 -42.5 63 -64.5t88.5 -22q52 0 93 24t64.5 67t23.5 97q0 55 -23.5 98t-64.5 67t-93 24
q-49 0 -88.5 -22.5t-63 -65t-23.5 -101.5t23.5 -101.5z" />
    <glyph glyph-name="q" unicode="q" 
d="M478 -198v153q0 59 3 117q-29 -38 -77.5 -60t-104.5 -22q-72 0 -132 35t-95 97.5t-35 141.5t35 141.5t95 97.5t132 35q60 0 110 -24t78 -67l1 81h82v-726h-92zM153.5 167q23.5 -43 64.5 -67t93 -24q49 0 88.5 22t63 64.5t23.5 101.5t-23.5 101.5t-63 65t-88.5 22.5
q-52 0 -93 -24t-64.5 -67t-23.5 -98q0 -54 23.5 -97z" />
    <glyph glyph-name="r" unicode="r" horiz-adv-x="301" 
d="M104.5 487.5q40.5 40.5 122.5 40.5h59v-84h-51q-42 0 -60.5 -18t-18.5 -63v-363h-92v362q0 85 40.5 125.5z" />
    <glyph glyph-name="s" unicode="s" horiz-adv-x="370" 
d="M46 0v81q57 -7 99 -7q51 0 75.5 16.5t24.5 50.5q0 25 -15.5 45t-52.5 44l-35 23q-52 34 -76 68.5t-24 76.5q0 63 46 99.5t127 36.5q38 0 81 -6v-74q-40 4 -68 4q-47 0 -71.5 -15t-24.5 -44q0 -21 16 -39.5t53 -42.5l35 -23q54 -36 78.5 -71.5t24.5 -80.5q0 -70 -50 -109
t-140 -39q-44 0 -103 6z" />
    <glyph glyph-name="t" unicode="t" horiz-adv-x="285" 
d="M95 444h-64v84h64v146l92 34v-180h68v-84h-68v-444h-92v444z" />
    <glyph glyph-name="u" unicode="u" horiz-adv-x="541" 
d="M424 47q-55 -59 -154 -59q-98 0 -153 59t-55 164v317h92v-314q0 -67 30 -103t86 -36q57 0 87 35.5t30 103.5v314h92v-317q0 -105 -55 -164z" />
    <glyph glyph-name="v" unicode="v" horiz-adv-x="513" 
d="M9 528h101l149 -405l149 405h96l-202 -528h-89z" />
    <glyph glyph-name="w" unicode="w" horiz-adv-x="816" 
d="M15 528h97l124 -405l133 405h85l131 -398l124 398h95l-175 -528h-84l-135 398l-136 -398h-90z" />
    <glyph glyph-name="x" unicode="x" horiz-adv-x="504" 
d="M198 267l-187 261h107l134 -193l135 193h102l-182 -260l190 -268h-105l-140 200l-137 -200h-105z" />
    <glyph glyph-name="y" unicode="y" horiz-adv-x="524" 
d="M222 28l-216 500h103l161 -390l149 390h97l-288 -726h-97z" />
    <glyph glyph-name="z" unicode="z" horiz-adv-x="456" 
d="M20 15l270 429h-253l16 84h376v-14l-270 -430h270l-15 -84h-394v15z" />
    <glyph glyph-name="braceleft" unicode="{" horiz-adv-x="368" 
d="M169.5 -112q-40.5 40 -40.5 112v199q0 40 -16.5 57.5t-50.5 17.5h-51v87h51q34 0 50.5 17.5t16.5 57.5v182q0 73 40.5 113t116.5 40h59v-86h-46q-41 0 -59.5 -17.5t-18.5 -57.5v-179q0 -88 -62 -113q62 -27 62 -114v-195q0 -40 18.5 -57.5t59.5 -17.5h46v-86h-59
q-76 0 -116.5 40z" />
    <glyph glyph-name="bar" unicode="|" horiz-adv-x="257" 
d="M82 771h92v-923h-92v923z" />
    <glyph glyph-name="braceright" unicode="}" horiz-adv-x="368" 
d="M24 -152v86h46q40 0 58.5 17.5t18.5 57.5v195q0 42 15.5 71.5t46.5 42.5q-31 13 -46.5 42t-15.5 71v179q0 39 -18.5 57t-58.5 18h-46v86h58q76 0 116.5 -40t40.5 -113v-182q0 -40 16.5 -57.5t51.5 -17.5h50v-87h-50q-35 0 -51.5 -17.5t-16.5 -57.5v-199q0 -72 -40.5 -112
t-116.5 -40h-58z" />
    <glyph glyph-name="asciitilde" unicode="~" horiz-adv-x="532" 
d="M307 277.5q-22 9.5 -50 27.5q-22 14 -37 21t-32 7q-22 0 -35.5 -15t-14.5 -46h-75v21q0 61 33 93t83 32q28 0 49.5 -9t51.5 -27q22 -14 37 -21t32 -7q22 0 35 15t14 46h76v-22q0 -57 -31.5 -91t-84.5 -34q-29 0 -51 9.5z" />
    <glyph glyph-name="uni00A0" unicode="&#xa0;" horiz-adv-x="250" 
 />
    <glyph glyph-name="exclamdown" unicode="&#xa1;" horiz-adv-x="239" 
d="M78 308h83l4 -506h-92zM71 528h96v-119h-96v119z" />
    <glyph glyph-name="cent" unicode="&#xa2;" horiz-adv-x="556" 
d="M284 103q-66 9 -117 45.5t-79.5 93.5t-28.5 128t28.5 129t80 94t116.5 45v95h65v-93q88 -7 157 -66l-46 -67q-49 40 -111 48v-370q64 6 116 49l46 -67q-68 -60 -162 -66v-101h-65v103zM185.5 251q36.5 -49 98.5 -62v363q-62 -13 -98.5 -62.5t-36.5 -119.5t36.5 -119z" />
    <glyph glyph-name="sterling" unicode="&#xa3;" horiz-adv-x="564" 
d="M65 65l50 55q51 58 51 119q0 27 -13 72h-109v79h79q-16 42 -24.5 76.5t-8.5 72.5q0 92 55.5 147t152.5 55q88 0 146.5 -49.5t75.5 -143.5l-88 -22q-12 62 -45.5 93t-85.5 31q-54 0 -83.5 -32t-29.5 -87q0 -32 9.5 -64t27.5 -77h215v-79h-187q10 -37 10 -68
q0 -77 -59 -145l-7 -8h320v-90h-452v65z" />
    <glyph glyph-name="currency" unicode="&#xa4;" horiz-adv-x="611" 
d="M188 163l-73 -73l-61 61l71 72q-33 52 -33 120q0 67 31 117l-70 71l65 65l72 -72q50 29 116 29q67 0 119 -30l72 72l62 -61l-72 -71q33 -52 33 -120t-32 -117l71 -71l-65 -65l-72 72q-49 -29 -116 -29q-66 0 -118 30zM216.5 252.5q34.5 -34.5 89.5 -34.5t89.5 34.5
t34.5 90.5t-34.5 90.5t-89.5 34.5t-89.5 -34.5t-34.5 -90.5t34.5 -90.5z" />
    <glyph glyph-name="yen" unicode="&#xa5;" horiz-adv-x="602" 
d="M256 174h-144v68h144v57h-144v68h113l-197 366h110l166 -326l166 326h103l-192 -366h110v-68h-141v-57h141v-68h-141v-174h-94v174z" />
    <glyph glyph-name="brokenbar" unicode="&#xa6;" horiz-adv-x="261" 
d="M84 267h92v-419h-92v419zM84 771h92v-396h-92v396z" />
    <glyph glyph-name="section" unicode="&#xa7;" horiz-adv-x="504" 
d="M74 -152v91q91 -8 121 -8q69 0 105 25.5t36 73.5q0 34 -19 56t-62 39l-75 29q-68 26 -98.5 67t-30.5 96q0 86 70 135q-50 44 -50 116q0 82 58.5 127.5t163.5 45.5q49 0 100 -8v-87q-51 8 -95 8q-130 0 -130 -82q0 -29 17 -49t56 -34l72 -28q75 -29 108 -72t33 -106
q0 -86 -58 -138q38 -44 38 -111q0 -91 -63.5 -143t-178.5 -52q-52 0 -118 9zM162 269q20 -24 69 -42l73 -26q16 -5 24 -10q35 34 35 84q0 40 -22 66t-77 46l-71 26q-51 -32 -51 -87q0 -33 20 -57z" />
    <glyph glyph-name="dieresis" unicode="&#xa8;" horiz-adv-x="592" 
d="M372 751h83v-123h-83v123zM137 751h84v-123h-84v123z" />
    <glyph glyph-name="copyright" unicode="&#xa9;" horiz-adv-x="878" 
d="M247.5 36.5q-86.5 48.5 -136.5 134.5t-50 195t50 195.5t136.5 135t191.5 48.5t191.5 -48.5t136.5 -135t50 -195.5t-50 -195t-136.5 -134.5t-191.5 -48.5t-191.5 48.5zM177.5 209.5q39.5 -69.5 108.5 -109t153 -39.5t153 39.5t109 109t40 156.5t-40 157t-109 109.5
t-153 39.5t-153 -39.5t-108.5 -109.5t-39.5 -157t39.5 -156.5zM268.5 472.5q26.5 47.5 73 74.5t103.5 27q86 0 143 -62l-53 -49q-36 37 -89 37q-55 0 -90.5 -37t-35.5 -97q0 -59 35.5 -95.5t90.5 -36.5q28 0 53 10t43 31l54 -48q-29 -34 -67.5 -51t-82.5 -17
q-58 0 -104.5 27t-73 74.5t-26.5 105.5q0 59 26.5 106.5z" />
    <glyph glyph-name="ordfeminine" unicode="&#xaa;" horiz-adv-x="492" 
d="M131.5 379q-41.5 24 -66 68t-24.5 100q0 57 24.5 101t66 68t91.5 24q38 0 71 -14.5t52 -41.5l1 49h76v-371h-76l-1 49q-19 -26 -51.5 -41t-71.5 -15q-50 0 -91.5 24zM158.5 466q30.5 -31 77.5 -31q46 0 76 30.5t30 81.5q0 52 -30 82.5t-76 30.5q-47 0 -77.5 -31.5
t-30.5 -81.5t30.5 -81z" />
    <glyph glyph-name="guillemotleft" unicode="&#xab;" horiz-adv-x="506" 
d="M223 276l137 193h85l-129 -192l131 -195h-87zM187 469h86l-130 -192l132 -195h-88l-137 194z" />
    <glyph glyph-name="logicalnot" unicode="&#xac;" horiz-adv-x="539" 
d="M371 354h-308v87h400v-256h-92v169z" />
    <glyph glyph-name="uni00AD" unicode="&#xad;" horiz-adv-x="380" 
 />
    <glyph glyph-name="registered" unicode="&#xae;" horiz-adv-x="676" 
d="M196.5 263.5q-62.5 35.5 -97.5 98t-35 140.5q0 79 35 141.5t97.5 98t140.5 35.5q79 0 141.5 -35.5t98 -98t35.5 -141.5q0 -78 -35.5 -140.5t-98 -98t-141.5 -35.5q-78 0 -140.5 35.5zM150.5 390.5q27.5 -49.5 76 -78t110.5 -28.5t111 28.5t76.5 78t27.5 111.5t-27.5 112
t-76.5 78t-111 28t-110.5 -28t-76 -78t-27.5 -112t27.5 -111.5zM241 659h101q50 0 77.5 -22.5t27.5 -63.5q0 -35 -21.5 -57.5t-60.5 -27.5l95 -124h-70l-89 124v-124h-60v295zM337 529q49 0 49 40q0 19 -12.5 29t-36.5 10h-36v-79h36z" />
    <glyph glyph-name="macron" unicode="&#xaf;" horiz-adv-x="601" 
d="M137 719h328v-73h-328v73z" />
    <glyph glyph-name="degree" unicode="&#xb0;" horiz-adv-x="372" 
d="M81.5 502.5q-40.5 39.5 -40.5 101.5t40.5 101.5t104.5 39.5t104.5 -39.5t40.5 -101.5t-40.5 -101.5t-104.5 -39.5t-104.5 39.5zM134 551.5q20 -20.5 52 -20.5t52.5 20.5t20.5 52.5t-20.5 52t-52.5 20t-52 -20t-20 -52t20 -52.5z" />
    <glyph glyph-name="plusminus" unicode="&#xb1;" horiz-adv-x="540" 
d="M65 478h159v134h92v-134h159v-87h-159v-138h-92v138h-159v87zM65 195h410v-87h-410v87z" />
    <glyph glyph-name="uni00B2" unicode="&#xb2;" horiz-adv-x="354" 
d="M28 382l152 157q28 30 42 52.5t14 48.5q0 29 -16.5 45.5t-45.5 16.5t-49 -17t-28 -51l-73 20q13 59 53 91t99 32q64 0 102.5 -36t38.5 -93q0 -46 -22.5 -81.5t-64.5 -77.5l-88 -90h182v-75h-296v58z" />
    <glyph glyph-name="uni00B3" unicode="&#xb3;" horiz-adv-x="372" 
d="M76.5 351.5q-44.5 31.5 -56.5 95.5l76 23q6 -38 30 -57.5t58 -19.5q35 0 56 18t21 48q0 29 -20 46.5t-55 17.5h-34v66h31q28 0 45.5 16.5t17.5 41.5t-18 41t-47 16q-30 0 -51 -18.5t-28 -51.5l-72 18q13 59 53.5 91.5t101.5 32.5q63 0 101.5 -32.5t38.5 -84.5
q0 -33 -16 -58t-44 -39q38 -12 58 -39.5t20 -66.5q0 -61 -44.5 -98.5t-115.5 -37.5q-62 0 -106.5 31.5z" />
    <glyph glyph-name="acute" unicode="&#xb4;" horiz-adv-x="498" 
d="M253 771h109l-140 -160h-85z" />
    <glyph glyph-name="uni00B5" unicode="&#xb5;" horiz-adv-x="614" 
d="M83 528h92v-314q0 -68 30 -103.5t87 -35.5t87 35t30 102v316h92v-377q0 -36 13.5 -51.5t45.5 -15.5h15v-84h-19q-84 0 -113 57q-47 -67 -145 -67q-77 0 -125 43q2 -52 2 -78v-153h-92v726z" />
    <glyph glyph-name="paragraph" unicode="&#xb6;" horiz-adv-x="575" 
d="M143.5 348.5q-50.5 25.5 -77.5 72t-27 107.5q0 93 61 149t166 56h211v-733h-79v646h-55v-646h-79v323h-2q-68 0 -118.5 25.5z" />
    <glyph glyph-name="periodcentered" unicode="&#xb7;" horiz-adv-x="227" 
d="M65 384h98v-108h-98v108z" />
    <glyph glyph-name="cedilla" unicode="&#xb8;" horiz-adv-x="433" 
d="M136 -198l61 143h100l-80 -143h-81z" />
    <glyph glyph-name="uni00B9" unicode="&#xb9;" horiz-adv-x="208" 
d="M74 695h-48v77h128v-448h-80v371z" />
    <glyph glyph-name="ordmasculine" unicode="&#xba;" horiz-adv-x="468" 
d="M134 376.5q-44 24.5 -69 68.5t-25 100t25 100.5t69 69.5t100 25q55 0 99.5 -25t69.5 -69.5t25 -100.5q0 -55 -25 -99t-69.5 -69t-99.5 -25q-56 0 -100 24.5zM157 464.5q30 -31.5 77 -31.5q46 0 76.5 31.5t30.5 80.5t-30.5 81.5t-76.5 32.5q-47 0 -77 -32t-30 -82
q0 -49 30 -80.5z" />
    <glyph glyph-name="guillemotright" unicode="&#xbb;" horiz-adv-x="506" 
d="M189 274l-131 195h87l138 -194l-138 -193h-85zM318 469l138 -194l-138 -193h-85l129 192l-131 195h87z" />
    <glyph glyph-name="onequarter" unicode="&#xbc;" horiz-adv-x="759" 
d="M74 656h-48v77h128v-448h-80v371zM535 730h101l-522 -730h-101zM614 66h-221v57l215 325h79v-315h45v-67h-45v-66h-73v66zM614 133v207l-137 -207h137z" />
    <glyph glyph-name="onehalf" unicode="&#xbd;" horiz-adv-x="779" 
d="M74 656h-48v77h128v-448h-80v371zM535 730h101l-522 -730h-101zM453 58l152 157q28 30 42 52.5t14 48.5q0 29 -16.5 45.5t-45.5 16.5t-49 -17t-28 -51l-73 20q13 59 53 91t99 32q64 0 102.5 -36t38.5 -93q0 -46 -22.5 -81.5t-64.5 -77.5l-88 -90h182v-75h-296v58z" />
    <glyph glyph-name="threequarters" unicode="&#xbe;" horiz-adv-x="915" 
d="M76.5 312.5q-44.5 31.5 -56.5 95.5l76 23q6 -38 30 -57.5t58 -19.5q35 0 56 18t21 48q0 29 -20 46.5t-55 17.5h-34v66h31q28 0 45.5 16.5t17.5 41.5t-18 41t-47 16q-30 0 -51 -18.5t-28 -51.5l-72 18q13 59 53.5 91.5t101.5 32.5q63 0 101.5 -32.5t38.5 -84.5
q0 -33 -16 -58t-44 -39q38 -12 58 -39.5t20 -66.5q0 -61 -44.5 -98.5t-115.5 -37.5q-62 0 -106.5 31.5zM691 730h101l-522 -730h-101zM770 66h-221v57l215 325h79v-315h45v-67h-45v-66h-73v66zM770 133v207l-137 -207h137z" />
    <glyph glyph-name="questiondown" unicode="&#xbf;" horiz-adv-x="509" 
d="M143.5 -173.5q-47.5 24.5 -73 67.5t-25.5 98q0 52 21 91.5t58 75.5l52 50q22 21 30.5 40t8.5 43v16h85v-21q0 -39 -14.5 -70t-45.5 -63l-53 -54q-22 -22 -33 -46t-11 -53q0 -48 30.5 -78t82.5 -30q51 0 87.5 32.5t50.5 94.5l88 -24q-19 -93 -80 -143.5t-149 -50.5
q-62 0 -109.5 24.5zM210 528h96v-119h-96v119z" />
    <glyph glyph-name="Agrave" unicode="&#xc0;" horiz-adv-x="632" 
d="M269 733h93l253 -733h-101l-51 154h-294l-51 -154h-100zM434 239l-119 359l-118 -359h237zM141 975h111l116 -160h-87z" />
    <glyph glyph-name="Aacute" unicode="&#xc1;" horiz-adv-x="632" 
d="M269 733h93l253 -733h-101l-51 154h-294l-51 -154h-100zM434 239l-119 359l-118 -359h237zM381 975h109l-140 -160h-85z" />
    <glyph glyph-name="Acircumflex" unicode="&#xc2;" horiz-adv-x="632" 
d="M269 733h93l253 -733h-101l-51 154h-294l-51 -154h-100zM434 239l-119 359l-118 -359h237zM270 975h93l118 -160h-77l-88 104l-89 -104h-76z" />
    <glyph glyph-name="Atilde" unicode="&#xc3;" horiz-adv-x="632" 
d="M269 733h93l253 -733h-101l-51 154h-294l-51 -154h-100zM434 239l-119 359l-118 -359h237zM341 828q-17 8 -43 25q-17 13 -29 19t-25 6q-38 0 -41 -54h-64q0 61 28 92.5t71 31.5q24 0 41 -8t43 -25q19 -13 30.5 -19t24.5 -6q18 0 28.5 13.5t11.5 41.5h65
q0 -60 -27.5 -92.5t-72.5 -32.5q-24 0 -41 8z" />
    <glyph glyph-name="Adieresis" unicode="&#xc4;" horiz-adv-x="632" 
d="M269 733h93l253 -733h-101l-51 154h-294l-51 -154h-100zM434 239l-119 359l-118 -359h237zM392 955h83v-123h-83v123zM157 955h84v-123h-84v123z" />
    <glyph glyph-name="Aring" unicode="&#xc5;" horiz-adv-x="632" 
d="M269 733h93l253 -733h-101l-51 154h-294l-51 -154h-100zM434 239l-119 359l-118 -359h237zM244.5 822.5q-26.5 25.5 -26.5 65.5q0 41 26.5 65.5t70.5 24.5q45 0 71.5 -24.5t26.5 -65.5q0 -40 -27 -65.5t-71 -25.5t-70.5 25.5zM282 854q13 -13 33 -13q21 0 34 13t13 34
t-13 33.5t-34 12.5t-33.5 -12.5t-12.5 -33.5t13 -34z" />
    <glyph glyph-name="AE" unicode="&#xc6;" horiz-adv-x="839" 
d="M286 733h486v-90h-271v-220h267v-90h-267v-243h275v-90h-370v154h-239l-58 -154h-100zM406 239v404h-55l-152 -404h207z" />
    <glyph glyph-name="Ccedilla" unicode="&#xc7;" horiz-adv-x="573" 
d="M233 39q-87 47 -136.5 132t-49.5 195t49.5 195.5t136.5 132.5t196 47q54 0 103 -9v-89q-56 9 -96 9q-85 0 -150.5 -36t-102 -101t-36.5 -149t36.5 -149t102 -101t150.5 -36q44 0 96 10v-89q-49 -9 -103 -9q-109 0 -196 47zM288 -198l61 143h100l-80 -143h-81z" />
    <glyph glyph-name="Egrave" unicode="&#xc8;" horiz-adv-x="535" 
d="M90 733h378v-90h-282v-220h279v-90h-279v-243h287v-90h-383v733zM106 975h111l116 -160h-87z" />
    <glyph glyph-name="Eacute" unicode="&#xc9;" horiz-adv-x="535" 
d="M90 733h378v-90h-282v-220h279v-90h-279v-243h287v-90h-383v733zM346 975h109l-140 -160h-85z" />
    <glyph glyph-name="Ecircumflex" unicode="&#xca;" horiz-adv-x="535" 
d="M90 733h378v-90h-282v-220h279v-90h-279v-243h287v-90h-383v733zM235 975h93l118 -160h-77l-88 104l-89 -104h-76z" />
    <glyph glyph-name="Edieresis" unicode="&#xcb;" horiz-adv-x="535" 
d="M90 733h378v-90h-282v-220h279v-90h-279v-243h287v-90h-383v733zM357 955h83v-123h-83v123zM122 955h84v-123h-84v123z" />
    <glyph glyph-name="Igrave" unicode="&#xcc;" horiz-adv-x="276" 
d="M90 733h96v-733h-96v733zM-37 975h111l116 -160h-87z" />
    <glyph glyph-name="Iacute" unicode="&#xcd;" horiz-adv-x="276" 
d="M90 733h96v-733h-96v733zM203 975h109l-140 -160h-85z" />
    <glyph glyph-name="Icircumflex" unicode="&#xce;" horiz-adv-x="276" 
d="M90 733h96v-733h-96v733zM92 975h93l118 -160h-77l-88 104l-89 -104h-76z" />
    <glyph glyph-name="Idieresis" unicode="&#xcf;" horiz-adv-x="276" 
d="M90 733h96v-733h-96v733zM214 955h83v-123h-83v123zM-21 955h84v-123h-84v123z" />
    <glyph glyph-name="Eth" unicode="&#xd0;" horiz-adv-x="731" 
d="M118 333h-101v90h101v310h188q108 0 194 -45.5t135 -128.5t49 -193t-49 -193t-135 -128t-194 -45h-188v333zM306 92q82 0 145 33.5t98 95.5t35 145t-35 145t-98 96t-145 34h-91v-218h154v-90h-154v-241h91z" />
    <glyph glyph-name="Ntilde" unicode="&#xd1;" horiz-adv-x="706" 
d="M90 733h93l341 -562v562h92v-733h-93l-341 561v-561h-92v733zM382 828q-17 8 -43 25q-17 13 -29 19t-25 6q-38 0 -41 -54h-64q0 61 28 92.5t71 31.5q24 0 41 -8t43 -25q19 -13 30.5 -19t24.5 -6q18 0 28.5 13.5t11.5 41.5h65q0 -60 -27.5 -92.5t-72.5 -32.5q-24 0 -41 8z
" />
    <glyph glyph-name="Ograve" unicode="&#xd2;" horiz-adv-x="844" 
d="M233 36q-86 48 -136 134.5t-50 195.5t50 195.5t136 135t189 48.5t189 -48.5t136 -135t50 -195.5t-50 -195.5t-136 -134.5t-189 -48t-189 48zM183.5 218.5q36.5 -65.5 99.5 -102t139 -36.5t139 36.5t100 102t37 147.5t-37 147.5t-100 102t-139 36.5t-139 -36.5t-99.5 -102
t-36.5 -147.5t36.5 -147.5zM247 975h111l116 -160h-87z" />
    <glyph glyph-name="Oacute" unicode="&#xd3;" horiz-adv-x="844" 
d="M233 36q-86 48 -136 134.5t-50 195.5t50 195.5t136 135t189 48.5t189 -48.5t136 -135t50 -195.5t-50 -195.5t-136 -134.5t-189 -48t-189 48zM183.5 218.5q36.5 -65.5 99.5 -102t139 -36.5t139 36.5t100 102t37 147.5t-37 147.5t-100 102t-139 36.5t-139 -36.5t-99.5 -102
t-36.5 -147.5t36.5 -147.5zM487 975h109l-140 -160h-85z" />
    <glyph glyph-name="Ocircumflex" unicode="&#xd4;" horiz-adv-x="844" 
d="M233 36q-86 48 -136 134.5t-50 195.5t50 195.5t136 135t189 48.5t189 -48.5t136 -135t50 -195.5t-50 -195.5t-136 -134.5t-189 -48t-189 48zM183.5 218.5q36.5 -65.5 99.5 -102t139 -36.5t139 36.5t100 102t37 147.5t-37 147.5t-100 102t-139 36.5t-139 -36.5t-99.5 -102
t-36.5 -147.5t36.5 -147.5zM376 975h93l118 -160h-77l-88 104l-89 -104h-76z" />
    <glyph glyph-name="Otilde" unicode="&#xd5;" horiz-adv-x="844" 
d="M233 36q-86 48 -136 134.5t-50 195.5t50 195.5t136 135t189 48.5t189 -48.5t136 -135t50 -195.5t-50 -195.5t-136 -134.5t-189 -48t-189 48zM183.5 218.5q36.5 -65.5 99.5 -102t139 -36.5t139 36.5t100 102t37 147.5t-37 147.5t-100 102t-139 36.5t-139 -36.5t-99.5 -102
t-36.5 -147.5t36.5 -147.5zM447 828q-17 8 -43 25q-17 13 -29 19t-25 6q-38 0 -41 -54h-64q0 61 28 92.5t71 31.5q24 0 41 -8t43 -25q19 -13 30.5 -19t24.5 -6q18 0 28.5 13.5t11.5 41.5h65q0 -60 -27.5 -92.5t-72.5 -32.5q-24 0 -41 8z" />
    <glyph glyph-name="Odieresis" unicode="&#xd6;" horiz-adv-x="844" 
d="M233 36q-86 48 -136 134.5t-50 195.5t50 195.5t136 135t189 48.5t189 -48.5t136 -135t50 -195.5t-50 -195.5t-136 -134.5t-189 -48t-189 48zM183.5 218.5q36.5 -65.5 99.5 -102t139 -36.5t139 36.5t100 102t37 147.5t-37 147.5t-100 102t-139 36.5t-139 -36.5t-99.5 -102
t-36.5 -147.5t36.5 -147.5zM498 955h83v-123h-83v123zM263 955h84v-123h-84v123z" />
    <glyph glyph-name="multiply" unicode="&#xd7;" horiz-adv-x="540" 
d="M269 279l-125 -124l-62 61l125 125l-125 125l65 66l126 -125l124 124l62 -62l-125 -124l125 -125l-66 -65z" />
    <glyph glyph-name="Oslash" unicode="&#xd8;" horiz-adv-x="847" 
d="M308 4.5q-55 16.5 -101 48.5l-46 -53h-102l89 104q-48 51 -74 117.5t-26 144.5q0 109 50.5 195.5t136 135t188.5 48.5q120 0 216 -65l47 56h102l-90 -106q48 -51 74.5 -118t26.5 -146q0 -109 -50.5 -195.5t-136.5 -134.5t-189 -48q-60 0 -115 16.5zM210 178l367 431
q-68 45 -154 45q-76 0 -139.5 -36.5t-100.5 -102.5t-37 -149q0 -110 64 -188zM423 79q77 0 140.5 36.5t100.5 102t37 148.5q0 111 -66 191l-367 -432q70 -46 155 -46z" />
    <glyph glyph-name="Ugrave" unicode="&#xd9;" horiz-adv-x="675" 
d="M149.5 61q-67.5 73 -67.5 205v467h97v-459q0 -95 40.5 -144.5t117.5 -49.5q78 0 118.5 49t40.5 145v459h97v-467q0 -132 -67.5 -205t-188.5 -73q-120 0 -187.5 73zM163 975h111l116 -160h-87z" />
    <glyph glyph-name="Uacute" unicode="&#xda;" horiz-adv-x="675" 
d="M149.5 61q-67.5 73 -67.5 205v467h97v-459q0 -95 40.5 -144.5t117.5 -49.5q78 0 118.5 49t40.5 145v459h97v-467q0 -132 -67.5 -205t-188.5 -73q-120 0 -187.5 73zM403 975h109l-140 -160h-85z" />
    <glyph glyph-name="Ucircumflex" unicode="&#xdb;" horiz-adv-x="675" 
d="M149.5 61q-67.5 73 -67.5 205v467h97v-459q0 -95 40.5 -144.5t117.5 -49.5q78 0 118.5 49t40.5 145v459h97v-467q0 -132 -67.5 -205t-188.5 -73q-120 0 -187.5 73zM292 975h93l118 -160h-77l-88 104l-89 -104h-76z" />
    <glyph glyph-name="Udieresis" unicode="&#xdc;" horiz-adv-x="675" 
d="M149.5 61q-67.5 73 -67.5 205v467h97v-459q0 -95 40.5 -144.5t117.5 -49.5q78 0 118.5 49t40.5 145v459h97v-467q0 -132 -67.5 -205t-188.5 -73q-120 0 -187.5 73zM414 955h83v-123h-83v123zM179 955h84v-123h-84v123z" />
    <glyph glyph-name="Yacute" unicode="&#xdd;" horiz-adv-x="586" 
d="M246 289l-227 444h110l166 -340l166 340h103l-222 -444v-289h-96v289zM360 975h109l-140 -160h-85z" />
    <glyph glyph-name="Thorn" unicode="&#xde;" horiz-adv-x="571" 
d="M90 733h96v-141h104q111 0 176 -58.5t65 -158.5q0 -98 -65 -156.5t-176 -58.5h-104v-160h-96v733zM288 249q69 0 106.5 33t37.5 93q0 59 -37.5 92t-106.5 33h-102v-251h102z" />
    <glyph glyph-name="germandbls" unicode="&#xdf;" horiz-adv-x="619" 
d="M246 0v85q47 -6 74 -6q81 0 125 39t44 110q0 69 -45.5 107t-128.5 38h-49v84h33q58 0 92.5 32.5t34.5 86.5t-35 84t-98 30q-133 0 -133 -147v-543h-92v550q0 110 57 168t164 58q106 0 167.5 -51t61.5 -139q0 -55 -23.5 -96.5t-65.5 -62.5q74 -20 113.5 -72t39.5 -130
q0 -107 -67 -169.5t-183 -62.5q-43 0 -86 7z" />
    <glyph glyph-name="agrave" unicode="&#xe0;" 
d="M168 25q-60 35 -95 97.5t-35 141.5t35 141.5t95 97.5t132 35q59 0 109 -24t78 -66l1 80h83v-528h-83l-1 80q-28 -42 -78 -66t-109 -24q-72 0 -132 35zM153.5 167q23.5 -43 64.5 -67t92 -24q49 0 89 22t63.5 64.5t23.5 101.5t-23.5 101.5t-63.5 65t-89 22.5q-51 0 -92 -24
t-64.5 -67t-23.5 -98q0 -54 23.5 -97zM154 771h111l116 -160h-87z" />
    <glyph glyph-name="aacute" unicode="&#xe1;" 
d="M168 25q-60 35 -95 97.5t-35 141.5t35 141.5t95 97.5t132 35q59 0 109 -24t78 -66l1 80h83v-528h-83l-1 80q-28 -42 -78 -66t-109 -24q-72 0 -132 35zM153.5 167q23.5 -43 64.5 -67t92 -24q49 0 89 22t63.5 64.5t23.5 101.5t-23.5 101.5t-63.5 65t-89 22.5q-51 0 -92 -24
t-64.5 -67t-23.5 -98q0 -54 23.5 -97zM394 771h109l-140 -160h-85z" />
    <glyph glyph-name="acircumflex" unicode="&#xe2;" 
d="M168 25q-60 35 -95 97.5t-35 141.5t35 141.5t95 97.5t132 35q59 0 109 -24t78 -66l1 80h83v-528h-83l-1 80q-28 -42 -78 -66t-109 -24q-72 0 -132 35zM153.5 167q23.5 -43 64.5 -67t92 -24q49 0 89 22t63.5 64.5t23.5 101.5t-23.5 101.5t-63.5 65t-89 22.5q-51 0 -92 -24
t-64.5 -67t-23.5 -98q0 -54 23.5 -97zM283 771h93l118 -160h-77l-88 104l-89 -104h-76z" />
    <glyph glyph-name="atilde" unicode="&#xe3;" 
d="M168 25q-60 35 -95 97.5t-35 141.5t35 141.5t95 97.5t132 35q59 0 109 -24t78 -66l1 80h83v-528h-83l-1 80q-28 -42 -78 -66t-109 -24q-72 0 -132 35zM153.5 167q23.5 -43 64.5 -67t92 -24q49 0 89 22t63.5 64.5t23.5 101.5t-23.5 101.5t-63.5 65t-89 22.5q-51 0 -92 -24
t-64.5 -67t-23.5 -98q0 -54 23.5 -97zM354 624q-17 8 -43 25q-17 13 -29 19t-25 6q-38 0 -41 -54h-64q0 61 28 92.5t71 31.5q24 0 41 -8t43 -25q19 -13 30.5 -19t24.5 -6q18 0 28.5 13.5t11.5 41.5h65q0 -60 -27.5 -92.5t-72.5 -32.5q-24 0 -41 8z" />
    <glyph glyph-name="adieresis" unicode="&#xe4;" 
d="M168 25q-60 35 -95 97.5t-35 141.5t35 141.5t95 97.5t132 35q59 0 109 -24t78 -66l1 80h83v-528h-83l-1 80q-28 -42 -78 -66t-109 -24q-72 0 -132 35zM153.5 167q23.5 -43 64.5 -67t92 -24q49 0 89 22t63.5 64.5t23.5 101.5t-23.5 101.5t-63.5 65t-89 22.5q-51 0 -92 -24
t-64.5 -67t-23.5 -98q0 -54 23.5 -97zM405 751h83v-123h-83v123zM170 751h84v-123h-84v123z" />
    <glyph glyph-name="aring" unicode="&#xe5;" 
d="M168 25q-60 35 -95 97.5t-35 141.5t35 141.5t95 97.5t132 35q59 0 109 -24t78 -66l1 80h83v-528h-83l-1 80q-28 -42 -78 -66t-109 -24q-72 0 -132 35zM153.5 167q23.5 -43 64.5 -67t92 -24q49 0 89 22t63.5 64.5t23.5 101.5t-23.5 101.5t-63.5 65t-89 22.5q-51 0 -92 -24
t-64.5 -67t-23.5 -98q0 -54 23.5 -97zM257.5 618.5q-26.5 25.5 -26.5 65.5q0 41 26.5 65.5t70.5 24.5q45 0 71.5 -24.5t26.5 -65.5q0 -40 -27 -65.5t-71 -25.5t-70.5 25.5zM295 650q13 -13 33 -13q21 0 34 13t13 34t-13 33.5t-34 12.5t-33.5 -12.5t-12.5 -33.5t13 -34z" />
    <glyph glyph-name="ae" unicode="&#xe6;" horiz-adv-x="918" 
d="M78.5 35q-50.5 45 -50.5 118q0 75 53.5 121.5t147.5 46.5h136v13q0 64 -35 92.5t-116 28.5q-59 0 -131 -13v80q78 13 139 13q84 0 133 -27.5t66 -83.5q34 56 88 85t120 29q69 0 127 -32t91.5 -96t32.5 -158h-432q1 -51 24 -92t65 -65t98 -24q58 0 103.5 26.5t75.5 75.5
l65 -47q-38 -60 -99.5 -98t-143.5 -38q-78 0 -136.5 33t-90.5 93q-24 -59 -75 -92.5t-121 -33.5q-84 0 -134.5 45zM145.5 90q29.5 -25 78.5 -25q62 0 101.5 38t39.5 107v42h-125q-60 1 -92 -24.5t-32 -69.5q0 -43 29.5 -68zM790 321q-12 68 -56.5 103.5t-106.5 35.5
q-69 0 -115.5 -39t-59.5 -100h338z" />
    <glyph glyph-name="ccedilla" unicode="&#xe7;" horiz-adv-x="431" 
d="M169 27.5q-62 34.5 -96.5 96t-34.5 139.5q0 79 34.5 140.5t96.5 96t140 34.5q42 0 85 -7v-85q-43 7 -75 7q-85 0 -137 -51.5t-52 -134.5q0 -82 51.5 -133t137.5 -51q29 0 75 6v-85q-43 -7 -85 -7q-78 0 -140 34.5zM170 -198l61 143h100l-80 -143h-81z" />
    <glyph glyph-name="egrave" unicode="&#xe8;" horiz-adv-x="592" 
d="M168 25.5q-62 35.5 -96 97.5t-34 139q0 78 34.5 141t95 99t135.5 36q69 0 127 -32t91.5 -96t32.5 -158h-430q4 -79 55 -130t131 -51q57 0 103 26.5t76 75.5l64 -47q-38 -60 -99.5 -98t-144.5 -38q-79 0 -141 35.5zM464 321q-12 68 -56 103.5t-106 35.5
q-65 0 -111.5 -38.5t-61.5 -100.5h335zM128 771h111l116 -160h-87z" />
    <glyph glyph-name="eacute" unicode="&#xe9;" horiz-adv-x="592" 
d="M168 25.5q-62 35.5 -96 97.5t-34 139q0 78 34.5 141t95 99t135.5 36q69 0 127 -32t91.5 -96t32.5 -158h-430q4 -79 55 -130t131 -51q57 0 103 26.5t76 75.5l64 -47q-38 -60 -99.5 -98t-144.5 -38q-79 0 -141 35.5zM464 321q-12 68 -56 103.5t-106 35.5
q-65 0 -111.5 -38.5t-61.5 -100.5h335zM368 771h109l-140 -160h-85z" />
    <glyph glyph-name="ecircumflex" unicode="&#xea;" horiz-adv-x="592" 
d="M168 25.5q-62 35.5 -96 97.5t-34 139q0 78 34.5 141t95 99t135.5 36q69 0 127 -32t91.5 -96t32.5 -158h-430q4 -79 55 -130t131 -51q57 0 103 26.5t76 75.5l64 -47q-38 -60 -99.5 -98t-144.5 -38q-79 0 -141 35.5zM464 321q-12 68 -56 103.5t-106 35.5
q-65 0 -111.5 -38.5t-61.5 -100.5h335zM257 771h93l118 -160h-77l-88 104l-89 -104h-76z" />
    <glyph glyph-name="edieresis" unicode="&#xeb;" horiz-adv-x="592" 
d="M168 25.5q-62 35.5 -96 97.5t-34 139q0 78 34.5 141t95 99t135.5 36q69 0 127 -32t91.5 -96t32.5 -158h-430q4 -79 55 -130t131 -51q57 0 103 26.5t76 75.5l64 -47q-38 -60 -99.5 -98t-144.5 -38q-79 0 -141 35.5zM464 321q-12 68 -56 103.5t-106 35.5
q-65 0 -111.5 -38.5t-61.5 -100.5h335zM379 751h83v-123h-83v123zM144 751h84v-123h-84v123z" />
    <glyph glyph-name="igrave" unicode="&#xec;" horiz-adv-x="227" 
d="M68 528h92v-528h-92v528zM-61 771h111l116 -160h-87z" />
    <glyph glyph-name="iacute" unicode="&#xed;" horiz-adv-x="227" 
d="M68 528h92v-528h-92v528zM179 771h109l-140 -160h-85z" />
    <glyph glyph-name="icircumflex" unicode="&#xee;" horiz-adv-x="227" 
d="M68 528h92v-528h-92v528zM68 771h93l118 -160h-77l-88 104l-89 -104h-76z" />
    <glyph glyph-name="idieresis" unicode="&#xef;" horiz-adv-x="227" 
d="M68 528h92v-528h-92v528zM190 751h83v-123h-83v123zM-45 751h84v-123h-84v123z" />
    <glyph glyph-name="eth" unicode="&#xf0;" horiz-adv-x="620" 
d="M171 23q-62 35 -97.5 97.5t-35.5 141.5q0 78 34 137.5t93 92.5t131 33q62 0 109 -26q-45 63 -96 118l-202 -46l-13 51l172 41q-35 36 -109 108h114l84 -86l156 37l12 -57l-125 -28q89 -101 136 -191t47 -179q0 -79 -35 -143t-97 -100t-139 -36t-139 35zM154 166
q23 -43 64 -67t92 -24q50 0 91 24.5t64.5 67t23.5 96.5t-23.5 96t-64 65t-91.5 23t-92 -23t-64 -64.5t-23 -96.5q0 -54 23 -97z" />
    <glyph glyph-name="ntilde" unicode="&#xf1;" horiz-adv-x="541" 
d="M117 481q55 59 154 59q98 0 153 -59t55 -164v-317h-92v314q0 67 -30 103t-86 36q-57 0 -87 -35.5t-30 -103.5v-314h-92v317q0 105 55 164zM296 624q-17 8 -43 25q-17 13 -29 19t-25 6q-38 0 -41 -54h-64q0 61 28 92.5t71 31.5q24 0 41 -8t43 -25q19 -13 30.5 -19t24.5 -6
q18 0 28.5 13.5t11.5 41.5h65q0 -60 -27.5 -92.5t-72.5 -32.5q-24 0 -41 8z" />
    <glyph glyph-name="ograve" unicode="&#xf2;" horiz-adv-x="618" 
d="M171.5 23.5q-62.5 35.5 -98 98.5t-35.5 141q0 79 35.5 142t98 99t138.5 36t138 -36t97.5 -99t35.5 -142q0 -78 -35.5 -141t-97.5 -98.5t-138 -35.5t-138.5 35.5zM153.5 166.5q23.5 -42.5 64.5 -67t92 -24.5q50 0 91 24.5t64 67t23 96.5q0 55 -23 98t-64 67.5t-91 24.5
q-51 0 -92 -24.5t-64.5 -67.5t-23.5 -98q0 -54 23.5 -96.5zM135 771h111l116 -160h-87z" />
    <glyph glyph-name="oacute" unicode="&#xf3;" horiz-adv-x="618" 
d="M171.5 23.5q-62.5 35.5 -98 98.5t-35.5 141q0 79 35.5 142t98 99t138.5 36t138 -36t97.5 -99t35.5 -142q0 -78 -35.5 -141t-97.5 -98.5t-138 -35.5t-138.5 35.5zM153.5 166.5q23.5 -42.5 64.5 -67t92 -24.5q50 0 91 24.5t64 67t23 96.5q0 55 -23 98t-64 67.5t-91 24.5
q-51 0 -92 -24.5t-64.5 -67.5t-23.5 -98q0 -54 23.5 -96.5zM375 771h109l-140 -160h-85z" />
    <glyph glyph-name="ocircumflex" unicode="&#xf4;" horiz-adv-x="618" 
d="M171.5 23.5q-62.5 35.5 -98 98.5t-35.5 141q0 79 35.5 142t98 99t138.5 36t138 -36t97.5 -99t35.5 -142q0 -78 -35.5 -141t-97.5 -98.5t-138 -35.5t-138.5 35.5zM153.5 166.5q23.5 -42.5 64.5 -67t92 -24.5q50 0 91 24.5t64 67t23 96.5q0 55 -23 98t-64 67.5t-91 24.5
q-51 0 -92 -24.5t-64.5 -67.5t-23.5 -98q0 -54 23.5 -96.5zM264 771h93l118 -160h-77l-88 104l-89 -104h-76z" />
    <glyph glyph-name="otilde" unicode="&#xf5;" horiz-adv-x="618" 
d="M171.5 23.5q-62.5 35.5 -98 98.5t-35.5 141q0 79 35.5 142t98 99t138.5 36t138 -36t97.5 -99t35.5 -142q0 -78 -35.5 -141t-97.5 -98.5t-138 -35.5t-138.5 35.5zM153.5 166.5q23.5 -42.5 64.5 -67t92 -24.5q50 0 91 24.5t64 67t23 96.5q0 55 -23 98t-64 67.5t-91 24.5
q-51 0 -92 -24.5t-64.5 -67.5t-23.5 -98q0 -54 23.5 -96.5zM335 624q-17 8 -43 25q-17 13 -29 19t-25 6q-38 0 -41 -54h-64q0 61 28 92.5t71 31.5q24 0 41 -8t43 -25q19 -13 30.5 -19t24.5 -6q18 0 28.5 13.5t11.5 41.5h65q0 -60 -27.5 -92.5t-72.5 -32.5q-24 0 -41 8z" />
    <glyph glyph-name="odieresis" unicode="&#xf6;" horiz-adv-x="618" 
d="M171.5 23.5q-62.5 35.5 -98 98.5t-35.5 141q0 79 35.5 142t98 99t138.5 36t138 -36t97.5 -99t35.5 -142q0 -78 -35.5 -141t-97.5 -98.5t-138 -35.5t-138.5 35.5zM153.5 166.5q23.5 -42.5 64.5 -67t92 -24.5q50 0 91 24.5t64 67t23 96.5q0 55 -23 98t-64 67.5t-91 24.5
q-51 0 -92 -24.5t-64.5 -67.5t-23.5 -98q0 -54 23.5 -96.5zM386 751h83v-123h-83v123zM151 751h84v-123h-84v123z" />
    <glyph glyph-name="divide" unicode="&#xf7;" horiz-adv-x="540" 
d="M65 383h410v-80h-410v80zM224 226h92v-103h-92v103zM224 563h92v-104h-92v104z" />
    <glyph glyph-name="oslash" unicode="&#xf8;" horiz-adv-x="622" 
d="M153 36l-32 -36h-81l67 77q-33 37 -50.5 84t-17.5 102q0 79 35.5 142t98 99t138.5 36q87 0 157 -48l32 36h81l-67 -77q33 -37 51 -85t18 -103q0 -78 -36 -141t-98 -98.5t-138 -35.5q-88 0 -158 48zM165 144l247 283q-43 29 -101 29q-52 0 -94 -25t-65.5 -69t-23.5 -99
q0 -68 37 -119zM311 72q52 0 94 25t65.5 68.5t23.5 97.5q0 70 -38 122l-247 -284q47 -29 102 -29z" />
    <glyph glyph-name="ugrave" unicode="&#xf9;" horiz-adv-x="541" 
d="M424 47q-55 -59 -154 -59q-98 0 -153 59t-55 164v317h92v-314q0 -67 30 -103t86 -36q57 0 87 35.5t30 103.5v314h92v-317q0 -105 -55 -164zM93 771h111l116 -160h-87z" />
    <glyph glyph-name="uacute" unicode="&#xfa;" horiz-adv-x="541" 
d="M424 47q-55 -59 -154 -59q-98 0 -153 59t-55 164v317h92v-314q0 -67 30 -103t86 -36q57 0 87 35.5t30 103.5v314h92v-317q0 -105 -55 -164zM333 771h109l-140 -160h-85z" />
    <glyph glyph-name="ucircumflex" unicode="&#xfb;" horiz-adv-x="541" 
d="M424 47q-55 -59 -154 -59q-98 0 -153 59t-55 164v317h92v-314q0 -67 30 -103t86 -36q57 0 87 35.5t30 103.5v314h92v-317q0 -105 -55 -164zM222 771h93l118 -160h-77l-88 104l-89 -104h-76z" />
    <glyph glyph-name="udieresis" unicode="&#xfc;" horiz-adv-x="541" 
d="M424 47q-55 -59 -154 -59q-98 0 -153 59t-55 164v317h92v-314q0 -67 30 -103t86 -36q57 0 87 35.5t30 103.5v314h92v-317q0 -105 -55 -164zM344 751h83v-123h-83v123zM109 751h84v-123h-84v123z" />
    <glyph glyph-name="yacute" unicode="&#xfd;" horiz-adv-x="524" 
d="M222 28l-216 500h103l161 -390l149 390h97l-288 -726h-97zM330 771h109l-140 -160h-85z" />
    <glyph glyph-name="thorn" unicode="&#xfe;" 
d="M68 771h92v-197q0 -60 -3 -117q29 38 77.5 59.5t104.5 21.5q72 0 132 -35t95 -97.5t35 -141.5t-35 -141.5t-95 -97.5t-132 -35q-56 0 -104.5 22t-77.5 60q3 -58 3 -117v-153h-92v969zM175.5 162.5q23.5 -42.5 63 -64.5t88.5 -22q52 0 93 24t64.5 67t23.5 97q0 55 -23 98
t-64.5 67t-92.5 24q-49 0 -89 -22.5t-63.5 -65t-23.5 -101.5t23.5 -101.5z" />
    <glyph glyph-name="ydieresis" unicode="&#xff;" horiz-adv-x="524" 
d="M222 28l-216 500h103l161 -390l149 390h97l-288 -726h-97zM341 751h83v-123h-83v123zM106 751h84v-123h-84v123z" />
    <glyph glyph-name="Amacron" unicode="&#x100;" horiz-adv-x="632" 
d="M269 733h93l253 -733h-101l-51 154h-294l-51 -154h-100zM434 239l-119 359l-118 -359h237zM152 923h328v-73h-328v73z" />
    <glyph glyph-name="amacron" unicode="&#x101;" 
d="M168 25q-60 35 -95 97.5t-35 141.5t35 141.5t95 97.5t132 35q59 0 109 -24t78 -66l1 80h83v-528h-83l-1 80q-28 -42 -78 -66t-109 -24q-72 0 -132 35zM153.5 167q23.5 -43 64.5 -67t92 -24q49 0 89 22t63.5 64.5t23.5 101.5t-23.5 101.5t-63.5 65t-89 22.5q-51 0 -92 -24
t-64.5 -67t-23.5 -98q0 -54 23.5 -97zM165 719h328v-73h-328v73z" />
    <glyph glyph-name="Abreve" unicode="&#x102;" horiz-adv-x="632" 
d="M269 733h93l253 -733h-101l-51 154h-294l-51 -154h-100zM434 239l-119 359l-118 -359h237zM203.5 844.5q-43.5 41.5 -47.5 116.5h70q6 -43 29.5 -64t60.5 -21t60.5 21t29.5 64h70q-4 -75 -47.5 -116.5t-112.5 -41.5t-112.5 41.5z" />
    <glyph glyph-name="abreve" unicode="&#x103;" 
d="M168 25q-60 35 -95 97.5t-35 141.5t35 141.5t95 97.5t132 35q59 0 109 -24t78 -66l1 80h83v-528h-83l-1 80q-28 -42 -78 -66t-109 -24q-72 0 -132 35zM153.5 167q23.5 -43 64.5 -67t92 -24q49 0 89 22t63.5 64.5t23.5 101.5t-23.5 101.5t-63.5 65t-89 22.5q-51 0 -92 -24
t-64.5 -67t-23.5 -98q0 -54 23.5 -97zM216.5 640.5q-43.5 41.5 -47.5 116.5h70q6 -43 29.5 -64t60.5 -21t60.5 21t29.5 64h70q-4 -75 -47.5 -116.5t-112.5 -41.5t-112.5 41.5z" />
    <glyph glyph-name="Aogonek" unicode="&#x104;" horiz-adv-x="632" 
d="M269 733h93l250 -725l4 -8q-42 -17 -64 -38t-22 -49q0 -22 13 -35t37 -13q10 0 40 6v-62q-31 -7 -53 -7q-49 0 -78.5 27t-29.5 72q0 60 54 102l-50 151h-294l-51 -154h-100zM434 239l-119 359l-118 -359h237z" />
    <glyph glyph-name="aogonek" unicode="&#x105;" 
d="M168 25q-60 35 -95 97.5t-35 141.5t35 141.5t95 97.5t132 35q59 0 109 -24t78 -66l1 80h83v-528q-42 -17 -64 -38t-22 -49q0 -22 13 -35t37 -13q10 0 40 6v-62q-31 -7 -53 -7q-49 0 -78.5 27t-29.5 72q0 72 74 116l-1 63q-28 -42 -78 -66t-109 -24q-72 0 -132 35z
M153.5 167q23.5 -43 64.5 -67t92 -24q49 0 89 22t63.5 64.5t23.5 101.5t-23.5 101.5t-63.5 65t-89 22.5q-51 0 -92 -24t-64.5 -67t-23.5 -98q0 -54 23.5 -97z" />
    <glyph glyph-name="Cacute" unicode="&#x106;" horiz-adv-x="573" 
d="M233 39q-87 47 -136.5 132t-49.5 195t49.5 195.5t136.5 132.5t196 47q54 0 103 -9v-89q-56 9 -96 9q-85 0 -150.5 -36t-102 -101t-36.5 -149t36.5 -149t102 -101t150.5 -36q44 0 96 10v-89q-49 -9 -103 -9q-109 0 -196 47zM418 975h109l-140 -160h-85z" />
    <glyph glyph-name="cacute" unicode="&#x107;" horiz-adv-x="431" 
d="M169 27.5q-62 34.5 -96.5 96t-34.5 139.5q0 79 34.5 140.5t96.5 96t140 34.5q42 0 85 -7v-85q-43 7 -75 7q-85 0 -137 -51.5t-52 -134.5q0 -82 51.5 -133t137.5 -51q29 0 75 6v-85q-43 -7 -85 -7q-78 0 -140 34.5zM314 771h109l-140 -160h-85z" />
    <glyph glyph-name="Ccircumflex" unicode="&#x108;" horiz-adv-x="573" 
d="M233 39q-87 47 -136.5 132t-49.5 195t49.5 195.5t136.5 132.5t196 47q54 0 103 -9v-89q-56 9 -96 9q-85 0 -150.5 -36t-102 -101t-36.5 -149t36.5 -149t102 -101t150.5 -36q44 0 96 10v-89q-49 -9 -103 -9q-109 0 -196 47zM307 975h93l118 -160h-77l-88 104l-89 -104h-76
z" />
    <glyph glyph-name="ccircumflex" unicode="&#x109;" horiz-adv-x="431" 
d="M169 27.5q-62 34.5 -96.5 96t-34.5 139.5q0 79 34.5 140.5t96.5 96t140 34.5q42 0 85 -7v-85q-43 7 -75 7q-85 0 -137 -51.5t-52 -134.5q0 -82 51.5 -133t137.5 -51q29 0 75 6v-85q-43 -7 -85 -7q-78 0 -140 34.5zM203 771h93l118 -160h-77l-88 104l-89 -104h-76z" />
    <glyph glyph-name="Cdotaccent" unicode="&#x10a;" horiz-adv-x="573" 
d="M233 39q-87 47 -136.5 132t-49.5 195t49.5 195.5t136.5 132.5t196 47q54 0 103 -9v-89q-56 9 -96 9q-85 0 -150.5 -36t-102 -101t-36.5 -149t36.5 -149t102 -101t150.5 -36q44 0 96 10v-89q-49 -9 -103 -9q-109 0 -196 47zM307 975h92v-148h-92v148z" />
    <glyph glyph-name="cdotaccent" unicode="&#x10b;" horiz-adv-x="431" 
d="M169 27.5q-62 34.5 -96.5 96t-34.5 139.5q0 79 34.5 140.5t96.5 96t140 34.5q42 0 85 -7v-85q-43 7 -75 7q-85 0 -137 -51.5t-52 -134.5q0 -82 51.5 -133t137.5 -51q29 0 75 6v-85q-43 -7 -85 -7q-78 0 -140 34.5zM203 771h92v-148h-92v148z" />
    <glyph glyph-name="Ccaron" unicode="&#x10c;" horiz-adv-x="573" 
d="M233 39q-87 47 -136.5 132t-49.5 195t49.5 195.5t136.5 132.5t196 47q54 0 103 -9v-89q-56 9 -96 9q-85 0 -150.5 -36t-102 -101t-36.5 -149t36.5 -149t102 -101t150.5 -36q44 0 96 10v-89q-49 -9 -103 -9q-109 0 -196 47zM188 975h77l89 -104l88 104h76l-118 -160h-93z
" />
    <glyph glyph-name="ccaron" unicode="&#x10d;" horiz-adv-x="431" 
d="M169 27.5q-62 34.5 -96.5 96t-34.5 139.5q0 79 34.5 140.5t96.5 96t140 34.5q42 0 85 -7v-85q-43 7 -75 7q-85 0 -137 -51.5t-52 -134.5q0 -82 51.5 -133t137.5 -51q29 0 75 6v-85q-43 -7 -85 -7q-78 0 -140 34.5zM84 771h77l89 -104l88 104h76l-118 -160h-93z" />
    <glyph glyph-name="Dcaron" unicode="&#x10e;" horiz-adv-x="709" 
d="M90 733h194q109 0 195 -45.5t134.5 -128.5t48.5 -193t-48.5 -193t-134.5 -128t-195 -45h-194v733zM284 92q82 0 145 33.5t98 95.5t35 145t-35 145t-98 96t-145 34h-98v-549h98zM137 975h77l89 -104l88 104h76l-118 -160h-93z" />
    <glyph glyph-name="dcaron" unicode="&#x10f;" 
d="M168 25q-60 35 -95 97.5t-35 141.5t35 141.5t95 97.5t132 35q56 0 104 -21.5t77 -59.5q-2 72 -2 113v201h92v-771h-83l-1 80q-28 -42 -78 -66t-109 -24q-72 0 -132 35zM153.5 167q23.5 -43 64.5 -67t92 -24q49 0 89 22t63.5 64.5t23.5 101.5t-23.5 101.5t-63.5 65
t-89 22.5q-51 0 -92 -24t-64.5 -67t-23.5 -98q0 -54 23.5 -97zM649 771h89l-34 -206h-69z" />
    <glyph glyph-name="Dcroat" unicode="&#x110;" horiz-adv-x="731" 
d="M118 333h-101v90h101v310h188q108 0 194 -45.5t135 -128.5t49 -193t-49 -193t-135 -128t-194 -45h-188v333zM306 92q82 0 145 33.5t98 95.5t35 145t-35 145t-98 96t-145 34h-91v-218h154v-90h-154v-241h91z" />
    <glyph glyph-name="dcroat" unicode="&#x111;" 
d="M168 25q-60 35 -95 97.5t-35 141.5t35 141.5t95 97.5t132 35q56 0 104 -21.5t77 -59.5q-2 72 -2 113v39h-152v75h152v87h92v-87h51v-75h-51v-609h-83l-1 80q-28 -42 -78 -66t-109 -24q-72 0 -132 35zM153.5 167q23.5 -43 64.5 -67t92 -24q49 0 89 22t63.5 64.5
t23.5 101.5t-23.5 101.5t-63.5 65t-89 22.5q-51 0 -92 -24t-64.5 -67t-23.5 -98q0 -54 23.5 -97z" />
    <glyph glyph-name="Emacron" unicode="&#x112;" horiz-adv-x="535" 
d="M90 733h378v-90h-282v-220h279v-90h-279v-243h287v-90h-383v733zM117 923h328v-73h-328v73z" />
    <glyph glyph-name="emacron" unicode="&#x113;" horiz-adv-x="592" 
d="M168 25.5q-62 35.5 -96 97.5t-34 139q0 78 34.5 141t95 99t135.5 36q69 0 127 -32t91.5 -96t32.5 -158h-430q4 -79 55 -130t131 -51q57 0 103 26.5t76 75.5l64 -47q-38 -60 -99.5 -98t-144.5 -38q-79 0 -141 35.5zM464 321q-12 68 -56 103.5t-106 35.5
q-65 0 -111.5 -38.5t-61.5 -100.5h335zM139 719h328v-73h-328v73z" />
    <glyph glyph-name="Ebreve" unicode="&#x114;" horiz-adv-x="535" 
d="M90 733h378v-90h-282v-220h279v-90h-279v-243h287v-90h-383v733zM168.5 844.5q-43.5 41.5 -47.5 116.5h70q6 -43 29.5 -64t60.5 -21t60.5 21t29.5 64h70q-4 -75 -47.5 -116.5t-112.5 -41.5t-112.5 41.5z" />
    <glyph glyph-name="ebreve" unicode="&#x115;" horiz-adv-x="592" 
d="M168 25.5q-62 35.5 -96 97.5t-34 139q0 78 34.5 141t95 99t135.5 36q69 0 127 -32t91.5 -96t32.5 -158h-430q4 -79 55 -130t131 -51q57 0 103 26.5t76 75.5l64 -47q-38 -60 -99.5 -98t-144.5 -38q-79 0 -141 35.5zM464 321q-12 68 -56 103.5t-106 35.5
q-65 0 -111.5 -38.5t-61.5 -100.5h335zM190.5 640.5q-43.5 41.5 -47.5 116.5h70q6 -43 29.5 -64t60.5 -21t60.5 21t29.5 64h70q-4 -75 -47.5 -116.5t-112.5 -41.5t-112.5 41.5z" />
    <glyph glyph-name="Edotaccent" unicode="&#x116;" horiz-adv-x="535" 
d="M90 733h378v-90h-282v-220h279v-90h-279v-243h287v-90h-383v733zM235 975h92v-148h-92v148z" />
    <glyph glyph-name="edotaccent" unicode="&#x117;" horiz-adv-x="592" 
d="M168 25.5q-62 35.5 -96 97.5t-34 139q0 78 34.5 141t95 99t135.5 36q69 0 127 -32t91.5 -96t32.5 -158h-430q4 -79 55 -130t131 -51q57 0 103 26.5t76 75.5l64 -47q-38 -60 -99.5 -98t-144.5 -38q-79 0 -141 35.5zM464 321q-12 68 -56 103.5t-106 35.5
q-65 0 -111.5 -38.5t-61.5 -100.5h335zM257 771h92v-148h-92v148z" />
    <glyph glyph-name="Eogonek" unicode="&#x118;" horiz-adv-x="535" 
d="M90 733h378v-90h-282v-220h279v-90h-279v-243h287v-90q-42 -17 -64 -38t-22 -49q0 -22 13 -35t37 -13q10 0 40 6v-62q-31 -7 -53 -7q-49 0 -78.5 27t-29.5 72q0 58 50 99h-276v733z" />
    <glyph glyph-name="eogonek" unicode="&#x119;" horiz-adv-x="592" 
d="M260.5 -171q-29.5 27 -29.5 72q0 53 41 91q-70 8 -123 45t-82 95.5t-29 129.5q0 78 34.5 141t95 99t135.5 36q69 0 127 -32t91.5 -96t32.5 -158h-430q4 -79 55 -130t131 -51q57 0 103 26.5t76 75.5l64 -47q-28 -45 -69.5 -78t-95.5 -48q-42 -17 -64 -38t-22 -49
q0 -22 13 -35t37 -13q10 0 40 6v-62q-31 -7 -53 -7q-49 0 -78.5 27zM464 321q-12 68 -56 103.5t-106 35.5q-65 0 -111.5 -38.5t-61.5 -100.5h335z" />
    <glyph glyph-name="Ecaron" unicode="&#x11a;" horiz-adv-x="535" 
d="M90 733h378v-90h-282v-220h279v-90h-279v-243h287v-90h-383v733zM116 975h77l89 -104l88 104h76l-118 -160h-93z" />
    <glyph glyph-name="ecaron" unicode="&#x11b;" horiz-adv-x="592" 
d="M168 25.5q-62 35.5 -96 97.5t-34 139q0 78 34.5 141t95 99t135.5 36q69 0 127 -32t91.5 -96t32.5 -158h-430q4 -79 55 -130t131 -51q57 0 103 26.5t76 75.5l64 -47q-38 -60 -99.5 -98t-144.5 -38q-79 0 -141 35.5zM464 321q-12 68 -56 103.5t-106 35.5
q-65 0 -111.5 -38.5t-61.5 -100.5h335zM138 771h77l89 -104l88 104h76l-118 -160h-93z" />
    <glyph glyph-name="Gcircumflex" unicode="&#x11c;" horiz-adv-x="817" 
d="M232 36q-86 48 -135.5 134t-49.5 195q0 110 49.5 196.5t136 135t191.5 48.5q83 0 156 -30.5t126 -88.5l-69 -69q-38 45 -94 70.5t-119 25.5q-79 0 -142.5 -37t-99.5 -103t-36 -148t36 -147.5t99 -102t141 -36.5q69 0 124.5 29.5t89.5 84t39 127.5h-276v87h378v-38
q0 -116 -46 -202.5t-126.5 -132.5t-182.5 -46q-104 0 -190 48zM369 975h93l118 -160h-77l-88 104l-89 -104h-76z" />
    <glyph glyph-name="gcircumflex" unicode="&#x11d;" 
d="M178 -114h108q98 0 146.5 39.5t49.5 122.5v40q-28 -39 -75 -61t-105 -22q-73 0 -133 33.5t-95 94t-35 137.5t34.5 138.5t94.5 95.5t132 34q59 0 109.5 -24t78.5 -66l1 80h83v-473q0 -122 -73.5 -187.5t-215.5 -65.5h-105v84zM154 176.5q23 -41.5 64.5 -65t93.5 -23.5
q75 0 125 47.5t50 132.5q0 58 -23.5 99.5t-63.5 63.5t-89 22q-51 0 -92.5 -23.5t-64.5 -65t-23 -94.5q0 -52 23 -93.5zM283 771h93l118 -160h-77l-88 104l-89 -104h-76z" />
    <glyph glyph-name="Gbreve" unicode="&#x11e;" horiz-adv-x="817" 
d="M232 36q-86 48 -135.5 134t-49.5 195q0 110 49.5 196.5t136 135t191.5 48.5q83 0 156 -30.5t126 -88.5l-69 -69q-38 45 -94 70.5t-119 25.5q-79 0 -142.5 -37t-99.5 -103t-36 -148t36 -147.5t99 -102t141 -36.5q69 0 124.5 29.5t89.5 84t39 127.5h-276v87h378v-38
q0 -116 -46 -202.5t-126.5 -132.5t-182.5 -46q-104 0 -190 48zM303.5 844.5q-43.5 41.5 -47.5 116.5h70q6 -43 29.5 -64t60.5 -21t60.5 21t29.5 64h70q-4 -75 -47.5 -116.5t-112.5 -41.5t-112.5 41.5z" />
    <glyph glyph-name="gbreve" unicode="&#x11f;" 
d="M178 -114h108q98 0 146.5 39.5t49.5 122.5v40q-28 -39 -75 -61t-105 -22q-73 0 -133 33.5t-95 94t-35 137.5t34.5 138.5t94.5 95.5t132 34q59 0 109.5 -24t78.5 -66l1 80h83v-473q0 -122 -73.5 -187.5t-215.5 -65.5h-105v84zM154 176.5q23 -41.5 64.5 -65t93.5 -23.5
q75 0 125 47.5t50 132.5q0 58 -23.5 99.5t-63.5 63.5t-89 22q-51 0 -92.5 -23.5t-64.5 -65t-23 -94.5q0 -52 23 -93.5zM216.5 640.5q-43.5 41.5 -47.5 116.5h70q6 -43 29.5 -64t60.5 -21t60.5 21t29.5 64h70q-4 -75 -47.5 -116.5t-112.5 -41.5t-112.5 41.5z" />
    <glyph glyph-name="Gdotaccent" unicode="&#x120;" horiz-adv-x="817" 
d="M232 36q-86 48 -135.5 134t-49.5 195q0 110 49.5 196.5t136 135t191.5 48.5q83 0 156 -30.5t126 -88.5l-69 -69q-38 45 -94 70.5t-119 25.5q-79 0 -142.5 -37t-99.5 -103t-36 -148t36 -147.5t99 -102t141 -36.5q69 0 124.5 29.5t89.5 84t39 127.5h-276v87h378v-38
q0 -116 -46 -202.5t-126.5 -132.5t-182.5 -46q-104 0 -190 48zM369 975h92v-148h-92v148z" />
    <glyph glyph-name="gdotaccent" unicode="&#x121;" 
d="M178 -114h108q98 0 146.5 39.5t49.5 122.5v40q-28 -39 -75 -61t-105 -22q-73 0 -133 33.5t-95 94t-35 137.5t34.5 138.5t94.5 95.5t132 34q59 0 109.5 -24t78.5 -66l1 80h83v-473q0 -122 -73.5 -187.5t-215.5 -65.5h-105v84zM154 176.5q23 -41.5 64.5 -65t93.5 -23.5
q75 0 125 47.5t50 132.5q0 58 -23.5 99.5t-63.5 63.5t-89 22q-51 0 -92.5 -23.5t-64.5 -65t-23 -94.5q0 -52 23 -93.5zM283 771h92v-148h-92v148z" />
    <glyph glyph-name="uni0122" unicode="&#x122;" horiz-adv-x="817" 
d="M232 36q-86 48 -135.5 134t-49.5 195q0 110 49.5 196.5t136 135t191.5 48.5q83 0 156 -30.5t126 -88.5l-69 -69q-38 45 -94 70.5t-119 25.5q-79 0 -142.5 -37t-99.5 -103t-36 -148t36 -147.5t99 -102t141 -36.5q69 0 124.5 29.5t89.5 84t39 127.5h-276v87h378v-38
q0 -116 -46 -202.5t-126.5 -132.5t-182.5 -46q-104 0 -190 48zM372 -55h92l-50 -143h-72z" />
    <glyph glyph-name="uni0123" unicode="&#x123;" 
d="M178 -114h108q98 0 146.5 39.5t49.5 122.5v40q-28 -39 -75 -61t-105 -22q-73 0 -133 33.5t-95 94t-35 137.5t34.5 138.5t94.5 95.5t132 34q59 0 109.5 -24t78.5 -66l1 80h83v-473q0 -122 -73.5 -187.5t-215.5 -65.5h-105v84zM154 176.5q23 -41.5 64.5 -65t93.5 -23.5
q75 0 125 47.5t50 132.5q0 58 -23.5 99.5t-63.5 63.5t-89 22q-51 0 -92.5 -23.5t-64.5 -65t-23 -94.5q0 -52 23 -93.5zM332 753h72l-30 -142h-92z" />
    <glyph glyph-name="Hcircumflex" unicode="&#x124;" horiz-adv-x="691" 
d="M505 332h-319v-332h-96v733h96v-309h319v309h97v-733h-97v332zM300 975h93l118 -160h-77l-88 104l-89 -104h-76z" />
    <glyph glyph-name="hcircumflex" unicode="&#x125;" horiz-adv-x="548" 
d="M68 771h92v-199q0 -35 -2 -99q23 32 59 49.5t83 17.5q88 0 136.5 -58t48.5 -163v-319h-92v313q0 68 -29.5 104t-86.5 36t-87 -35.5t-30 -104.5v-313h-92v771zM68 1013h93l118 -160h-77l-88 104l-89 -104h-76z" />
    <glyph glyph-name="Hbar" unicode="&#x126;" horiz-adv-x="701" 
d="M510 323h-319v-323h-97v536h-61v79h61v118h97v-118h319v118h96v-118h61v-79h-61v-536h-96v323zM510 415v121h-319v-121h319z" />
    <glyph glyph-name="hbar" unicode="&#x127;" horiz-adv-x="548" 
d="M68 609h-52v75h52v87h92v-87h151v-75h-151v-37q0 -35 -2 -99q23 32 59 49.5t83 17.5q88 0 136.5 -58t48.5 -163v-319h-92v313q0 68 -29.5 104t-86.5 36t-87 -35.5t-30 -104.5v-313h-92v609z" />
    <glyph glyph-name="Itilde" unicode="&#x128;" horiz-adv-x="276" 
d="M90 733h96v-733h-96v733zM163 828q-17 8 -43 25q-17 13 -29 19t-25 6q-38 0 -41 -54h-64q0 61 28 92.5t71 31.5q24 0 41 -8t43 -25q19 -13 30.5 -19t24.5 -6q18 0 28.5 13.5t11.5 41.5h65q0 -60 -27.5 -92.5t-72.5 -32.5q-24 0 -41 8z" />
    <glyph glyph-name="itilde" unicode="&#x129;" horiz-adv-x="227" 
d="M68 528h92v-528h-92v528zM139 624q-17 8 -43 25q-17 13 -29 19t-25 6q-38 0 -41 -54h-64q0 61 28 92.5t71 31.5q24 0 41 -8t43 -25q19 -13 30.5 -19t24.5 -6q18 0 28.5 13.5t11.5 41.5h65q0 -60 -27.5 -92.5t-72.5 -32.5q-24 0 -41 8z" />
    <glyph glyph-name="Imacron" unicode="&#x12a;" horiz-adv-x="276" 
d="M90 733h96v-733h-96v733zM-26 923h328v-73h-328v73z" />
    <glyph glyph-name="imacron" unicode="&#x12b;" horiz-adv-x="227" 
d="M-30 718h288v-72h-288v72zM68 528h92v-528h-92v528z" />
    <glyph glyph-name="Ibreve" unicode="&#x12c;" horiz-adv-x="276" 
d="M90 733h96v-733h-96v733zM25.5 844.5q-43.5 41.5 -47.5 116.5h70q6 -43 29.5 -64t60.5 -21t60.5 21t29.5 64h70q-4 -75 -47.5 -116.5t-112.5 -41.5t-112.5 41.5z" />
    <glyph glyph-name="ibreve" unicode="&#x12d;" horiz-adv-x="227" 
d="M68 528h92v-528h-92v528zM1.5 640.5q-43.5 41.5 -47.5 116.5h70q6 -43 29.5 -64t60.5 -21t60.5 21t29.5 64h70q-4 -75 -47.5 -116.5t-112.5 -41.5t-112.5 41.5z" />
    <glyph glyph-name="Iogonek" unicode="&#x12e;" horiz-adv-x="276" 
d="M59.5 -171q-29.5 27 -29.5 72q0 63 60 107v725h96v-731l1 -2q-42 -17 -64 -38t-22 -49q0 -22 13 -35t37 -13q10 0 40 6v-62q-31 -7 -53 -7q-49 0 -78.5 27z" />
    <glyph glyph-name="iogonek" unicode="&#x12f;" horiz-adv-x="227" 
d="M68 771h92v-148h-92v148zM68 12v516h92v-528q-42 -17 -64 -38t-22 -49q0 -22 13 -35t37 -13q10 0 40 6v-62q-31 -7 -53 -7q-49 0 -78.5 27t-29.5 72q0 67 65 111z" />
    <glyph glyph-name="Idotaccent" unicode="&#x130;" horiz-adv-x="276" 
d="M90 733h96v-733h-96v733zM92 975h92v-148h-92v148z" />
    <glyph glyph-name="dotlessi" unicode="&#x131;" horiz-adv-x="227" 
d="M68 528h92v-528h-92v528z" />
    <glyph glyph-name="IJ" unicode="&#x132;" horiz-adv-x="633" 
d="M90 733h96v-733h-96v733zM297 86h52q56 0 79.5 24.5t23.5 82.5v540h97v-542q0 -98 -48.5 -147.5t-141.5 -49.5h-62v92z" />
    <glyph glyph-name="ij" unicode="&#x133;" horiz-adv-x="454" 
d="M68 528h92v-528h-92v528zM68 771h92v-148h-92v148zM196 -112h15q45 0 64.5 18.5t19.5 62.5v559h92v-563q0 -80 -42 -121.5t-125 -41.5h-24v86zM295 771h92v-148h-92v148z" />
    <glyph glyph-name="Jcircumflex" unicode="&#x134;" horiz-adv-x="357" 
d="M21 86h52q56 0 79.5 24.5t23.5 82.5v540h97v-542q0 -98 -48.5 -147.5t-141.5 -49.5h-62v92zM178 975h93l118 -160h-77l-88 104l-89 -104h-76z" />
    <glyph glyph-name="jcircumflex" unicode="&#x135;" horiz-adv-x="227" 
d="M-31 -112h15q45 0 64.5 18.5t19.5 62.5v559h92v-563q0 -80 -42 -121.5t-125 -41.5h-24v86zM68 771h93l118 -160h-77l-88 104l-89 -104h-76z" />
    <glyph glyph-name="uni0136" unicode="&#x136;" horiz-adv-x="585" 
d="M186 345v-345h-96v733h96v-311l267 308h117l-296 -343l314 -387h-121zM264 -55h92l-50 -143h-72z" />
    <glyph glyph-name="uni0137" unicode="&#x137;" horiz-adv-x="470" 
d="M160 248v-248h-92v771h92v-463l190 220h109l-211 -246l226 -282h-114zM207 -55h92l-50 -143h-72z" />
    <glyph glyph-name="kgreenlandic" unicode="&#x138;" horiz-adv-x="470" 
d="M160 243v-243h-92v528h92v-225l193 225h108l-213 -251l226 -277h-114z" />
    <glyph glyph-name="Lacute" unicode="&#x139;" horiz-adv-x="484" 
d="M90 733h96v-643h282v-90h-378v733zM203 975h109l-140 -160h-85z" />
    <glyph glyph-name="lacute" unicode="&#x13a;" horiz-adv-x="227" 
d="M68 771h92v-771h-92v771zM179 1013h109l-140 -160h-85z" />
    <glyph glyph-name="uni013B" unicode="&#x13b;" horiz-adv-x="484" 
d="M90 733h96v-643h282v-90h-378v733zM234 -55h92l-50 -143h-72z" />
    <glyph glyph-name="uni013C" unicode="&#x13c;" horiz-adv-x="227" 
d="M68 771h92v-771h-92v771zM69 -55h92l-50 -143h-72z" />
    <glyph glyph-name="Lcaron" unicode="&#x13d;" horiz-adv-x="484" 
d="M90 733h96v-643h282v-90h-378v733zM279 771h89l-34 -206h-69z" />
    <glyph glyph-name="lcaron" unicode="&#x13e;" horiz-adv-x="227" 
d="M68 771h92v-771h-92v771zM238 771h89l-34 -206h-69z" />
    <glyph glyph-name="Ldot" unicode="&#x13f;" horiz-adv-x="499" 
d="M90 733h96v-643h282v-90h-378v733zM331 434h98v-108h-98v108z" />
    <glyph glyph-name="ldot" unicode="&#x140;" horiz-adv-x="379" 
d="M68 771h92v-771h-92v771zM255 410h98v-108h-98v108z" />
    <glyph glyph-name="Lslash" unicode="&#x141;" horiz-adv-x="511" 
d="M44 352l71 41v340h96v-284l151 88v-97l-151 -88v-262h282v-90h-378v296l-71 -42v98z" />
    <glyph glyph-name="lslash" unicode="&#x142;" horiz-adv-x="306" 
d="M109 316l-76 -50v97l76 50v358h92v-298l76 50v-97l-76 -50v-376h-92v316z" />
    <glyph glyph-name="Nacute" unicode="&#x143;" horiz-adv-x="706" 
d="M90 733h93l341 -562v562h92v-733h-93l-341 561v-561h-92v733zM422 975h109l-140 -160h-85z" />
    <glyph glyph-name="nacute" unicode="&#x144;" horiz-adv-x="541" 
d="M117 481q55 59 154 59q98 0 153 -59t55 -164v-317h-92v314q0 67 -30 103t-86 36q-57 0 -87 -35.5t-30 -103.5v-314h-92v317q0 105 55 164zM336 771h109l-140 -160h-85z" />
    <glyph glyph-name="uni0145" unicode="&#x145;" horiz-adv-x="706" 
d="M90 733h93l341 -562v562h92v-733h-93l-341 561v-561h-92v733zM304 -55h92l-50 -143h-72z" />
    <glyph glyph-name="uni0146" unicode="&#x146;" horiz-adv-x="541" 
d="M117 481q55 59 154 59q98 0 153 -59t55 -164v-317h-92v314q0 67 -30 103t-86 36q-57 0 -87 -35.5t-30 -103.5v-314h-92v317q0 105 55 164zM226 -55h92l-50 -143h-72z" />
    <glyph glyph-name="Ncaron" unicode="&#x147;" horiz-adv-x="706" 
d="M90 733h93l341 -562v562h92v-733h-93l-341 561v-561h-92v733zM192 975h77l89 -104l88 104h76l-118 -160h-93z" />
    <glyph glyph-name="ncaron" unicode="&#x148;" horiz-adv-x="541" 
d="M117 481q55 59 154 59q98 0 153 -59t55 -164v-317h-92v314q0 67 -30 103t-86 36q-57 0 -87 -35.5t-30 -103.5v-314h-92v317q0 105 55 164zM106 771h77l89 -104l88 104h76l-118 -160h-93z" />
    <glyph glyph-name="Eng" unicode="&#x14a;" horiz-adv-x="706" 
d="M365 -106h52q56 0 79.5 24.5t23.5 83.5v3l-338 556v-561h-92v733h93l341 -562v562h92v-733q0 -98 -48 -148t-141 -50h-62v92z" />
    <glyph glyph-name="eng" unicode="&#x14b;" horiz-adv-x="541" 
d="M288 -112h16q45 0 64 18.5t19 62.5v345q0 67 -30 103t-86 36q-57 0 -87 -35.5t-30 -103.5v-314h-92v317q0 105 55 164t154 59q98 0 153 -59t55 -164v-352q0 -163 -166 -163h-25v86z" />
    <glyph glyph-name="Omacron" unicode="&#x14c;" horiz-adv-x="844" 
d="M233 36q-86 48 -136 134.5t-50 195.5t50 195.5t136 135t189 48.5t189 -48.5t136 -135t50 -195.5t-50 -195.5t-136 -134.5t-189 -48t-189 48zM183.5 218.5q36.5 -65.5 99.5 -102t139 -36.5t139 36.5t100 102t37 147.5t-37 147.5t-100 102t-139 36.5t-139 -36.5t-99.5 -102
t-36.5 -147.5t36.5 -147.5zM258 923h328v-73h-328v73z" />
    <glyph glyph-name="omacron" unicode="&#x14d;" horiz-adv-x="618" 
d="M171.5 23.5q-62.5 35.5 -98 98.5t-35.5 141q0 79 35.5 142t98 99t138.5 36t138 -36t97.5 -99t35.5 -142q0 -78 -35.5 -141t-97.5 -98.5t-138 -35.5t-138.5 35.5zM153.5 166.5q23.5 -42.5 64.5 -67t92 -24.5q50 0 91 24.5t64 67t23 96.5q0 55 -23 98t-64 67.5t-91 24.5
q-51 0 -92 -24.5t-64.5 -67.5t-23.5 -98q0 -54 23.5 -96.5zM146 719h328v-73h-328v73z" />
    <glyph glyph-name="Obreve" unicode="&#x14e;" horiz-adv-x="844" 
d="M233 36q-86 48 -136 134.5t-50 195.5t50 195.5t136 135t189 48.5t189 -48.5t136 -135t50 -195.5t-50 -195.5t-136 -134.5t-189 -48t-189 48zM183.5 218.5q36.5 -65.5 99.5 -102t139 -36.5t139 36.5t100 102t37 147.5t-37 147.5t-100 102t-139 36.5t-139 -36.5t-99.5 -102
t-36.5 -147.5t36.5 -147.5zM309.5 844.5q-43.5 41.5 -47.5 116.5h70q6 -43 29.5 -64t60.5 -21t60.5 21t29.5 64h70q-4 -75 -47.5 -116.5t-112.5 -41.5t-112.5 41.5z" />
    <glyph glyph-name="obreve" unicode="&#x14f;" horiz-adv-x="618" 
d="M171.5 23.5q-62.5 35.5 -98 98.5t-35.5 141q0 79 35.5 142t98 99t138.5 36t138 -36t97.5 -99t35.5 -142q0 -78 -35.5 -141t-97.5 -98.5t-138 -35.5t-138.5 35.5zM153.5 166.5q23.5 -42.5 64.5 -67t92 -24.5q50 0 91 24.5t64 67t23 96.5q0 55 -23 98t-64 67.5t-91 24.5
q-51 0 -92 -24.5t-64.5 -67.5t-23.5 -98q0 -54 23.5 -96.5zM197.5 640.5q-43.5 41.5 -47.5 116.5h70q6 -43 29.5 -64t60.5 -21t60.5 21t29.5 64h70q-4 -75 -47.5 -116.5t-112.5 -41.5t-112.5 41.5z" />
    <glyph glyph-name="Ohungarumlaut" unicode="&#x150;" horiz-adv-x="844" 
d="M233 36q-86 48 -136 134.5t-50 195.5t50 195.5t136 135t189 48.5t189 -48.5t136 -135t50 -195.5t-50 -195.5t-136 -134.5t-189 -48t-189 48zM183.5 218.5q36.5 -65.5 99.5 -102t139 -36.5t139 36.5t100 102t37 147.5t-37 147.5t-100 102t-139 36.5t-139 -36.5t-99.5 -102
t-36.5 -147.5t36.5 -147.5zM543 975h88l-84 -160h-74zM352 975h88l-80 -160h-74z" />
    <glyph glyph-name="ohungarumlaut" unicode="&#x151;" horiz-adv-x="618" 
d="M171.5 23.5q-62.5 35.5 -98 98.5t-35.5 141q0 79 35.5 142t98 99t138.5 36t138 -36t97.5 -99t35.5 -142q0 -78 -35.5 -141t-97.5 -98.5t-138 -35.5t-138.5 35.5zM153.5 166.5q23.5 -42.5 64.5 -67t92 -24.5q50 0 91 24.5t64 67t23 96.5q0 55 -23 98t-64 67.5t-91 24.5
q-51 0 -92 -24.5t-64.5 -67.5t-23.5 -98q0 -54 23.5 -96.5zM431 771h88l-84 -160h-74zM240 771h88l-80 -160h-74z" />
    <glyph glyph-name="OE" unicode="&#x152;" horiz-adv-x="1126" 
d="M233 36q-86 48 -136 134.5t-50 195.5t50 195.5t136 135t189 48.5q88 0 160.5 -37t116.5 -102v127h360v-90h-270v-220h267v-90h-267v-243h275v-90h-365v126q-44 -65 -116.5 -101.5t-160.5 -36.5q-103 0 -189 48zM183.5 218.5q36.5 -65.5 100 -102t139.5 -36.5t139 36.5
t99.5 102t36.5 147.5t-36.5 147.5t-99.5 102t-139 36.5t-139.5 -36.5t-100 -102t-36.5 -147.5t36.5 -147.5z" />
    <glyph glyph-name="oe" unicode="&#x153;" horiz-adv-x="1043" 
d="M171 23.5q-62 35.5 -97.5 98.5t-35.5 141q0 79 35.5 142t97.5 99t138 36q72 0 131 -34t94 -94q34 59 91.5 92.5t128.5 33.5q69 0 127 -32t91.5 -96t32.5 -158h-430q4 -79 55 -130t131 -51q57 0 103 26.5t76 75.5l64 -47q-38 -60 -99.5 -98t-144.5 -38q-74 0 -133 33
t-93 91q-35 -60 -94 -93t-131 -33q-76 0 -138 35.5zM153.5 166.5q23.5 -42.5 64.5 -67t92 -24.5q50 0 91 24.5t64 67t23 96.5q0 55 -23 98t-64 67.5t-91 24.5q-51 0 -92 -24.5t-64.5 -67.5t-23.5 -98q0 -54 23.5 -96.5zM915 321q-12 68 -56.5 103.5t-105.5 35.5
q-65 0 -111.5 -38.5t-61.5 -100.5h335z" />
    <glyph glyph-name="Racute" unicode="&#x154;" horiz-adv-x="580" 
d="M186 326v-326h-96v733h200q106 0 166.5 -54.5t60.5 -152.5q0 -57 -26.5 -102t-76.5 -71t-116 -27l266 -326h-119zM284 404q63 0 99 33t36 89t-35.5 88.5t-99.5 32.5h-98v-243h98zM340 975h109l-140 -160h-85z" />
    <glyph glyph-name="racute" unicode="&#x155;" horiz-adv-x="301" 
d="M104.5 487.5q40.5 40.5 122.5 40.5h59v-84h-51q-42 0 -60.5 -18t-18.5 -63v-363h-92v362q0 85 40.5 125.5zM251 771h109l-140 -160h-85z" />
    <glyph glyph-name="uni0156" unicode="&#x156;" horiz-adv-x="580" 
d="M186 326v-326h-96v733h200q106 0 166.5 -54.5t60.5 -152.5q0 -57 -26.5 -102t-76.5 -71t-116 -27l266 -326h-119zM284 404q63 0 99 33t36 89t-35.5 88.5t-99.5 32.5h-98v-243h98zM258 -55h92l-50 -143h-72z" />
    <glyph glyph-name="uni0157" unicode="&#x157;" horiz-adv-x="301" 
d="M104.5 487.5q40.5 40.5 122.5 40.5h59v-84h-51q-42 0 -60.5 -18t-18.5 -63v-363h-92v362q0 85 40.5 125.5zM65 -55h92l-50 -143h-72z" />
    <glyph glyph-name="Rcaron" unicode="&#x158;" horiz-adv-x="580" 
d="M186 326v-326h-96v733h200q106 0 166.5 -54.5t60.5 -152.5q0 -57 -26.5 -102t-76.5 -71t-116 -27l266 -326h-119zM284 404q63 0 99 33t36 89t-35.5 88.5t-99.5 32.5h-98v-243h98zM110 975h77l89 -104l88 104h76l-118 -160h-93z" />
    <glyph glyph-name="rcaron" unicode="&#x159;" horiz-adv-x="301" 
d="M104.5 487.5q40.5 40.5 122.5 40.5h59v-84h-51q-42 0 -60.5 -18t-18.5 -63v-363h-92v362q0 85 40.5 125.5zM21 771h77l89 -104l88 104h76l-118 -160h-93z" />
    <glyph glyph-name="Sacute" unicode="&#x15a;" horiz-adv-x="471" 
d="M53 0v91q77 -7 128 -7q154 0 154 112q0 38 -20.5 67.5t-69.5 60.5l-79 50q-58 38 -86.5 83t-28.5 100q0 86 60.5 135t169.5 49q39 0 103 -8v-87q-61 8 -100 8q-67 0 -101.5 -24t-34.5 -71q0 -32 18.5 -58t61.5 -53l72 -45q68 -44 100.5 -94t32.5 -112q0 -97 -65.5 -151
t-184.5 -54q-57 0 -130 8zM295 975h109l-140 -160h-85z" />
    <glyph glyph-name="sacute" unicode="&#x15b;" horiz-adv-x="370" 
d="M46 0v81q57 -7 99 -7q51 0 75.5 16.5t24.5 50.5q0 25 -15.5 45t-52.5 44l-35 23q-52 34 -76 68.5t-24 76.5q0 63 46 99.5t127 36.5q38 0 81 -6v-74q-40 4 -68 4q-47 0 -71.5 -15t-24.5 -44q0 -21 16 -39.5t53 -42.5l35 -23q54 -36 78.5 -71.5t24.5 -80.5q0 -70 -50 -109
t-140 -39q-44 0 -103 6zM239 771h109l-140 -160h-85z" />
    <glyph glyph-name="Scircumflex" unicode="&#x15c;" horiz-adv-x="471" 
d="M53 0v91q77 -7 128 -7q154 0 154 112q0 38 -20.5 67.5t-69.5 60.5l-79 50q-58 38 -86.5 83t-28.5 100q0 86 60.5 135t169.5 49q39 0 103 -8v-87q-61 8 -100 8q-67 0 -101.5 -24t-34.5 -71q0 -32 18.5 -58t61.5 -53l72 -45q68 -44 100.5 -94t32.5 -112q0 -97 -65.5 -151
t-184.5 -54q-57 0 -130 8zM184 975h93l118 -160h-77l-88 104l-89 -104h-76z" />
    <glyph glyph-name="scircumflex" unicode="&#x15d;" horiz-adv-x="370" 
d="M46 0v81q57 -7 99 -7q51 0 75.5 16.5t24.5 50.5q0 25 -15.5 45t-52.5 44l-35 23q-52 34 -76 68.5t-24 76.5q0 63 46 99.5t127 36.5q38 0 81 -6v-74q-40 4 -68 4q-47 0 -71.5 -15t-24.5 -44q0 -21 16 -39.5t53 -42.5l35 -23q54 -36 78.5 -71.5t24.5 -80.5q0 -70 -50 -109
t-140 -39q-44 0 -103 6zM128 771h93l118 -160h-77l-88 104l-89 -104h-76z" />
    <glyph glyph-name="Scedilla" unicode="&#x15e;" horiz-adv-x="471" 
d="M53 0v91q77 -7 128 -7q154 0 154 112q0 38 -20.5 67.5t-69.5 60.5l-79 50q-58 38 -86.5 83t-28.5 100q0 86 60.5 135t169.5 49q39 0 103 -8v-87q-61 8 -100 8q-67 0 -101.5 -24t-34.5 -71q0 -32 18.5 -58t61.5 -53l72 -45q68 -44 100.5 -94t32.5 -112q0 -97 -65.5 -151
t-184.5 -54q-57 0 -130 8zM113 -198l61 143h100l-80 -143h-81z" />
    <glyph glyph-name="scedilla" unicode="&#x15f;" horiz-adv-x="370" 
d="M46 0v81q57 -7 99 -7q51 0 75.5 16.5t24.5 50.5q0 25 -15.5 45t-52.5 44l-35 23q-52 34 -76 68.5t-24 76.5q0 63 46 99.5t127 36.5q38 0 81 -6v-74q-40 4 -68 4q-47 0 -71.5 -15t-24.5 -44q0 -21 16 -39.5t53 -42.5l35 -23q54 -36 78.5 -71.5t24.5 -80.5q0 -70 -50 -109
t-140 -39q-44 0 -103 6zM69 -198l61 143h100l-80 -143h-81z" />
    <glyph glyph-name="Scaron" unicode="&#x160;" horiz-adv-x="471" 
d="M53 0v91q77 -7 128 -7q154 0 154 112q0 38 -20.5 67.5t-69.5 60.5l-79 50q-58 38 -86.5 83t-28.5 100q0 86 60.5 135t169.5 49q39 0 103 -8v-87q-61 8 -100 8q-67 0 -101.5 -24t-34.5 -71q0 -32 18.5 -58t61.5 -53l72 -45q68 -44 100.5 -94t32.5 -112q0 -97 -65.5 -151
t-184.5 -54q-57 0 -130 8zM65 975h77l89 -104l88 104h76l-118 -160h-93z" />
    <glyph glyph-name="scaron" unicode="&#x161;" horiz-adv-x="370" 
d="M46 0v81q57 -7 99 -7q51 0 75.5 16.5t24.5 50.5q0 25 -15.5 45t-52.5 44l-35 23q-52 34 -76 68.5t-24 76.5q0 63 46 99.5t127 36.5q38 0 81 -6v-74q-40 4 -68 4q-47 0 -71.5 -15t-24.5 -44q0 -21 16 -39.5t53 -42.5l35 -23q54 -36 78.5 -71.5t24.5 -80.5q0 -70 -50 -109
t-140 -39q-44 0 -103 6zM9 771h77l89 -104l88 104h76l-118 -160h-93z" />
    <glyph glyph-name="uni0162" unicode="&#x162;" horiz-adv-x="496" 
d="M200 643h-185v90h466v-90h-185v-643h-96v643zM135 -198l61 143h100l-80 -143h-81z" />
    <glyph glyph-name="uni0163" unicode="&#x163;" horiz-adv-x="285" 
d="M95 444h-64v84h64v146l92 34v-180h68v-84h-68v-444h-92v444zM28 -198l61 143h100l-80 -143h-81z" />
    <glyph glyph-name="Tcaron" unicode="&#x164;" horiz-adv-x="496" 
d="M200 643h-185v90h466v-90h-185v-643h-96v643zM83 975h77l89 -104l88 104h76l-118 -160h-93z" />
    <glyph glyph-name="tcaron" unicode="&#x165;" horiz-adv-x="285" 
d="M95 444h-64v84h64v146l92 34v-180h68v-84h-68v-444h-92v444zM265 771h89l-34 -206h-69z" />
    <glyph glyph-name="Tbar" unicode="&#x166;" horiz-adv-x="525" 
d="M86 408h128v235h-185v90h467v-90h-185v-235h128v-79h-128v-329h-97v329h-128v79z" />
    <glyph glyph-name="tbar" unicode="&#x167;" horiz-adv-x="288" 
d="M96 276h-64v75h64v93h-64v84h64v146l92 34v-180h68v-84h-68v-93h68v-75h-68v-276h-92v276z" />
    <glyph glyph-name="Utilde" unicode="&#x168;" horiz-adv-x="675" 
d="M149.5 61q-67.5 73 -67.5 205v467h97v-459q0 -95 40.5 -144.5t117.5 -49.5q78 0 118.5 49t40.5 145v459h97v-467q0 -132 -67.5 -205t-188.5 -73q-120 0 -187.5 73zM363 828q-17 8 -43 25q-17 13 -29 19t-25 6q-38 0 -41 -54h-64q0 61 28 92.5t71 31.5q24 0 41 -8t43 -25
q19 -13 30.5 -19t24.5 -6q18 0 28.5 13.5t11.5 41.5h65q0 -60 -27.5 -92.5t-72.5 -32.5q-24 0 -41 8z" />
    <glyph glyph-name="utilde" unicode="&#x169;" horiz-adv-x="541" 
d="M424 47q-55 -59 -154 -59q-98 0 -153 59t-55 164v317h92v-314q0 -67 30 -103t86 -36q57 0 87 35.5t30 103.5v314h92v-317q0 -105 -55 -164zM293 624q-17 8 -43 25q-17 13 -29 19t-25 6q-38 0 -41 -54h-64q0 61 28 92.5t71 31.5q24 0 41 -8t43 -25q19 -13 30.5 -19
t24.5 -6q18 0 28.5 13.5t11.5 41.5h65q0 -60 -27.5 -92.5t-72.5 -32.5q-24 0 -41 8z" />
    <glyph glyph-name="Umacron" unicode="&#x16a;" horiz-adv-x="675" 
d="M149.5 61q-67.5 73 -67.5 205v467h97v-459q0 -95 40.5 -144.5t117.5 -49.5q78 0 118.5 49t40.5 145v459h97v-467q0 -132 -67.5 -205t-188.5 -73q-120 0 -187.5 73zM174 923h328v-73h-328v73z" />
    <glyph glyph-name="umacron" unicode="&#x16b;" horiz-adv-x="541" 
d="M424 47q-55 -59 -154 -59q-98 0 -153 59t-55 164v317h92v-314q0 -67 30 -103t86 -36q57 0 87 35.5t30 103.5v314h92v-317q0 -105 -55 -164zM104 719h328v-73h-328v73z" />
    <glyph glyph-name="Ubreve" unicode="&#x16c;" horiz-adv-x="675" 
d="M149.5 61q-67.5 73 -67.5 205v467h97v-459q0 -95 40.5 -144.5t117.5 -49.5q78 0 118.5 49t40.5 145v459h97v-467q0 -132 -67.5 -205t-188.5 -73q-120 0 -187.5 73zM225.5 844.5q-43.5 41.5 -47.5 116.5h70q6 -43 29.5 -64t60.5 -21t60.5 21t29.5 64h70
q-4 -75 -47.5 -116.5t-112.5 -41.5t-112.5 41.5z" />
    <glyph glyph-name="ubreve" unicode="&#x16d;" horiz-adv-x="541" 
d="M424 47q-55 -59 -154 -59q-98 0 -153 59t-55 164v317h92v-314q0 -67 30 -103t86 -36q57 0 87 35.5t30 103.5v314h92v-317q0 -105 -55 -164zM155.5 640.5q-43.5 41.5 -47.5 116.5h70q6 -43 29.5 -64t60.5 -21t60.5 21t29.5 64h70q-4 -75 -47.5 -116.5t-112.5 -41.5
t-112.5 41.5z" />
    <glyph glyph-name="Uring" unicode="&#x16e;" horiz-adv-x="675" 
d="M149.5 61q-67.5 73 -67.5 205v467h97v-459q0 -95 40.5 -144.5t117.5 -49.5q78 0 118.5 49t40.5 145v459h97v-467q0 -132 -67.5 -205t-188.5 -73q-120 0 -187.5 73zM266.5 822.5q-26.5 25.5 -26.5 65.5q0 41 26.5 65.5t70.5 24.5q45 0 71.5 -24.5t26.5 -65.5
q0 -40 -27 -65.5t-71 -25.5t-70.5 25.5zM304 854q13 -13 33 -13q21 0 34 13t13 34t-13 33.5t-34 12.5t-33.5 -12.5t-12.5 -33.5t13 -34z" />
    <glyph glyph-name="uring" unicode="&#x16f;" horiz-adv-x="541" 
d="M424 47q-55 -59 -154 -59q-98 0 -153 59t-55 164v317h92v-314q0 -67 30 -103t86 -36q57 0 87 35.5t30 103.5v314h92v-317q0 -105 -55 -164zM196.5 618.5q-26.5 25.5 -26.5 65.5q0 41 26.5 65.5t70.5 24.5q45 0 71.5 -24.5t26.5 -65.5q0 -40 -27 -65.5t-71 -25.5
t-70.5 25.5zM234 650q13 -13 33 -13q21 0 34 13t13 34t-13 33.5t-34 12.5t-33.5 -12.5t-12.5 -33.5t13 -34z" />
    <glyph glyph-name="Uhungarumlaut" unicode="&#x170;" horiz-adv-x="675" 
d="M149.5 61q-67.5 73 -67.5 205v467h97v-459q0 -95 40.5 -144.5t117.5 -49.5q78 0 118.5 49t40.5 145v459h97v-467q0 -132 -67.5 -205t-188.5 -73q-120 0 -187.5 73zM459 975h88l-84 -160h-74zM268 975h88l-80 -160h-74z" />
    <glyph glyph-name="uhungarumlaut" unicode="&#x171;" horiz-adv-x="541" 
d="M424 47q-55 -59 -154 -59q-98 0 -153 59t-55 164v317h92v-314q0 -67 30 -103t86 -36q57 0 87 35.5t30 103.5v314h92v-317q0 -105 -55 -164zM389 771h88l-84 -160h-74zM198 771h88l-80 -160h-74z" />
    <glyph glyph-name="Uogonek" unicode="&#x172;" horiz-adv-x="675" 
d="M298.5 -171q-29.5 27 -29.5 72q0 51 38 88q-107 9 -166 81t-59 196v467h97v-459q0 -95 40.5 -144.5t117.5 -49.5q78 0 118.5 49t40.5 145v459h97v-467q0 -105 -43.5 -173.5t-123.5 -92.5q-42 -17 -64 -38t-22 -49q0 -22 13 -35t37 -13q10 0 40 6v-62q-31 -7 -53 -7
q-49 0 -78.5 27z" />
    <glyph glyph-name="uogonek" unicode="&#x173;" horiz-adv-x="541" 
d="M439.5 66.5q-39.5 -56.5 -111.5 -72.5q-72 -33 -72 -81q0 -22 13 -35t37 -13q10 0 40 6v-62q-31 -7 -53 -7q-49 0 -78.5 27t-29.5 72q0 52 40 91q-78 13 -120.5 70t-42.5 149v317h92v-314q0 -67 30 -103t86 -36q57 0 87 35.5t30 103.5v314h92v-317q0 -88 -39.5 -144.5z
" />
    <glyph glyph-name="Wcircumflex" unicode="&#x174;" horiz-adv-x="1000" 
d="M27 733h99l154 -577l175 577h90l179 -579l151 579h97l-198 -733h-94l-180 575l-179 -575h-94zM455 975h93l118 -160h-77l-88 104l-89 -104h-76z" />
    <glyph glyph-name="wcircumflex" unicode="&#x175;" horiz-adv-x="816" 
d="M15 528h97l124 -405l133 405h85l131 -398l124 398h95l-175 -528h-84l-135 398l-136 -398h-90zM366 771h93l118 -160h-77l-88 104l-89 -104h-76z" />
    <glyph glyph-name="Ycircumflex" unicode="&#x176;" horiz-adv-x="586" 
d="M246 289l-227 444h110l166 -340l166 340h103l-222 -444v-289h-96v289zM249 975h93l118 -160h-77l-88 104l-89 -104h-76z" />
    <glyph glyph-name="ycircumflex" unicode="&#x177;" horiz-adv-x="524" 
d="M222 28l-216 500h103l161 -390l149 390h97l-288 -726h-97zM219 771h93l118 -160h-77l-88 104l-89 -104h-76z" />
    <glyph glyph-name="Ydieresis" unicode="&#x178;" horiz-adv-x="586" 
d="M246 289l-227 444h110l166 -340l166 340h103l-222 -444v-289h-96v289zM371 955h83v-123h-83v123zM136 955h84v-123h-84v123z" />
    <glyph glyph-name="Zacute" unicode="&#x179;" horiz-adv-x="531" 
d="M19 15l340 626h-312l17 92h440v-15l-340 -626h338l-18 -92h-465v15zM347 975h109l-140 -160h-85z" />
    <glyph glyph-name="zacute" unicode="&#x17a;" horiz-adv-x="456" 
d="M20 15l270 429h-253l16 84h376v-14l-270 -430h270l-15 -84h-394v15zM302 771h109l-140 -160h-85z" />
    <glyph glyph-name="Zdotaccent" unicode="&#x17b;" horiz-adv-x="531" 
d="M19 15l340 626h-312l17 92h440v-15l-340 -626h338l-18 -92h-465v15zM236 975h92v-148h-92v148z" />
    <glyph glyph-name="zdotaccent" unicode="&#x17c;" horiz-adv-x="456" 
d="M20 15l270 429h-253l16 84h376v-14l-270 -430h270l-15 -84h-394v15zM191 771h92v-148h-92v148z" />
    <glyph glyph-name="Zcaron" unicode="&#x17d;" horiz-adv-x="531" 
d="M19 15l340 626h-312l17 92h440v-15l-340 -626h338l-18 -92h-465v15zM117 975h77l89 -104l88 104h76l-118 -160h-93z" />
    <glyph glyph-name="zcaron" unicode="&#x17e;" horiz-adv-x="456" 
d="M20 15l270 429h-253l16 84h376v-14l-270 -430h270l-15 -84h-394v15zM72 771h77l89 -104l88 104h76l-118 -160h-93z" />
    <glyph glyph-name="florin" unicode="&#x192;" horiz-adv-x="381" 
d="M45 -106h16q45 0 64 18.5t19 62.5v448h-63v92h63v66q0 72 40.5 112t116.5 40h30v-92h-14q-40 0 -58 -17.5t-18 -57.5v-51h68v-92h-68v-459q0 -79 -42.5 -120.5t-125.5 -41.5h-28v92z" />
    <glyph glyph-name="uni0218" unicode="&#x218;" horiz-adv-x="471" 
d="M53 0v91q77 -7 128 -7q154 0 154 112q0 38 -20.5 67.5t-69.5 60.5l-79 50q-58 38 -86.5 83t-28.5 100q0 86 60.5 135t169.5 49q39 0 103 -8v-87q-61 8 -100 8q-67 0 -101.5 -24t-34.5 -71q0 -32 18.5 -58t61.5 -53l72 -45q68 -44 100.5 -94t32.5 -112q0 -97 -65.5 -151
t-184.5 -54q-57 0 -130 8zM181 -55h92l-50 -143h-72z" />
    <glyph glyph-name="uni0219" unicode="&#x219;" horiz-adv-x="370" 
d="M46 0v81q57 -7 99 -7q51 0 75.5 16.5t24.5 50.5q0 25 -15.5 45t-52.5 44l-35 23q-52 34 -76 68.5t-24 76.5q0 63 46 99.5t127 36.5q38 0 81 -6v-74q-40 4 -68 4q-47 0 -71.5 -15t-24.5 -44q0 -21 16 -39.5t53 -42.5l35 -23q54 -36 78.5 -71.5t24.5 -80.5q0 -70 -50 -109
t-140 -39q-44 0 -103 6zM137 -55h92l-50 -143h-72z" />
    <glyph glyph-name="uni021A" unicode="&#x21a;" horiz-adv-x="496" 
d="M200 643h-185v90h466v-90h-185v-643h-96v643zM203 -55h92l-50 -143h-72z" />
    <glyph glyph-name="uni021B" unicode="&#x21b;" horiz-adv-x="285" 
d="M95 444h-64v84h64v146l92 34v-180h68v-84h-68v-444h-92v444zM96 -55h92l-50 -143h-72z" />
    <glyph glyph-name="uni0237" unicode="&#x237;" horiz-adv-x="227" 
d="M-31 -112h15q45 0 64.5 18.5t19.5 62.5v559h92v-563q0 -80 -42 -121.5t-125 -41.5h-24v86z" />
    <glyph glyph-name="circumflex" unicode="&#x2c6;" horiz-adv-x="604" 
d="M256 771h93l118 -160h-77l-88 104l-89 -104h-76z" />
    <glyph glyph-name="caron" unicode="&#x2c7;" horiz-adv-x="604" 
d="M137 771h77l89 -104l88 104h76l-118 -160h-93z" />
    <glyph glyph-name="breve" unicode="&#x2d8;" horiz-adv-x="594" 
d="M184.5 640.5q-43.5 41.5 -47.5 116.5h70q6 -43 29.5 -64t60.5 -21t60.5 21t29.5 64h70q-4 -75 -47.5 -116.5t-112.5 -41.5t-112.5 41.5z" />
    <glyph glyph-name="dotaccent" unicode="&#x2d9;" horiz-adv-x="365" 
d="M136 771h92v-148h-92v148z" />
    <glyph glyph-name="ring" unicode="&#x2da;" horiz-adv-x="468" 
d="M162.5 618.5q-26.5 25.5 -26.5 65.5q0 41 26.5 65.5t70.5 24.5q45 0 71.5 -24.5t26.5 -65.5q0 -40 -27 -65.5t-71 -25.5t-70.5 25.5zM200 650q13 -13 33 -13q21 0 34 13t13 34t-13 33.5t-34 12.5t-33.5 -12.5t-12.5 -33.5t13 -34z" />
    <glyph glyph-name="ogonek" unicode="&#x2db;" horiz-adv-x="434" 
d="M166.5 -171q-29.5 27 -29.5 72q0 96 135 145l22 -46q-42 -17 -64 -38t-22 -49q0 -22 13 -35t37 -13q10 0 40 6v-62q-31 -7 -53 -7q-49 0 -78.5 27z" />
    <glyph glyph-name="tilde" unicode="&#x2dc;" horiz-adv-x="616" 
d="M339 624q-17 8 -43 25q-17 13 -29 19t-25 6q-38 0 -41 -54h-64q0 61 28 92.5t71 31.5q24 0 41 -8t43 -25q19 -13 30.5 -19t24.5 -6q18 0 28.5 13.5t11.5 41.5h65q0 -60 -27.5 -92.5t-72.5 -32.5q-24 0 -41 8z" />
    <glyph glyph-name="hungarumlaut" unicode="&#x2dd;" horiz-adv-x="618" 
d="M393 771h88l-84 -160h-74zM202 771h88l-80 -160h-74z" />
    <glyph glyph-name="gravecomb" unicode="&#x300;" horiz-adv-x="0" 
d="M125 771h111l116 -160h-87z" />
    <glyph glyph-name="acutecomb" unicode="&#x301;" horiz-adv-x="0" 
d="M365 771h109l-140 -160h-85z" />
    <glyph glyph-name="uni0302" unicode="&#x302;" horiz-adv-x="0" 
d="M254 771h93l118 -160h-77l-88 104l-89 -104h-76z" />
    <glyph glyph-name="tildecomb" unicode="&#x303;" horiz-adv-x="0" 
d="M325 624q-17 8 -43 25q-17 13 -29 19t-25 6q-38 0 -41 -54h-64q0 61 28 92.5t71 31.5q24 0 41 -8t43 -25q19 -13 30.5 -19t24.5 -6q18 0 28.5 13.5t11.5 41.5h65q0 -60 -27.5 -92.5t-72.5 -32.5q-24 0 -41 8z" />
    <glyph glyph-name="uni0304" unicode="&#x304;" horiz-adv-x="0" 
d="M136 719h328v-73h-328v73z" />
    <glyph glyph-name="uni0306" unicode="&#x306;" horiz-adv-x="0" 
d="M187.5 640.5q-43.5 41.5 -47.5 116.5h70q6 -43 29.5 -64t60.5 -21t60.5 21t29.5 64h70q-4 -75 -47.5 -116.5t-112.5 -41.5t-112.5 41.5z" />
    <glyph glyph-name="uni0307" unicode="&#x307;" horiz-adv-x="0" 
d="M254 771h92v-148h-92v148z" />
    <glyph glyph-name="uni0308" unicode="&#x308;" horiz-adv-x="0" 
d="M376 751h83v-123h-83v123zM141 751h84v-123h-84v123z" />
    <glyph glyph-name="uni030A" unicode="&#x30a;" horiz-adv-x="0" 
d="M228.5 618.5q-26.5 25.5 -26.5 65.5q0 41 26.5 65.5t70.5 24.5q45 0 71.5 -24.5t26.5 -65.5q0 -40 -27 -65.5t-71 -25.5t-70.5 25.5zM266 650q13 -13 33 -13q21 0 34 13t13 34t-13 33.5t-34 12.5t-33.5 -12.5t-12.5 -33.5t13 -34z" />
    <glyph glyph-name="uni030B" unicode="&#x30b;" horiz-adv-x="0" 
d="M421 771h88l-84 -160h-74zM230 771h88l-80 -160h-74z" />
    <glyph glyph-name="uni030C" unicode="&#x30c;" horiz-adv-x="0" 
d="M135 771h77l89 -104l88 104h76l-118 -160h-93z" />
    <glyph glyph-name="uni0312" unicode="&#x312;" horiz-adv-x="0" 
d="M303 753h72l-30 -142h-92z" />
    <glyph glyph-name="uni0326" unicode="&#x326;" horiz-adv-x="0" 
d="M255 -55h92l-50 -143h-72z" />
    <glyph glyph-name="uni0327" unicode="&#x327;" horiz-adv-x="0" 
d="M178 -198l61 143h100l-80 -143h-81z" />
    <glyph glyph-name="uni0328" unicode="&#x328;" horiz-adv-x="0" 
d="M179.5 -171q-29.5 27 -29.5 72q0 96 135 145l22 -46q-42 -17 -64 -38t-22 -49q0 -22 13 -35t37 -13q10 0 40 6v-62q-31 -7 -53 -7q-49 0 -78.5 27z" />
    <glyph glyph-name="uni03A9" unicode="&#x3a9;" horiz-adv-x="846" 
d="M50 83h170q-75 56 -117 134.5t-42 173.5q0 102 47 183t129.5 126t185.5 45t185 -45t129 -126t47 -183q0 -95 -42 -173.5t-117 -134.5h170v-83h-287v86q84 51 130.5 128.5t46.5 167.5q0 79 -33.5 140.5t-93 95.5t-135.5 34t-136 -34t-93.5 -95.5t-33.5 -140.5
q0 -89 47 -167t130 -129v-86h-287v83z" />
    <glyph glyph-name="pi" unicode="&#x3c0;" horiz-adv-x="581" 
d="M406.5 36.5q-37.5 38.5 -37.5 112.5v295h-172v-444h-92v444h-86v84h526v-84h-84v-287q0 -40 15 -56.5t51 -16.5h12v-86h-21q-74 0 -111.5 38.5z" />
    <glyph glyph-name="Wgrave" unicode="&#x1e80;" horiz-adv-x="1000" 
d="M27 733h99l154 -577l175 577h90l179 -579l151 579h97l-198 -733h-94l-180 575l-179 -575h-94zM326 975h111l116 -160h-87z" />
    <glyph glyph-name="wgrave" unicode="&#x1e81;" horiz-adv-x="816" 
d="M15 528h97l124 -405l133 405h85l131 -398l124 398h95l-175 -528h-84l-135 398l-136 -398h-90zM237 771h111l116 -160h-87z" />
    <glyph glyph-name="Wacute" unicode="&#x1e82;" horiz-adv-x="1000" 
d="M27 733h99l154 -577l175 577h90l179 -579l151 579h97l-198 -733h-94l-180 575l-179 -575h-94zM566 975h109l-140 -160h-85z" />
    <glyph glyph-name="wacute" unicode="&#x1e83;" horiz-adv-x="816" 
d="M15 528h97l124 -405l133 405h85l131 -398l124 398h95l-175 -528h-84l-135 398l-136 -398h-90zM477 771h109l-140 -160h-85z" />
    <glyph glyph-name="Wdieresis" unicode="&#x1e84;" horiz-adv-x="1000" 
d="M27 733h99l154 -577l175 577h90l179 -579l151 579h97l-198 -733h-94l-180 575l-179 -575h-94zM577 955h83v-123h-83v123zM342 955h84v-123h-84v123z" />
    <glyph glyph-name="wdieresis" unicode="&#x1e85;" horiz-adv-x="816" 
d="M15 528h97l124 -405l133 405h85l131 -398l124 398h95l-175 -528h-84l-135 398l-136 -398h-90zM488 751h83v-123h-83v123zM253 751h84v-123h-84v123z" />
    <glyph glyph-name="uni1E9E" unicode="&#x1e9e;" horiz-adv-x="679" 
d="M294 1v89q53 -10 86 -10q74 0 116 39t42 106t-44 102.5t-127 35.5h-40v75l140 205h-281v-643h-96v733h486v-76l-148 -222q100 -9 153.5 -63t53.5 -147q0 -108 -65.5 -170.5t-178.5 -62.5q-44 0 -97 9z" />
    <glyph glyph-name="Ygrave" unicode="&#x1ef2;" horiz-adv-x="586" 
d="M246 289l-227 444h110l166 -340l166 340h103l-222 -444v-289h-96v289zM120 975h111l116 -160h-87z" />
    <glyph glyph-name="ygrave" unicode="&#x1ef3;" horiz-adv-x="524" 
d="M222 28l-216 500h103l161 -390l149 390h97l-288 -726h-97zM90 771h111l116 -160h-87z" />
    <glyph glyph-name="endash" unicode="&#x2013;" horiz-adv-x="527" 
d="M61 372h405v-87h-405v87z" />
    <glyph glyph-name="emdash" unicode="&#x2014;" horiz-adv-x="850" 
d="M61 372h728v-87h-728v87z" />
    <glyph glyph-name="quoteleft" unicode="&#x2018;" horiz-adv-x="228" 
d="M111 733h69l-35 -277h-98z" />
    <glyph glyph-name="quoteright" unicode="&#x2019;" horiz-adv-x="223" 
d="M90 733h98l-64 -277h-69z" />
    <glyph glyph-name="quotesinglbase" unicode="&#x201a;" horiz-adv-x="231" 
d="M73 125h98l-64 -277h-69z" />
    <glyph glyph-name="quotedblleft" unicode="&#x201c;" horiz-adv-x="395" 
d="M111 733h69l-35 -277h-98zM278 733h69l-35 -277h-98z" />
    <glyph glyph-name="quotedblright" unicode="&#x201d;" horiz-adv-x="390" 
d="M90 733h98l-64 -277h-69zM257 733h98l-64 -277h-69z" />
    <glyph glyph-name="quotedblbase" unicode="&#x201e;" horiz-adv-x="398" 
d="M73 125h98l-64 -277h-69zM240 125h98l-64 -277h-69z" />
    <glyph glyph-name="dagger" unicode="&#x2020;" horiz-adv-x="465" 
d="M187 535h-144v87h144v149h92v-149h143v-87h-143v-365h-92v365z" />
    <glyph glyph-name="daggerdbl" unicode="&#x2021;" horiz-adv-x="501" 
d="M205 314h-144v82h144v148h-144v83h144v144h92v-144h143v-83h-143v-148h143v-82h-143v-144h-92v144z" />
    <glyph glyph-name="bullet" unicode="&#x2022;" horiz-adv-x="349" 
d="M99 255.5q-29 28.5 -29 74.5q0 45 29 73.5t75 28.5t75.5 -28.5t29.5 -73.5q0 -46 -29 -74.5t-76 -28.5q-46 0 -75 28.5z" />
    <glyph glyph-name="ellipsis" unicode="&#x2026;" horiz-adv-x="667" 
d="M63 119h96v-119h-96v119zM285 119h96v-119h-96v119zM507 119h96v-119h-96v119z" />
    <glyph glyph-name="perthousand" unicode="&#x2030;" horiz-adv-x="1142" 
d="M611 730h101l-523 -730h-101zM84 694q48 47 124 47q77 0 125 -47t48 -123t-48 -123t-125 -47q-76 0 -124 47t-48 123t48 123zM141.5 503.5q25.5 -25.5 66.5 -25.5t66.5 25.5t25.5 67.5t-25.5 67.5t-66.5 25.5t-66.5 -25.5t-25.5 -67.5t25.5 -67.5zM467 284.5
q46 47.5 118 47.5q73 0 119 -47.5t46 -122.5q0 -76 -46 -123t-119 -47q-72 0 -118 47.5t-46 122.5t46 122.5zM524 95q23 -25 61 -25t61 25t23 67t-23 67t-61 25t-61 -25t-23 -67t23 -67zM828 284.5q46 47.5 119 47.5q72 0 118 -47.5t46 -122.5t-46 -122.5t-118 -47.5
q-73 0 -119 47t-46 123q0 75 46 122.5zM885.5 95q23.5 -25 61.5 -25t61 25t23 67t-23 67t-61 25t-61.5 -25t-23.5 -67t23.5 -67z" />
    <glyph glyph-name="guilsinglleft" unicode="&#x2039;" horiz-adv-x="343" 
d="M50 276l137 193h96l-130 -192l132 -195h-98z" />
    <glyph glyph-name="guilsinglright" unicode="&#x203a;" horiz-adv-x="343" 
d="M189 274l-131 195h98l137 -194l-137 -193h-96z" />
    <glyph glyph-name="fraction" unicode="&#x2044;" horiz-adv-x="245" 
d="M332 730h101l-522 -730h-101z" />
    <glyph glyph-name="uni2074" unicode="&#x2074;" horiz-adv-x="383" 
d="M238 390h-221v57l215 325h79v-315h45v-67h-45v-66h-73v66zM238 457v207l-137 -207h137z" />
    <glyph glyph-name="Euro" unicode="&#x20ac;" horiz-adv-x="664" 
d="M343.5 26q-75.5 34 -127 96.5t-70.5 145.5h-93v70h83l-1 28q0 16 2 46h-84v69h97q22 79 73 137.5t125 90.5t162 32q46 0 99 -8v-90q-46 9 -93 9q-97 0 -166 -45.5t-99 -125.5h279l-15 -69h-280q-3 -22 -3 -46q0 -19 1 -28h277l-15 -70h-249q26 -88 97 -138t172 -50
q38 0 94 9v-89q-53 -8 -99 -8q-91 0 -166.5 34z" />
    <glyph glyph-name="uni20B9" unicode="&#x20b9;" horiz-adv-x="563" 
d="M69 311v64h126q137 0 154 109h-282v70h282q-16 109 -154 109h-128v70h450v-64h-132q52 -41 62 -115h70v-70h-69q-10 -86 -73.5 -136t-166.5 -51l294 -297h-129z" />
    <glyph glyph-name="uni20BA" unicode="&#x20ba;" horiz-adv-x="584" 
d="M144 316l-93 -35v72l93 35v61l-93 -35v72l93 35v212h96v-177l190 71v-72l-190 -71v-61l190 71v-72l-190 -71v-261h51q84 0 122 39.5t38 125.5v44h95v-44q0 -125 -63 -190t-184 -65h-155v316z" />
    <glyph glyph-name="uni20BD" unicode="&#x20bd;" horiz-adv-x="624" 
d="M59 224h77v81h-77v70h77v358h200q111 0 176 -57.5t65 -156.5q0 -98 -65 -156t-176 -58h-104v-81h208v-69h-208v-155h-96v155h-77v69zM334 394q69 0 107 32t38 92q0 59 -38 91.5t-107 32.5h-102v-248h102z" />
    <glyph glyph-name="uni20BF" unicode="&#x20bf;" horiz-adv-x="613" 
d="M95 723h86v56h70v-56h44q22 0 33 -1v57h70v-70q63 -19 97 -62t34 -105q0 -56 -27 -97t-76 -62q62 -18 95.5 -62t33.5 -110q0 -74 -41.5 -124t-115.5 -68v-77h-70v68h-12h-65v-68h-70v68h-86v713zM314 97q68 0 105.5 30t37.5 89t-38 88.5t-110 29.5h-117v-237h122z
M299 420q64 0 99.5 29.5t35.5 81.5q0 50 -35.5 77.5t-99.5 27.5h-107v-216h107z" />
    <glyph glyph-name="trademark" unicode="&#x2122;" horiz-adv-x="879" 
d="M367 733h126l91 -261l91 261h124v-365h-75v294l-106 -294h-70l-106 293v-293h-75v365zM37 733h276v-80h-96v-285h-84v285h-96v80z" />
    <glyph glyph-name="arrowleft" unicode="&#x2190;" horiz-adv-x="820" 
d="M187 370h586v-83h-586l259 -254h-121l-269 269v53l270 269h120z" />
    <glyph glyph-name="arrowup" unicode="&#x2191;" horiz-adv-x="689" 
d="M46 463l269 270h59l269 -270v-120l-254 260v-603h-89v602l-254 -259v120z" />
    <glyph glyph-name="arrowright" unicode="&#x2192;" horiz-adv-x="820" 
d="M633 287h-586v83h586l-259 254h120l270 -269v-53l-270 -269h-120z" />
    <glyph glyph-name="arrowdown" unicode="&#x2193;" horiz-adv-x="690" 
d="M644 267l-270 -270h-58l-270 270v121l255 -260v602h88v-602l255 260v-121z" />
    <glyph glyph-name="uni2196" unicode="&#x2196;" horiz-adv-x="674" 
d="M589 648l-363 3l414 -415l-58 -57l-414 413l3 -363l-86 86v381l38 37h381z" />
    <glyph glyph-name="uni2197" unicode="&#x2197;" horiz-adv-x="674" 
d="M552 733l37 -37v-381l-85 -86l3 364l-414 -414l-58 57l414 415l-364 -3l85 85h382z" />
    <glyph glyph-name="uni2198" unicode="&#x2198;" horiz-adv-x="665" 
d="M79 85l362 -3l-413 414l58 58l414 -413l-3 362l86 -85v-381l-38 -37h-381z" />
    <glyph glyph-name="uni2199" unicode="&#x2199;" horiz-adv-x="665" 
d="M120 0l-37 37v381l85 85l-3 -363l414 414l58 -58l-413 -414l362 3l-85 -85h-381z" />
    <glyph glyph-name="partialdiff" unicode="&#x2202;" horiz-adv-x="623" 
d="M139 18q-54 30 -84 84t-30 123q0 81 39 150t106.5 109.5t148.5 40.5q76 0 134 -39q-42 73 -105.5 125t-152.5 88l40 78q106 -40 183 -106.5t118 -152.5t41 -182q0 -99 -40 -178t-111.5 -124.5t-161.5 -45.5q-71 0 -125 30zM161 119.5q43 -44.5 113 -44.5q57 0 104.5 30.5
t75 81t27.5 107.5q0 70 -42.5 111.5t-114.5 41.5q-58 0 -105 -28t-74 -76.5t-27 -105.5q0 -73 43 -117.5z" />
    <glyph glyph-name="uni2206" unicode="&#x2206;" horiz-adv-x="652" 
d="M279 733h92l254 -733h-598zM495 85l-171 512l-169 -512h340z" />
    <glyph glyph-name="product" unicode="&#x220f;" horiz-adv-x="647" 
d="M90 733h467v-885h-97v793h-273v-793h-97v885z" />
    <glyph glyph-name="summation" unicode="&#x2211;" horiz-adv-x="563" 
d="M32 -133l238 424l-238 423v19h489v-92h-340l200 -350l-200 -351h340v-92h-489v19z" />
    <glyph glyph-name="minus" unicode="&#x2212;" horiz-adv-x="540" 
d="M65 386h410v-87h-410v87z" />
    <glyph glyph-name="radical" unicode="&#x221a;" horiz-adv-x="626" 
d="M-4 276h103l111 -303l232 798h199v-92h-130l-240 -831h-110z" />
    <glyph glyph-name="infinity" unicode="&#x221e;" horiz-adv-x="841" 
d="M507.5 184q-39.5 23 -71.5 70l-17 25l-15 -21q-34 -49 -73 -73t-90 -24t-92 23.5t-64.5 66t-23.5 96.5q0 55 23.5 97.5t65 66t93.5 23.5q51 0 90 -22.5t71 -70.5l17 -25l15 21q35 49 74 73t90 24t92 -23.5t64.5 -66t23.5 -97.5t-23.5 -97t-65 -65.5t-93.5 -23.5
q-51 0 -90.5 23zM175.5 273q26.5 -28 69.5 -28q27 0 50.5 14.5t47.5 47.5l29 40l-29 41q-23 32 -46.5 46.5t-51.5 14.5q-43 0 -69.5 -27.5t-26.5 -74.5q0 -46 26.5 -74zM498 307q23 -32 47 -47t51 -15q43 0 69.5 28t26.5 74q0 47 -26.5 74.5t-69.5 27.5q-28 0 -51 -14.5
t-47 -46.5l-29 -40z" />
    <glyph glyph-name="integral" unicode="&#x222b;" horiz-adv-x="344" 
d="M7 -60h16q44 0 62 17.5t21 62.5l41 599q5 73 43.5 112.5t113.5 39.5h31l-1 -92h-14q-39 0 -56.5 -17.5t-20.5 -57.5l-41 -594q-5 -81 -45 -121.5t-122 -40.5h-28v92z" />
    <glyph glyph-name="approxequal" unicode="&#x2248;" horiz-adv-x="540" 
d="M316 378.5q-22 5.5 -54 17.5q-29 10 -47.5 15t-43.5 5q-57 0 -105 -31v79q51 30 108 30q30 0 52.5 -5.5t51.5 -16.5q27 -10 47 -15.5t45 -5.5q58 0 106 31v-79q-49 -30 -108 -30q-30 0 -52 5.5zM66 289q49 29 108 29q30 0 52.5 -5.5t51.5 -16.5q29 -10 48 -15t44 -5
q58 0 106 31v-80q-49 -30 -108 -30q-30 0 -52 5.5t-54 17.5q-29 10 -47.5 15t-43.5 5q-57 0 -105 -31v80z" />
    <glyph glyph-name="notequal" unicode="&#x2260;" horiz-adv-x="540" 
d="M66 469h226l42 91h75l-42 -91h109v-75h-143l-48 -103h191v-75h-226l-41 -90h-75l41 90h-109v75h144l48 103h-192v75z" />
    <glyph glyph-name="lessequal" unicode="&#x2264;" horiz-adv-x="540" 
d="M61 348v105l414 133v-86l-323 -99l323 -100v-87zM66 165h409v-80h-409v80z" />
    <glyph glyph-name="greaterequal" unicode="&#x2265;" horiz-adv-x="540" 
d="M65 300l324 99l-324 100v87l414 -133v-105l-414 -134v86zM65 165h409v-80h-409v80z" />
    <glyph glyph-name="lozenge" unicode="&#x25ca;" horiz-adv-x="560" 
d="M52 367l172 367h112l172 -367l-172 -367h-112zM280 72l137 295l-137 295l-137 -295z" />
    <glyph glyph-name="zero.dnom" horiz-adv-x="406" 
d="M77 52q-45 61 -45 172t45 171t126 60t126 -60t45 -171q0 -112 -45 -172.5t-126 -60.5t-126 61zM138 109q23 -40 65 -40t65.5 39.5t23.5 115.5q0 75 -23.5 115t-65.5 40t-65 -40t-23 -115t23 -115z" />
    <glyph glyph-name="one.dnom" horiz-adv-x="208" 
d="M74 371h-48v77h128v-448h-80v371z" />
    <glyph glyph-name="two.dnom" horiz-adv-x="354" 
d="M28 58l152 157q28 30 42 52.5t14 48.5q0 29 -16.5 45.5t-45.5 16.5t-49 -17t-28 -51l-73 20q13 59 53 91t99 32q64 0 102.5 -36t38.5 -93q0 -46 -22.5 -81.5t-64.5 -77.5l-88 -90h182v-75h-296v58z" />
    <glyph glyph-name="three.dnom" horiz-adv-x="372" 
d="M76.5 27.5q-44.5 31.5 -56.5 95.5l76 23q6 -38 30 -57.5t58 -19.5q35 0 56 18t21 48q0 29 -20 46.5t-55 17.5h-34v66h31q28 0 45.5 16.5t17.5 41.5t-18 41t-47 16q-30 0 -51 -18.5t-28 -51.5l-72 18q13 59 53.5 91.5t101.5 32.5q63 0 101.5 -32.5t38.5 -84.5
q0 -33 -16 -58t-44 -39q38 -12 58 -39.5t20 -66.5q0 -61 -44.5 -98.5t-115.5 -37.5q-62 0 -106.5 31.5z" />
    <glyph glyph-name="four.dnom" horiz-adv-x="383" 
d="M238 66h-221v57l215 325h79v-315h45v-67h-45v-66h-73v66zM238 133v207l-137 -207h137z" />
    <glyph glyph-name="five.dnom" horiz-adv-x="366" 
d="M71 29.5q-44 33.5 -54 92.5l76 18q5 -33 26.5 -52.5t56.5 -19.5t56 21t21 55q0 33 -20.5 53.5t-55.5 20.5q-41 0 -67 -30l-66 17l35 243h244v-72h-181l-19 -107q34 17 73 17q64 0 102 -39.5t38 -101.5q0 -67 -44.5 -108t-114.5 -41q-62 0 -106 33.5z" />
    <glyph glyph-name="six.dnom" horiz-adv-x="366" 
d="M71 37.5q-44 41.5 -44 108.5q0 34 12.5 69.5t37.5 77.5l95 155h93q-55 -77 -103 -156q20 5 40 5q65 0 105.5 -41t40.5 -106q0 -68 -45 -111t-117 -43q-71 0 -115 41.5zM129 91.5q23 -22.5 59 -22.5t58.5 23t22.5 58q0 36 -22.5 58t-58.5 22t-59 -23.5t-23 -58.5
q0 -34 23 -56.5z" />
    <glyph glyph-name="seven.dnom" horiz-adv-x="327" 
d="M219 371h-198v77h291v-60l-171 -388h-88z" />
    <glyph glyph-name="eight.dnom" horiz-adv-x="383" 
d="M73.5 31.5q-43.5 36.5 -43.5 95.5q0 39 20.5 69t56.5 44q-27 13 -42.5 38t-15.5 57q0 52 38.5 84.5t104.5 32.5q65 0 103.5 -32.5t38.5 -84.5q0 -33 -15 -57.5t-43 -37.5q36 -14 57 -43.5t21 -69.5q0 -59 -43.5 -95.5t-118.5 -36.5t-118.5 36.5zM133.5 85
q21.5 -19 58.5 -19t58.5 19t21.5 49q0 31 -21.5 49.5t-58.5 18.5t-58.5 -18.5t-21.5 -49.5q0 -30 21.5 -49zM144 283.5q18 -16.5 48 -16.5t48 16.5t18 42.5q0 25 -18 41t-48 16t-48 -16t-18 -41q0 -26 18 -42.5z" />
    <glyph glyph-name="nine.dnom" horiz-adv-x="366" 
d="M205 156q-22 -5 -40 -5q-66 0 -106.5 40.5t-40.5 105.5q0 68 45 111.5t117 43.5q71 0 115 -42t44 -108q0 -34 -12.5 -69.5t-37.5 -77.5l-95 -155h-92q64 92 103 156zM120 239.5q23 -22.5 58 -22.5q36 0 59 23.5t23 58.5t-22.5 57.5t-58.5 22.5t-59 -23t-23 -58
q0 -36 23 -58.5z" />
    <glyph glyph-name="zero.numr" horiz-adv-x="406" 
d="M77 337q-45 61 -45 172t45 171t126 60t126 -60t45 -171q0 -112 -45 -172.5t-126 -60.5t-126 61zM138 394q23 -40 65 -40t65.5 39.5t23.5 115.5q0 75 -23.5 115t-65.5 40t-65 -40t-23 -115t23 -115z" />
    <glyph glyph-name="one.numr" horiz-adv-x="208" 
d="M74 656h-48v77h128v-448h-80v371z" />
    <glyph glyph-name="two.numr" horiz-adv-x="354" 
d="M28 343l152 157q28 30 42 52.5t14 48.5q0 29 -16.5 45.5t-45.5 16.5t-49 -17t-28 -51l-73 20q13 59 53 91t99 32q64 0 102.5 -36t38.5 -93q0 -46 -22.5 -81.5t-64.5 -77.5l-88 -90h182v-75h-296v58z" />
    <glyph glyph-name="three.numr" horiz-adv-x="372" 
d="M76.5 312.5q-44.5 31.5 -56.5 95.5l76 23q6 -38 30 -57.5t58 -19.5q35 0 56 18t21 48q0 29 -20 46.5t-55 17.5h-34v66h31q28 0 45.5 16.5t17.5 41.5t-18 41t-47 16q-30 0 -51 -18.5t-28 -51.5l-72 18q13 59 53.5 91.5t101.5 32.5q63 0 101.5 -32.5t38.5 -84.5
q0 -33 -16 -58t-44 -39q38 -12 58 -39.5t20 -66.5q0 -61 -44.5 -98.5t-115.5 -37.5q-62 0 -106.5 31.5z" />
    <glyph glyph-name="four.numr" horiz-adv-x="383" 
d="M238 351h-221v57l215 325h79v-315h45v-67h-45v-66h-73v66zM238 418v207l-137 -207h137z" />
    <glyph glyph-name="five.numr" horiz-adv-x="366" 
d="M71 314.5q-44 33.5 -54 92.5l76 18q5 -33 26.5 -52.5t56.5 -19.5t56 21t21 55q0 33 -20.5 53.5t-55.5 20.5q-41 0 -67 -30l-66 17l35 243h244v-72h-181l-19 -107q34 17 73 17q64 0 102 -39.5t38 -101.5q0 -67 -44.5 -108t-114.5 -41q-62 0 -106 33.5z" />
    <glyph glyph-name="six.numr" horiz-adv-x="366" 
d="M71 322.5q-44 41.5 -44 108.5q0 34 12.5 69.5t37.5 77.5l95 155h93q-55 -77 -103 -156q20 5 40 5q65 0 105.5 -41t40.5 -106q0 -68 -45 -111t-117 -43q-71 0 -115 41.5zM129 376.5q23 -22.5 59 -22.5t58.5 23t22.5 58q0 36 -22.5 58t-58.5 22t-59 -23.5t-23 -58.5
q0 -34 23 -56.5z" />
    <glyph glyph-name="seven.numr" horiz-adv-x="327" 
d="M219 656h-198v77h291v-60l-171 -388h-88z" />
    <glyph glyph-name="eight.numr" horiz-adv-x="383" 
d="M73.5 316.5q-43.5 36.5 -43.5 95.5q0 39 20.5 69t56.5 44q-27 13 -42.5 38t-15.5 57q0 52 38.5 84.5t104.5 32.5q65 0 103.5 -32.5t38.5 -84.5q0 -33 -15 -57.5t-43 -37.5q36 -14 57 -43.5t21 -69.5q0 -59 -43.5 -95.5t-118.5 -36.5t-118.5 36.5zM133.5 370
q21.5 -19 58.5 -19t58.5 19t21.5 49q0 31 -21.5 49.5t-58.5 18.5t-58.5 -18.5t-21.5 -49.5q0 -30 21.5 -49zM144 568.5q18 -16.5 48 -16.5t48 16.5t18 42.5q0 25 -18 41t-48 16t-48 -16t-18 -41q0 -26 18 -42.5z" />
    <glyph glyph-name="nine.numr" horiz-adv-x="366" 
d="M205 441q-22 -5 -40 -5q-66 0 -106.5 40.5t-40.5 105.5q0 68 45 111.5t117 43.5q71 0 115 -42t44 -108q0 -34 -12.5 -69.5t-37.5 -77.5l-95 -155h-92q64 92 103 156zM120 524.5q23 -22.5 58 -22.5q36 0 59 23.5t23 58.5t-22.5 57.5t-58.5 22.5t-59 -23t-23 -58
q0 -36 23 -58.5z" />
    <glyph glyph-name="caron.alt" horiz-adv-x="600" 
d="M378 771h89l-34 -206h-69z" />
    </font>
</defs>
</svg>
