<svg xmlns="http://www.w3.org/2000/svg" xmlns:xlink="http://www.w3.org/1999/xlink" width="104.934" height="104.934" viewBox="0 0 104.934 104.934"><defs><clipPath id="a"><rect width="55.041" height="29.553" fill="#fff"/></clipPath></defs><g transform="translate(-1002.799 -6044.918)"><path d="M1,1V73.2H73.2V1H1M0,0H74.2V74.2H0Z" transform="translate(1002.799 6097.385) rotate(-45)" fill="#fff"/><g transform="translate(1027.744 6082.608)"><g transform="translate(0)" clip-path="url(#a)"><path d="M26.361,4.684,18.2,29.553h-.7L10.238,4.767,7.088,20.6c-.953,4.932.373,7.875,3.9,8.041v.373H0v-.373c2.86-.166,4.974-2.528,6.052-7.834L8.912,7C9.616,3.4,8.29.58,4.808.373V0H15.294l5.513,18.569L26.9,0H37.138V.373C33.656.58,32.537,3.4,33.159,7l2.984,16.123c.622,3.523,2.57,5.347,5.223,5.513v.373H26.237v-.373c2.984-.166,3.938-1.865,3.357-5.389Z" fill="#fff"/><path d="M445.23,46.248a5.252,5.252,0,0,1,5.4-5.418,5.188,5.188,0,0,1,5.375,5.246A4.882,4.882,0,0,1,454.2,50h1.8V51.58h-5.36a5.127,5.127,0,0,1-5.4-5.332m5.4,3.593a3.386,3.386,0,0,0,3.464-3.593,3.468,3.468,0,1,0-6.927,0,3.4,3.4,0,0,0,3.464,3.593" transform="translate(-400.967 -36.771)" fill="#fff"/><rect width="7.046" height="1.947" transform="translate(42.182 17.396)" fill="#fff"/><path d="M371.846,53.377l4.5-8.5h-4.1l.315-1.777h6.607v.244l-4.486,8.5H379.1l-.3,1.777h-6.951Z" transform="translate(-334.879 -38.816)" fill="#fff"/></g></g></g></svg>