<svg xmlns="http://www.w3.org/2000/svg" xmlns:xlink="http://www.w3.org/1999/xlink" width="247.207" height="83.008" viewBox="0 0 247.207 83.008"><defs><clipPath id="a"><rect width="247.207" height="83.008" fill="#fffae9"/></clipPath></defs><g style="isolation:isolate"><g clip-path="url(#a)"><path d="M110.794,2.582l.033-.422a2.351,2.351,0,1,1,4.51,1.11,19.522,19.522,0,0,0-.55,4.958c.038,3.385,1.11,6.877,4.121,8.726a10.956,10.956,0,0,0,4.443,1.5l.69.088c-.243.015-.8.07-1.044.083-9.182.514-12.43-8.219-12.2-16.04m-5.122,2.8a22.5,22.5,0,0,0,4.92,9.442,11.625,11.625,0,0,0,9.164,4.022c-5.865-1.077-8.653-6.423-9.36-11.864a18.311,18.311,0,0,1-.166-1.935,1.864,1.864,0,0,1,0-.223,2.386,2.386,0,1,0-4.678-.023l.118.581M100.928,10.1c.087.165.239.393.344.551a20.015,20.015,0,0,0,5.964,5.724,13.836,13.836,0,0,0,8.058,2.114c-4.5-.984-7.856-4.463-9.587-8.6a12.993,12.993,0,0,1-.527-1.457l-.025-.093c0-.017-.006-.028-.009-.041l0-.019c0-.005,0,0,0,0a2.3,2.3,0,0,0-4.218,1.82m-4.935,3.879a21.917,21.917,0,0,0,3.392,2.142,23.776,23.776,0,0,0,9,2.7c.529.063,1.291.049,1.826.065l-.856-.3c-.481-.151-1.183-.479-1.653-.681-.382-.189-.8-.413-1.179-.609a22.6,22.6,0,0,1-7.1-6.328,2.369,2.369,0,1,0-3.43,3.012M131.866,3.27c.973,4.085.944,9.625-2.3,12.7a10.017,10.017,0,0,1-5.713,2.482l-.69.088c.243.026.812.06,1.044.083,6.466.385,10.305-3.968,11.627-9.949a22.59,22.59,0,0,0,.544-6.5,2.351,2.351,0,1,0-4.51,1.1m5.1,1.559c-.117,4.341-1.577,9.367-5.164,12.107a10.489,10.489,0,0,1-4.36,1.915,11.08,11.08,0,0,0,4.937-.922c4.8-2.17,7.643-7.285,9.054-12.158.068-.223.155-.707.207-.953a2.386,2.386,0,1,0-4.675.011m5.085,3.447s0,0,0,0c-.005.024-.006.036-.013.06a12.192,12.192,0,0,1-.551,1.55,14.775,14.775,0,0,1-6.767,7.6,13.207,13.207,0,0,1-2.82,1,13.211,13.211,0,0,0,3.6-.29c4.289-.958,7.943-3.974,10.42-7.548.1-.154.26-.387.343-.551a2.3,2.3,0,0,0-4.218-1.82m5.8,2.557a15.464,15.464,0,0,1-1.489,1.882,23.338,23.338,0,0,1-3.145,2.889,20.316,20.316,0,0,1-4.542,2.652c-.476.221-1.2.444-1.693.624l.91-.017c.519.006,1.315-.089,1.839-.136.438-.061.937-.151,1.379-.221.447-.1.929-.2,1.373-.315a25.843,25.843,0,0,0,8.484-4.027c.142-.1.315-.258.453-.37a2.358,2.358,0,1,0-3.568-2.962M127.129,8.445a3.333,3.333,0,1,0-6.6,0,3.333,3.333,0,1,0,6.6,0M0,76.554H6.462V49.6L16.97,67.885h4.2l10.4-18.231v26.9h6.516V37.99H31.314L19.124,59.216,6.883,37.99H0Zm46.6,0H67.725V70.2H53.434V60H67.3V53.647H53.434v-9.3H67.463V37.99H46.6Zm25.22,0H97.306l1.1-6.515H82.227L98.672,38.883V37.99H74.451L73.3,44.5H88.322l-16.5,31.156Zm49.441,0h19.6V70.775H134.3a17.85,17.85,0,0,0,6.62-14.343c0-11.191-8.669-19.177-19.649-19.177s-19.755,7.986-19.755,19.808c0,11.664,8.249,19.492,19.755,19.492M108.6,57.062c0-7.986,5.674-13.293,12.662-13.293s12.662,5.307,12.662,13.293S128.411,70.2,121.266,70.2,108.6,64.943,108.6,57.062M161.565,77.29c8.879,0,14.133-5.569,14.133-15.394V37.99h-6.831V61.423c0,6.147-2.522,9.352-7.3,9.352-4.729,0-7.2-3.152-7.2-9.352V37.99h-6.83V61.9c0,9.825,5.2,15.394,14.028,15.394m22.278-.736h6.83V37.99h-6.83Zm21.121,0h6.831V44.347h9.247V37.99H195.717v6.357h9.247Zm21.123,0h21.121V70.2H232.916V60h13.87V53.647h-13.87v-9.3h14.028V37.99H226.086Z" transform="translate(0 0)" fill="#fffae9"/></g></g></svg>