<svg xmlns="http://www.w3.org/2000/svg" xmlns:xlink="http://www.w3.org/1999/xlink" width="381.015" height="97.434" viewBox="0 0 381.015 97.434"><defs><clipPath id="a"><rect width="381.015" height="97.434" fill="#0bfff8" stroke="#0bfff8" stroke-width="1"/></clipPath></defs><g transform="translate(-948.447 -2385.673)"><g transform="translate(948.447 2385.673)"><g clip-path="url(#a)"><path d="M502.6,122.62l4.132,30.231,4.132,30.231,2.328,17.034c.041.3.5.174.46-.127l-4.132-30.231-4.132-30.231-2.328-17.034c-.041-.3-.5-.174-.46.127" transform="translate(-422.624 -102.855)" fill="#0bfff8"/><path d="M513.387,200.789h0a.682.682,0,0,1-.686-.605l-6.46-47.265-4.132-30.231a.745.745,0,0,1,.178-.6.79.79,0,0,1,.587-.268.682.682,0,0,1,.686.605l10.593,77.5a.745.745,0,0,1-.178.6A.79.79,0,0,1,513.387,200.789Z" transform="translate(-422.624 -102.855)" fill="#0bfff8"/><path d="M6.768,29.345A180.081,180.081,0,0,1,45.7,10.455,182.576,182.576,0,0,1,88,1.3,178.754,178.754,0,0,1,109.421.57c6.561.172,13.443.417,19.609,2.9A19.775,19.775,0,0,1,136.885,9a18.77,18.77,0,0,1,3.852,8.166,25.915,25.915,0,0,1-3.164,18.1c-3.421,5.967-8.628,10.7-14.165,14.673a109.326,109.326,0,0,1-17.663,10.25A117.489,117.489,0,0,1,65.6,70.691a116.207,116.207,0,0,1-20.5-.183q-5.267-.517-10.47-1.53c-2.97-.58-6.16-1.112-8.673-2.922a5.044,5.044,0,0,1-2.277-3.413,3.994,3.994,0,0,1,1.275-3.369c1.89-1.753,4.913-2.091,7.373-2.1,3.731-.012,7.5.382,11.225.643q5.939.415,11.868.957Q79.4,60.964,103.133,65.2q23.589,4.208,46.764,10.411,5.607,1.5,11.182,3.118a.239.239,0,0,0,.127-.46q-23.731-6.876-48-11.662-24.126-4.752-48.6-7.393Q52.32,57.888,39.988,57.1c-3.375-.215-6.885-.7-10.255-.223-2.208.309-4.845,1.089-6,3.179-1.227,2.211-.235,4.663,1.622,6.134,2.326,1.843,5.31,2.464,8.146,3.045a113.829,113.829,0,0,0,20.951,2.282,118.371,118.371,0,0,0,41.631-6.867A114.989,114.989,0,0,0,115.2,55.79a78.525,78.525,0,0,0,16.637-12.332c4.568-4.633,8.263-10.313,9.441-16.8,1.064-5.857.211-12.307-3.4-17.176C134.027,4.3,127.76,1.994,121.59,1.014A117.572,117.572,0,0,0,100.305.089a182.673,182.673,0,0,0-84.6,23.3q-4.674,2.631-9.182,5.542c-.257.166-.018.579.241.412" transform="translate(-5.396 0)" fill="#0bfff8"/><path d="M161.15,79.238a.756.756,0,0,1-.21-.03c-3.739-1.083-7.5-2.132-11.172-3.116-15.342-4.108-31.062-7.608-46.723-10.4-1.877-.335-3.781-.664-5.662-.98-.377.139-.759.278-1.137.412A119.034,119.034,0,0,1,76.6,70.289a118.852,118.852,0,0,1-20.24,1.746c-.637,0-1.283-.005-1.919-.016A114.536,114.536,0,0,1,33.4,69.727c-2.775-.568-5.92-1.212-8.357-3.143A6.3,6.3,0,0,1,22.9,63.549a4.7,4.7,0,0,1,.387-3.733c1.014-1.827,3.158-2.981,6.373-3.432a23.108,23.108,0,0,1,3.222-.205c1.66,0,3.341.134,4.967.264.713.057,1.451.116,2.166.161,8.184.521,16.473,1.231,24.636,2.111,10.856,1.171,21.819,2.677,32.587,4.476,2.805-1.045,5.594-2.21,8.292-3.464a109,109,0,0,0,17.582-10.2c6.518-4.677,11.1-9.425,14.023-14.515a25.279,25.279,0,0,0,3.109-17.744A18.3,18.3,0,0,0,136.5,9.316a19.1,19.1,0,0,0-7.659-5.378c-6.254-2.522-13.257-2.706-19.435-2.867-1.529-.04-3.082-.06-4.615-.06-5.549,0-11.184.266-16.749.789a182.053,182.053,0,0,0-42.182,9.128A179.611,179.611,0,0,0,7.039,29.765a.727.727,0,0,1-.394.119.747.747,0,0,1-.389-1.372c3.03-1.954,6.128-3.824,9.207-5.557A183.173,183.173,0,0,1,100.293-.411c2.4-.061,4.361-.089,6.168-.089A96.091,96.091,0,0,1,121.669.52a33.446,33.446,0,0,1,9.15,2.7,19.669,19.669,0,0,1,7.457,5.968c3.411,4.6,4.684,11,3.491,17.564a28.45,28.45,0,0,1-3.509,9.254,39.867,39.867,0,0,1-6.067,7.8c-4.222,4.282-9.542,8.227-16.742,12.413a115.25,115.25,0,0,1-15.359,7.452c4.406.76,8.842,1.579,13.214,2.44,16.077,3.167,32.241,7.094,48.042,11.672a.741.741,0,0,1-.2,1.451ZM32.5,57.675h-.171c-3.32.011-5.621.654-7.035,1.965a3.485,3.485,0,0,0-1.118,2.949,4.611,4.611,0,0,0,2.072,3.061c2.274,1.637,5.156,2.194,7.943,2.733l.534.1c3.425.668,6.932,1.181,10.423,1.523,3.692.363,7.461.546,11.2.546,3.054,0,6.153-.123,9.212-.364a117.292,117.292,0,0,0,28.818-5.978c-12.906-2.095-26.019-3.756-39.006-4.942-3.939-.36-7.929-.681-11.857-.956-.91-.064-1.838-.137-2.736-.207C38.06,57.9,35.245,57.675,32.5,57.675Z" transform="translate(-5.396 0)" fill="#0bfff8"/><path d="M959.561,406.661a3.4,3.4,0,0,0-3.253-1.507,3.641,3.641,0,0,0-3.088,2.118,4.774,4.774,0,0,0,3.569,6.433,5.545,5.545,0,0,0,6.372-3.677,5.933,5.933,0,0,0-3.253-6.866,6.084,6.084,0,0,0-7.242,2.427,5.343,5.343,0,0,0-.451.933c-.108.288.353.412.46.127a5.6,5.6,0,0,1,6.126-3.324,5.336,5.336,0,0,1,4.07,5.517,4.524,4.524,0,0,1-1.55,3.223,5.367,5.367,0,0,1-3.339,1.259,4.542,4.542,0,0,1-3.305-1.209,4.475,4.475,0,0,1-1.305-3.559,3.147,3.147,0,0,1,2.054-2.73,3.324,3.324,0,0,1,3.2.454,2.482,2.482,0,0,1,.523.621.239.239,0,0,0,.412-.241" transform="translate(-800.679 -338.669)" fill="#0bfff8"/><path d="M957.832,414.3a6.16,6.16,0,0,1-1.135-.1,5.284,5.284,0,0,1-4.016-6.924.765.765,0,0,1-.241.039.749.749,0,0,1-.619-.315.7.7,0,0,1-.074-.649,5.871,5.871,0,0,1,.494-1.02,6.693,6.693,0,0,1,5.607-3.067,5.817,5.817,0,0,1,2.253.441,6.087,6.087,0,0,1,3.127,3.088,6.335,6.335,0,0,1,.415,4.374,5.421,5.421,0,0,1-2.23,3.045A6.434,6.434,0,0,1,957.832,414.3Zm-1.164-8.186a3.267,3.267,0,0,0-1.076.183,2.647,2.647,0,0,0-1.723,2.305,3.836,3.836,0,0,0,3.978,4.222l.122,0a4.875,4.875,0,0,0,3.024-1.137,4.008,4.008,0,0,0,1.378-2.869,4.827,4.827,0,0,0-3.666-5,4.559,4.559,0,0,0-.865-.082,5.263,5.263,0,0,0-4.015,1.908,4.335,4.335,0,0,1,2.439-.987c.128-.011.259-.017.388-.017a3.8,3.8,0,0,1,3.338,1.766.715.715,0,0,1,.013.727.772.772,0,0,1-.662.384h0a.721.721,0,0,1-.622-.358,1.971,1.971,0,0,0-.418-.5A2.5,2.5,0,0,0,956.669,406.115Z" transform="translate(-800.679 -338.669)" fill="#0bfff8"/><path d="M1014.268,369.031c-1.407,2.442,1.718,4.644,3.964,4.406,3.439-.363,4.5-4.865,5.046-7.6l-.293.167a192.885,192.885,0,0,0,79.891-1.832q2.407-.57,4.8-1.2c1.876-.5,3.908-.091,5.827.045q5.125.364,10.258.62,10.477.523,20.971.595,20.981.144,41.922-1.509,23.511-1.857,46.766-5.975c.3-.053.174-.514-.127-.46a489.726,489.726,0,0,1-83.424,7.475q-10.491.038-20.976-.374-5.241-.206-10.477-.525-2.457-.15-4.913-.324-1.281-.091-2.562-.189a8.064,8.064,0,0,0-2.6-.052,200.781,200.781,0,0,1-39.757,6.3,192.167,192.167,0,0,1-45.475-3.051.242.242,0,0,0-.294.167c-.491,2.452-1.137,5.547-3.513,6.881-1.938,1.088-6.1-.758-4.625-3.321a.239.239,0,0,0-.412-.241" transform="translate(-852.576 -299.589)" fill="#0bfff8"/><path d="M1017.891,373.955a4.928,4.928,0,0,1-4.07-2.239,2.833,2.833,0,0,1,.014-2.934.716.716,0,0,1,.624-.366.773.773,0,0,1,.658.38.719.719,0,0,1,0,.726,1.414,1.414,0,0,0-.053,1.495,3.483,3.483,0,0,0,2.874,1.395,2.318,2.318,0,0,0,1.127-.254c1.968-1.1,2.669-3.665,3.115-5.795l-.621-.117.73-.416.043-.215a.726.726,0,0,1,.73-.573h0a.787.787,0,0,1,.146.014l.334.063.445-.252-.065.323a192.045,192.045,0,0,0,34.709,3.168c3.3,0,6.642-.087,9.933-.258a198.8,198.8,0,0,0,39.658-6.283,3.861,3.861,0,0,1,.973-.113,10.433,10.433,0,0,1,1.176.088c.212.024.412.047.61.062.843.064,1.7.128,2.56.189,1.623.115,3.275.224,4.908.324,3.47.211,6.992.388,10.466.525,6.359.25,12.815.377,19.187.377q.883,0,1.767,0A490.37,490.37,0,0,0,1233.2,355.8a.775.775,0,0,1,.135-.012.754.754,0,0,1,.749.7.7.7,0,0,1-.583.757c-15.5,2.739-31.249,4.752-46.814,5.981-12.794,1.01-25.78,1.523-38.6,1.523-1.117,0-2.25,0-3.367-.012-6.971-.048-14.034-.248-20.993-.6-3.4-.17-6.854-.379-10.268-.621-.439-.031-.89-.077-1.325-.121-.792-.08-1.612-.163-2.4-.163a7.539,7.539,0,0,0-1.94.224c-1.587.42-3.206.826-4.81,1.206a193.419,193.419,0,0,1-79.367,1.973,17.21,17.21,0,0,1-1.4,4.241,5.063,5.063,0,0,1-3.939,3.06A3.768,3.768,0,0,1,1017.891,373.955Z" transform="translate(-852.576 -299.589)" fill="#0bfff8"/><path d="M29.851,244.252a24.81,24.81,0,0,0-9.281.2,27.04,27.04,0,0,0-8.673,3.489,26.067,26.067,0,0,0-6.905,6.208,23.8,23.8,0,0,0-4.138,8.424,26.3,26.3,0,0,0-.713,9.394,26.992,26.992,0,0,0,2.571,9.067,24.163,24.163,0,0,0,5.662,7.505,25.27,25.27,0,0,0,8.075,4.766,27.139,27.139,0,0,0,9.309,1.639,25.4,25.4,0,0,0,9.231-1.709q1.075-.422,2.105-.944c.274-.139.033-.551-.241-.412a24.216,24.216,0,0,1-8.888,2.493,26.663,26.663,0,0,1-9.183-.829,25.519,25.519,0,0,1-8.344-3.956A23.318,23.318,0,0,1,4.214,282.8,26.008,26.008,0,0,1,.94,274.169a26.285,26.285,0,0,1-.1-9.273,23.726,23.726,0,0,1,3.241-8.6,24.752,24.752,0,0,1,6.222-6.69,26.745,26.745,0,0,1,8.147-4.113,25.013,25.013,0,0,1,9.033-1.052q1.128.08,2.243.271c.3.051.429-.408.127-.46" transform="translate(0 -205.096)" fill="#0bfff8"/><path d="M25.735,295.447a27.469,27.469,0,0,1-9.458-1.669,25.627,25.627,0,0,1-8.234-4.861,24.82,24.82,0,0,1-5.78-7.66,27.365,27.365,0,0,1-2.619-9.236,26.633,26.633,0,0,1,.727-9.573,24.15,24.15,0,0,1,4.225-8.6,26.431,26.431,0,0,1,7.038-6.328,27.372,27.372,0,0,1,8.834-3.554,25.91,25.91,0,0,1,5.315-.557,24.664,24.664,0,0,1,4.154.351.693.693,0,0,1,.585.755.765.765,0,0,1-.751.7.9.9,0,0,1-.13-.011c-.725-.124-1.463-.214-2.194-.266-.543-.039-1.1-.058-1.645-.058a24.759,24.759,0,0,0-7.206,1.089,26.111,26.111,0,0,0-7.994,4.036,24.081,24.081,0,0,0-6.1,6.554,23.093,23.093,0,0,0-3.172,8.419,25.933,25.933,0,0,0,3.311,17.558,22.665,22.665,0,0,0,6.089,6.648,24.884,24.884,0,0,0,8.18,3.878,26.211,26.211,0,0,0,6.826.906c.728,0,1.463-.031,2.184-.092a23.551,23.551,0,0,0,8.7-2.441.743.743,0,0,1,.339-.082.762.762,0,0,1,.729.586.7.7,0,0,1-.374.8c-.7.353-1.419.677-2.149.963a25.719,25.719,0,0,1-9.413,1.744Z" transform="translate(0 -205.096)" fill="#0bfff8"/><path d="M267.464,540.72a.722.722,0,1,1-.722-.722.722.722,0,0,1,.722.722" transform="translate(-223.689 -454.07)" fill="#0bfff8"/><path d="M266.742,541.942a1.222,1.222,0,1,1,1.222-1.222A1.223,1.223,0,0,1,266.742,541.942Zm0-1.444a.222.222,0,1,0,.222.222A.222.222,0,0,0,266.742,540.5Z" transform="translate(-223.689 -454.07)" fill="#0bfff8"/></g></g></g></svg>